<svg width="36" height="36" viewBox="0 0 36 36" fill="none" xmlns="http://www.w3.org/2000/svg">
<rect width="36" height="36" rx="18" fill="white"/>
<path d="M10.7256 16.4296L9.85265 16.9173L9.85265 16.9173L10.7256 16.4296ZM10.5152 16.0528L11.3881 15.5651L11.3881 15.5651L10.5152 16.0528ZM19.7244 24.3725L20.1219 23.4549L19.7244 24.3725ZM20.1493 24.5566L20.5469 23.6391L20.5469 23.6391L20.1493 24.5566ZM25.2495 21.5385L24.5877 22.2882L24.5878 22.2882L25.2495 21.5385ZM23.3095 19.8261L22.6477 20.5758H22.6477L23.3095 19.8261ZM17.4929 19.8995L18.1546 19.1498V19.1498L17.4929 19.8995ZM15.7643 18.3737L15.1025 19.1234V19.1234L15.7643 18.3737ZM15.8003 13.198L15.1386 13.9477L15.1386 13.9477L15.8003 13.198ZM13.8603 11.4856L13.1986 12.2353L13.1986 12.2353L13.8603 11.4856ZM13.7127 11.3585L13.0939 12.1441L13.0939 12.1441L13.7127 11.3585ZM11.371 11.5187L12.0392 12.2626L12.0392 12.2626L11.371 11.5187ZM11.5204 11.3876L10.8931 10.6089L10.8931 10.6089L11.5204 11.3876ZM15.7823 15.7858L15.1141 15.0419L15.7823 15.7858ZM20.4012 19.8628L21.0683 20.6077L20.4012 19.8628ZM25.2341 23.7551L24.5658 23.0112L25.2341 23.7551ZM25.3799 23.621L24.6722 22.9144L24.6722 22.9145L25.3799 23.621ZM25.3935 21.6688L24.6903 22.3798L24.6904 22.3798L25.3935 21.6688ZM20.4997 24.7044L20.8589 23.7712L20.4997 24.7044ZM24.9531 24.0024L24.3173 23.2306L24.3173 23.2306L24.9531 24.0024ZM10.3461 15.7422L11.2416 15.297L10.3461 15.7422ZM11.0957 11.7709L10.396 11.0565L10.396 11.0565L11.0957 11.7709ZM11.8676 18.3817L12.6987 17.8255L12.6987 17.8255L11.8676 18.3817ZM17.5221 23.3727L17.9836 22.4856H17.9836L17.5221 23.3727ZM22.4444 11.6091C21.8922 11.6091 21.4444 12.0568 21.4444 12.6091C21.4444 13.1614 21.8922 13.6091 22.4444 13.6091V12.6091V11.6091ZM26 13.6091C26.5523 13.6091 27 13.1614 27 12.6091C27 12.0568 26.5523 11.6091 26 11.6091V12.6091V13.6091ZM23.2222 14.2182C23.2222 14.7704 23.6699 15.2182 24.2222 15.2182C24.7745 15.2182 25.2222 14.7704 25.2222 14.2182H24.2222H23.2222ZM25.2222 11C25.2222 10.4477 24.7745 10 24.2222 10C23.6699 10 23.2222 10.4477 23.2222 11H24.2222H25.2222ZM10.7256 16.4296L11.5986 15.9419L11.3881 15.5651L10.5152 16.0528L9.64216 16.5406L9.85265 16.9173L10.7256 16.4296ZM19.7244 24.3725L19.3268 25.2901L19.7517 25.4742L20.1493 24.5566L20.5469 23.6391L20.1219 23.4549L19.7244 24.3725ZM25.2495 21.5385L25.9113 20.7888L23.9712 19.0764L23.3095 19.8261L22.6477 20.5758L24.5877 22.2882L25.2495 21.5385ZM17.4929 19.8995L18.1546 19.1498L16.426 17.624L15.7643 18.3737L15.1025 19.1234L16.8311 20.6492L17.4929 19.8995ZM15.8003 13.198L16.4621 12.4483L14.5221 10.7359L13.8603 11.4856L13.1986 12.2353L15.1386 13.9477L15.8003 13.198ZM13.8603 11.4856L14.5221 10.7359C14.4563 10.6778 14.3929 10.6213 14.3315 10.573L13.7127 11.3585L13.0939 12.1441C13.0937 12.1439 13.0986 12.1477 13.1164 12.1631C13.135 12.1792 13.1592 12.2006 13.1986 12.2353L13.8603 11.4856ZM11.371 11.5187L12.0392 12.2626C12.1256 12.185 12.1397 12.1729 12.1477 12.1664L11.5204 11.3876L10.8931 10.6089C10.8327 10.6575 10.77 10.7143 10.7028 10.7747L11.371 11.5187ZM13.7127 11.3585L14.3315 10.573C13.3343 9.78735 11.8732 9.81938 10.8931 10.6089L11.5204 11.3876L12.1477 12.1664C12.4227 11.9449 12.8499 11.9518 13.0939 12.1441L13.7127 11.3585ZM15.7823 15.7858L16.4505 16.5298C17.686 15.4201 17.7249 13.5629 16.4621 12.4483L15.8003 13.198L15.1386 13.9477C15.4708 14.241 15.4936 14.701 15.1141 15.0419L15.7823 15.7858ZM15.7643 18.3737L16.426 17.624C16.0938 17.3307 16.071 16.8706 16.4505 16.5298L15.7823 15.7858L15.1141 15.0419C13.8786 16.1516 13.8397 18.0088 15.1025 19.1234L15.7643 18.3737ZM20.4012 19.8628L19.734 19.1179C19.2907 19.5149 18.5604 19.5079 18.1546 19.1498L17.4929 19.8995L16.8311 20.6492C18.0211 21.6996 19.8937 21.6598 21.0683 20.6077L20.4012 19.8628ZM23.3095 19.8261L23.9712 19.0764C22.7812 18.026 20.9087 18.0658 19.734 19.1179L20.4012 19.8628L21.0683 20.6077C21.5117 20.2107 22.242 20.2177 22.6477 20.5758L23.3095 19.8261ZM25.2341 23.7551L25.9023 24.4991C25.9692 24.439 26.0328 24.3823 26.0876 24.3275L25.3799 23.621L24.6722 22.9145C24.6656 22.921 24.6525 22.9333 24.5658 23.0112L25.2341 23.7551ZM25.2495 21.5385L24.5878 22.2882C24.6271 22.323 24.6513 22.3443 24.6695 22.3607C24.687 22.3764 24.6911 22.3806 24.6903 22.3798L25.3935 21.6688L26.0967 20.9578C26.0412 20.9029 25.9768 20.8466 25.9112 20.7887L25.2495 21.5385ZM25.3799 23.621L26.0876 24.3275C27.0277 23.3859 27.0588 21.9092 26.0966 20.9577L25.3935 21.6688L24.6904 22.3798C24.7788 22.4673 24.806 22.5569 24.8055 22.6324C24.805 22.7091 24.7749 22.8116 24.6722 22.9144L25.3799 23.621ZM20.1493 24.5566L19.7517 25.4742C19.9219 25.5479 20.0338 25.5966 20.1404 25.6377L20.4997 24.7044L20.8589 23.7712C20.8002 23.7486 20.7336 23.72 20.5469 23.6391L20.1493 24.5566ZM25.2341 23.7551L24.5658 23.0112C24.4165 23.1453 24.3642 23.192 24.3173 23.2306L24.9531 24.0024L25.5889 24.7743C25.6767 24.702 25.7668 24.6208 25.9023 24.4991L25.2341 23.7551ZM20.4997 24.7044L20.1404 25.6377C21.9608 26.3384 24.0914 26.0078 25.5889 24.7743L24.9531 24.0024L24.3173 23.2306C23.3871 23.9969 22.0192 24.2178 20.8589 23.7712L20.4997 24.7044ZM10.5152 16.0528L11.3881 15.5651C11.2946 15.3976 11.2647 15.3436 11.2416 15.297L10.3461 15.7422L9.45067 16.1874C9.50043 16.2875 9.55895 16.3916 9.64216 16.5406L10.5152 16.0528ZM11.371 11.5187L10.7028 10.7747C10.5675 10.8962 10.4769 10.9773 10.396 11.0565L11.0957 11.7709L11.7954 12.4853C11.8379 12.4437 11.8897 12.3969 12.0392 12.2626L11.371 11.5187ZM10.3461 15.7422L11.2416 15.297C10.7913 14.3914 10.9696 13.2942 11.7954 12.4853L11.0957 11.7709L10.396 11.0565C8.99707 12.4267 8.58652 14.4492 9.45067 16.1874L10.3461 15.7422ZM10.7256 16.4296L9.85265 16.9173C10.3992 17.8956 10.6983 18.4325 11.0366 18.9379L11.8676 18.3817L12.6987 17.8255C12.4153 17.4022 12.1603 16.9472 11.5986 15.9419L10.7256 16.4296ZM19.7244 24.3725L20.1219 23.4549C18.9905 22.9647 18.4691 22.7381 17.9836 22.4856L17.5221 23.3727L17.0606 24.2599C17.6235 24.5527 18.221 24.8109 19.3268 25.2901L19.7244 24.3725ZM11.8676 18.3817L11.0366 18.9379C12.5169 21.1495 14.5905 22.9749 17.0606 24.2599L17.5221 23.3727L17.9836 22.4856C15.7938 21.3464 13.9813 19.7417 12.6987 17.8255L11.8676 18.3817ZM22.4444 12.6091V13.6091H24.2222V12.6091V11.6091H22.4444V12.6091ZM24.2222 12.6091V13.6091H26V12.6091V11.6091H24.2222V12.6091ZM24.2222 14.2182H25.2222V12.6091H24.2222H23.2222V14.2182H24.2222ZM24.2222 12.6091H25.2222V11H24.2222H23.2222V12.6091H24.2222Z" fill="#121212"/>
</svg>
