<svg width="36" height="36" viewBox="0 0 36 36" fill="none" xmlns="http://www.w3.org/2000/svg">
<rect width="36" height="36" rx="18" fill="white"/>
<path d="M20.2529 21.5556H24.6346V26M16.7476 14.4444H12.3659V10M25 15.3364C24.5087 14.1028 23.686 13.0338 22.6255 12.2509C21.5651 11.4679 20.3082 11.0022 19 10.9071C17.6917 10.812 16.3841 11.091 15.2244 11.7125C14.0647 12.3341 13.101 13.2734 12.4412 14.4232M12 20.6641C12.4913 21.8976 13.314 22.9666 14.3745 23.7496C15.4349 24.5325 16.6905 24.9976 17.9987 25.0927C19.307 25.1878 20.6157 24.9088 21.7754 24.2873C22.9351 23.6658 23.8995 22.7267 24.5593 21.5768" stroke="#353535" stroke-width="2" stroke-linecap="round" stroke-linejoin="round"/>
</svg>
