<svg width="160" height="160" viewBox="0 0 160 160" fill="none" xmlns="http://www.w3.org/2000/svg">
<path d="M80.9478 75.2141C80.5145 73.215 81.7604 71.2526 83.7286 70.8124C85.6967 70.3723 87.6288 71.6378 88.0622 73.6369C88.4955 75.6359 87.2496 77.5983 85.2814 78.0385C85.0287 78.0935 84.7578 78.1302 84.505 78.1302C82.8257 78.1302 81.327 76.9564 80.9478 75.2141ZM72.714 77.635C70.7819 77.0665 69.6624 75.0307 70.2221 73.0683C70.7638 71.1058 72.7681 69.9688 74.7183 70.5373C76.6503 71.1059 77.7699 73.1416 77.2101 75.1041C76.7587 76.7363 75.2961 77.7817 73.7071 77.7817C73.3821 77.7817 73.039 77.7267 72.714 77.635ZM91.4027 71.9495C90.0845 70.3906 90.2831 68.0797 91.7999 66.7409C93.3347 65.4204 95.6099 65.6038 96.928 67.1444C98.2281 68.7033 98.0475 71.0142 96.5308 72.353C95.8446 72.9582 94.9959 73.2334 94.1653 73.2334C93.1542 73.2517 92.1249 72.8115 91.4027 71.9495ZM61.8258 71.2342C60.3813 69.8037 60.3451 67.4745 61.7536 66.0073C63.162 64.5401 65.4552 64.5034 66.8817 65.9339C68.3262 67.3645 68.3623 69.6937 66.9539 71.1609C66.2497 71.9129 65.2927 72.2796 64.3537 72.2796C63.4509 72.2796 62.5481 71.9312 61.8258 71.2342ZM99.1129 64.0632C97.235 63.3296 96.3141 61.1838 97.0363 59.2764C97.7586 57.369 99.8712 56.4336 101.749 57.1673C103.627 57.9009 104.548 60.0467 103.808 61.954C103.248 63.4213 101.876 64.3016 100.431 64.3016C99.9977 64.3016 99.5462 64.2283 99.1129 64.0632ZM55.217 60.3768C54.6212 58.4327 55.6685 56.3419 57.5825 55.7367C59.4965 55.1315 61.5369 56.1952 62.1508 58.1393C62.7647 60.0834 61.6994 62.1558 59.7854 62.7794C59.4062 62.9078 59.0451 62.9628 58.6839 62.9628C57.1491 62.9628 55.7046 61.9541 55.217 60.3768ZM98.3003 52.4538C98.3003 50.418 99.9254 48.7674 101.93 48.7674C103.934 48.7674 105.559 50.418 105.559 52.4538C105.559 54.4896 103.916 56.1402 101.93 56.1402C99.9254 56.1585 98.3003 54.4896 98.3003 52.4538ZM57.3658 51.9403C55.3976 51.5735 54.0975 49.6477 54.4587 47.6303C54.8379 45.6312 56.7338 44.2924 58.702 44.6775C60.6702 45.0443 61.9703 46.9701 61.6091 48.9875C61.6091 48.9875 61.6091 48.9875 61.6091 49.0058C61.2841 50.7848 59.7493 52.0136 58.0339 52.0136C57.8172 52.0136 57.5825 51.9953 57.3658 51.9403ZM96.0974 43.5771C95.1584 41.7797 95.8085 39.5422 97.578 38.5702C99.3476 37.5981 101.551 38.2767 102.508 40.0741C103.465 41.8714 102.796 44.109 101.027 45.081C100.485 45.3745 99.8893 45.5212 99.3115 45.5212C98.0114 45.5212 96.7474 44.8059 96.0974 43.5771ZM60.2729 41.2295C58.702 39.9457 58.4672 37.6349 59.7312 36.0393C60.9771 34.4437 63.2703 34.2052 64.8413 35.4707C66.4122 36.7545 66.6469 39.0837 65.383 40.661C64.6607 41.5597 63.6134 42.0365 62.548 42.0365C61.7355 42.0549 60.941 41.7798 60.2729 41.2295ZM90.0123 36.7912C88.333 35.6724 87.8816 33.3799 89.0011 31.6743C90.1026 29.9686 92.3777 29.5101 94.0389 30.6289C95.7182 31.766 96.1696 34.0585 95.0501 35.7458C94.3459 36.8096 93.1903 37.3964 92.0166 37.3964C91.3304 37.4148 90.6262 37.213 90.0123 36.7912ZM67.8206 33.1781C67.0261 31.2891 67.8928 29.125 69.7527 28.3363C71.5945 27.5477 73.7432 28.428 74.5196 30.2987C75.2961 32.1878 74.4293 34.3519 72.5876 35.1406C72.1181 35.3423 71.6486 35.434 71.1611 35.434C69.7527 35.434 68.4165 34.5903 67.8206 33.1781ZM81.5076 33.7467C79.5033 33.5633 78.0407 31.766 78.2213 29.7302C78.4018 27.6944 80.1714 26.2089 82.1757 26.3923C84.18 26.5757 85.6426 28.373 85.462 30.4088C85.2814 32.3345 83.6924 33.765 81.8507 33.765C81.7423 33.765 81.6159 33.7651 81.5076 33.7467Z" fill="url(#paint0_linear_4736_391)"/>
<path d="M113.954 130.014C113.954 127.978 115.579 126.328 117.584 126.328C119.588 126.328 121.213 127.978 121.213 130.014C121.213 132.05 119.588 133.7 117.584 133.7C115.579 133.719 113.954 132.05 113.954 130.014ZM42.3414 133.004C40.3371 132.985 38.7301 131.298 38.7662 129.262C38.8023 127.226 40.4455 125.594 42.4498 125.631C44.4541 125.667 46.0611 127.336 46.025 129.372C45.9889 131.39 44.3638 133.004 42.3956 133.004C42.3776 133.004 42.3595 133.004 42.3414 133.004ZM112.654 120.037C112.113 118.075 113.268 116.02 115.2 115.489C117.132 114.957 119.137 116.112 119.66 118.093V118.074C120.202 120.037 119.046 122.091 117.114 122.623C116.789 122.715 116.464 122.751 116.157 122.751C114.55 122.77 113.088 121.688 112.654 120.037ZM42.9915 121.944C41.0775 121.376 39.958 119.322 40.5358 117.359C41.0955 115.397 43.1179 114.278 45.0499 114.847C46.982 115.415 48.0835 117.469 47.5237 119.432C47.0723 121.046 45.6097 122.091 44.0388 122.091C43.6776 122.091 43.3346 122.054 42.9915 121.944ZM108.772 110.812C107.743 109.069 108.284 106.795 110 105.75C111.733 104.704 113.972 105.273 114.984 107.015C116.013 108.776 115.471 111.032 113.756 112.077C113.16 112.444 112.528 112.609 111.878 112.609C110.65 112.609 109.44 111.967 108.772 110.812ZM46.5306 111.454C44.8333 110.372 44.3096 108.097 45.375 106.355C46.4403 104.631 48.6794 104.099 50.3767 105.181C52.074 106.263 52.5977 108.538 51.5323 110.262C50.8462 111.38 49.6544 112.004 48.4446 112.004C47.7946 112.004 47.1265 111.839 46.5306 111.454ZM102.561 103.017C101.08 101.623 101.008 99.2941 102.38 97.7902C103.752 96.3046 106.045 96.2129 107.508 97.6067C108.989 99.0006 109.061 101.33 107.689 102.815C106.966 103.586 105.991 103.989 105.016 103.989C104.15 104.008 103.265 103.696 102.561 103.017ZM52.7421 102.32C51.3879 100.798 51.5323 98.4687 53.013 97.0932C54.5117 95.736 56.8049 95.8644 58.141 97.3683C59.4953 98.8905 59.3509 101.22 57.8702 102.595C57.166 103.237 56.2993 103.549 55.4325 103.549C54.4575 103.549 53.4644 103.146 52.7421 102.32ZM94.4892 97.3316C92.7016 96.433 91.9612 94.2138 92.846 92.3981C93.7308 90.5641 95.9157 89.8305 97.7033 90.7291C99.5089 91.6278 100.249 93.847 99.3464 95.681C98.7145 96.9832 97.4324 97.7351 96.0962 97.7351C95.5726 97.7168 95.0128 97.6067 94.4892 97.3316ZM61.1926 95.3142C60.344 93.4802 61.1204 91.261 62.9261 90.399C64.7498 89.5187 66.9166 90.3073 67.7653 92.1597C68.6139 94.012 67.8556 96.2129 66.0318 97.0749C65.5263 97.3133 65.0026 97.4234 64.479 97.4234C63.1428 97.4234 61.8246 96.653 61.1926 95.3142ZM85.19 94.3055C83.2038 93.9754 81.8676 92.0863 82.1745 90.0689C82.4995 88.0515 84.3594 86.6759 86.3456 87.0061C88.3319 87.3362 89.6861 89.2252 89.3611 91.2427C89.0722 93.0583 87.5193 94.3422 85.7678 94.3422C85.5692 94.3605 85.3886 94.3422 85.19 94.3055ZM71.3044 91.0776C71.0155 89.0602 72.4058 87.1895 74.3921 86.896C76.3783 86.6026 78.2201 88.0148 78.509 90.0322C78.7979 92.0496 77.4076 93.9204 75.4213 94.2138C75.2407 94.2505 75.0782 94.2505 74.8977 94.2505C73.1101 94.2505 71.5572 92.93 71.3044 91.0776Z" fill="url(#paint1_linear_4736_391)"/>
<path d="M0 48.0149C0 45.9791 1.62512 44.3285 3.62941 44.3285C5.63371 44.3285 7.2588 45.9791 7.2588 48.0149C7.2588 50.0506 5.63371 51.7012 3.62941 51.7012C1.62512 51.7012 0 50.0506 0 48.0149ZM0 36.919C0 34.8832 1.62512 33.2326 3.62941 33.2326C5.63371 33.2326 7.2588 34.8832 7.2588 36.919C7.2588 38.9547 5.63371 40.6054 3.62941 40.6054C1.62512 40.6237 0 38.9731 0 36.919ZM0 25.8414C0 23.8057 1.62512 22.1551 3.62941 22.1551C5.63371 22.1551 7.2588 23.8057 7.2588 25.8414C7.2588 27.8772 5.63371 29.5278 3.62941 29.5278C1.62512 29.5278 0 27.8772 0 25.8414ZM0 14.7639C0 12.7282 1.62512 11.0775 3.62941 11.0775C5.63371 11.0775 7.2588 12.7282 7.2588 14.7639C7.2588 16.7997 5.63371 18.4503 3.62941 18.4503C1.62512 18.4503 0 16.7997 0 14.7639ZM0 3.68639C0 1.65062 1.62512 0 3.62941 0C5.63371 0 7.2588 1.65062 7.2588 3.68639C7.2588 5.72216 5.63371 7.3728 3.62941 7.3728C1.62512 7.3728 0 5.72216 0 3.68639ZM42.3971 3.68639C42.3971 1.65062 44.0222 0 46.0265 0C48.0308 0 49.6559 1.65062 49.6559 3.68639C49.6559 5.72216 48.0308 7.3728 46.0265 7.3728C44.0403 7.3728 42.3971 5.72216 42.3971 3.68639ZM31.4909 3.68639C31.4909 1.65062 33.116 0 35.1203 0C37.1246 0 38.7497 1.65062 38.7497 3.68639C38.7497 5.72216 37.1246 7.3728 35.1203 7.3728C33.116 7.3728 31.4909 5.72216 31.4909 3.68639ZM20.5846 3.68639C20.5846 1.65062 22.2097 0 24.214 0C26.2183 0 27.8434 1.65062 27.8434 3.68639C27.8434 5.72216 26.2183 7.3728 24.214 7.3728C22.2097 7.3728 20.5846 5.72216 20.5846 3.68639ZM9.67839 3.68639C9.67839 1.65062 11.3035 0 13.3078 0C15.3121 0 16.9372 1.65062 16.9372 3.68639C16.9372 5.72216 15.3121 7.3728 13.3078 7.3728C11.3035 7.3728 9.67839 5.72216 9.67839 3.68639Z" fill="url(#paint2_linear_4736_391)"/>
<path d="M42.3971 156.314C42.3971 154.278 44.0222 152.627 46.0265 152.627C48.0308 152.627 49.6559 154.296 49.6559 156.314C49.6559 158.349 48.0308 160 46.0265 160C44.0403 160 42.3971 158.349 42.3971 156.314ZM31.4909 156.314C31.4909 154.278 33.116 152.627 35.1203 152.627C37.1246 152.627 38.7497 154.296 38.7497 156.314C38.7497 158.349 37.1246 160 35.1203 160C33.116 160 31.4909 158.349 31.4909 156.314ZM20.5846 156.314C20.5846 154.278 22.2278 152.627 24.214 152.627C26.2183 152.627 27.8434 154.296 27.8434 156.314C27.8434 158.349 26.2183 160 24.214 160C22.2278 160 20.5846 158.349 20.5846 156.314ZM9.67839 156.314C9.67839 154.278 11.3035 152.627 13.3078 152.627C15.3121 152.627 16.9372 154.296 16.9372 156.314C16.9372 158.349 15.3121 160 13.3078 160C11.3035 160 9.67839 158.349 9.67839 156.314ZM0 156.314C0 154.278 1.62512 152.609 3.62941 152.609C5.63371 152.609 7.2588 154.278 7.2588 156.314C7.2588 158.349 5.63371 160 3.62941 160C1.62512 160 0 158.349 0 156.314ZM0 145.236C0 143.2 1.62512 141.55 3.62941 141.55C5.63371 141.55 7.2588 143.2 7.2588 145.236C7.2588 147.272 5.63371 148.941 3.62941 148.941C1.62512 148.923 0 147.272 0 145.236ZM0 134.159C0 132.105 1.62512 130.454 3.62941 130.454C5.63371 130.454 7.2588 132.105 7.2588 134.159C7.2588 136.194 5.63371 137.845 3.62941 137.845C1.62512 137.845 0 136.194 0 134.159ZM0 123.063C0 121.027 1.62512 119.376 3.62941 119.376C5.63371 119.376 7.2588 121.045 7.2588 123.063C7.2588 125.099 5.63371 126.749 3.62941 126.749C1.62512 126.767 0 125.099 0 123.063ZM0 111.985C0 109.949 1.62512 108.299 3.62941 108.299C5.63371 108.299 7.2588 109.949 7.2588 111.985C7.2588 114.021 5.63371 115.672 3.62941 115.672C1.62512 115.672 0 114.021 0 111.985Z" fill="url(#paint3_linear_4736_391)"/>
<path d="M152.724 48.0149C152.724 45.9791 154.349 44.3285 156.353 44.3285C158.357 44.3285 159.983 45.9791 159.983 48.0149C159.983 50.0506 158.357 51.7012 156.353 51.7012C154.349 51.7012 152.724 50.0506 152.724 48.0149ZM152.724 36.919C152.724 34.8832 154.349 33.2326 156.353 33.2326C158.357 33.2326 159.983 34.8832 159.983 36.919C159.983 38.9547 158.357 40.6054 156.353 40.6054C154.349 40.6237 152.724 38.9731 152.724 36.919ZM152.724 25.8414C152.724 23.8057 154.349 22.1551 156.353 22.1551C158.357 22.1551 159.983 23.8057 159.983 25.8414C159.983 27.8772 158.357 29.5278 156.353 29.5278C154.349 29.5278 152.724 27.8772 152.724 25.8414ZM152.724 14.7639C152.724 12.7282 154.349 11.0775 156.353 11.0775C158.357 11.0775 159.983 12.7282 159.983 14.7639C159.983 16.7997 158.357 18.4503 156.353 18.4503C154.349 18.4503 152.724 16.7997 152.724 14.7639ZM152.724 3.68639C152.724 1.65062 154.349 0 156.353 0C158.357 0 159.983 1.65062 159.983 3.68639C159.983 5.72216 158.357 7.3728 156.353 7.3728C154.349 7.3728 152.724 5.72216 152.724 3.68639ZM143.027 3.68639C143.027 1.65062 144.67 0 146.657 0C148.661 0 150.286 1.65062 150.286 3.68639C150.286 5.72216 148.661 7.3728 146.657 7.3728C144.67 7.3728 143.027 5.72216 143.027 3.68639ZM132.121 3.68639C132.121 1.65062 133.746 0 135.75 0C137.755 0 139.38 1.65062 139.38 3.68639C139.38 5.72216 137.755 7.3728 135.75 7.3728C133.746 7.3728 132.121 5.72216 132.121 3.68639ZM121.215 3.68639C121.215 1.65062 122.84 0 124.844 0C126.849 0 128.474 1.65062 128.474 3.68639C128.474 5.72216 126.849 7.3728 124.844 7.3728C122.84 7.3728 121.215 5.72216 121.215 3.68639ZM110.309 3.68639C110.309 1.65062 111.934 0 113.938 0C115.942 0 117.567 1.65062 117.567 3.68639C117.567 5.72216 115.942 7.3728 113.938 7.3728C111.934 7.3728 110.309 5.72216 110.309 3.68639Z" fill="url(#paint4_linear_4736_391)"/>
<path d="M143.027 156.314C143.027 154.278 144.652 152.627 146.657 152.627C148.661 152.627 150.286 154.296 150.286 156.314C150.286 158.349 148.661 160 146.657 160C144.67 160 143.027 158.349 143.027 156.314ZM132.121 156.314C132.121 154.278 133.764 152.627 135.75 152.627C137.755 152.627 139.38 154.296 139.38 156.314C139.38 158.349 137.755 160 135.75 160C133.764 160 132.121 158.349 132.121 156.314ZM121.215 156.314C121.215 154.278 122.84 152.627 124.844 152.627C126.849 152.627 128.474 154.296 128.474 156.314C128.474 158.349 126.849 160 124.844 160C122.84 160 121.215 158.349 121.215 156.314ZM110.309 156.314C110.309 154.278 111.952 152.627 113.956 152.627C115.96 152.627 117.585 154.296 117.585 156.314C117.585 158.349 115.96 160 113.956 160C111.934 160 110.309 158.349 110.309 156.314ZM152.724 156.314C152.724 154.278 154.349 152.609 156.353 152.609C158.376 152.609 160.001 154.278 160.001 156.314C160.001 158.349 158.376 160 156.353 160C154.349 160 152.724 158.349 152.724 156.314ZM152.724 145.236C152.724 143.2 154.349 141.55 156.353 141.55C158.376 141.55 160.001 143.2 160.001 145.236C160.001 147.272 158.376 148.941 156.353 148.941C154.349 148.923 152.724 147.272 152.724 145.236ZM152.724 134.159C152.724 132.105 154.349 130.454 156.353 130.454C158.376 130.454 160.001 132.105 160.001 134.159C160.001 136.194 158.376 137.845 156.353 137.845C154.349 137.845 152.724 136.194 152.724 134.159ZM152.724 123.063C152.724 121.027 154.349 119.376 156.353 119.376C158.376 119.376 160.001 121.045 160.001 123.063C160.001 125.099 158.376 126.749 156.353 126.749C154.349 126.767 152.724 125.099 152.724 123.063ZM152.724 111.985C152.724 109.949 154.349 108.299 156.353 108.299C158.376 108.299 160.001 109.949 160.001 111.985C160.001 114.021 158.376 115.672 156.353 115.672C154.349 115.672 152.724 114.021 152.724 111.985Z" fill="url(#paint5_linear_4736_391)"/>
<defs>
<linearGradient id="paint0_linear_4736_391" x1="105.559" y1="26.377" x2="43.6459" y2="50.2849" gradientUnits="userSpaceOnUse">
<stop offset="0.144231" stop-color="#964216"/>
<stop offset="0.413462" stop-color="#5E2A0F"/>
<stop offset="0.625" stop-color="#2F1507"/>
<stop offset="0.865385" stop-color="#140902"/>
<stop offset="1" stop-color="#00040D"/>
</linearGradient>
<linearGradient id="paint1_linear_4736_391" x1="121.213" y1="86.8574" x2="43.3603" y2="140.383" gradientUnits="userSpaceOnUse">
<stop offset="0.144231" stop-color="#964216"/>
<stop offset="0.413462" stop-color="#5E2A0F"/>
<stop offset="0.625" stop-color="#2F1507"/>
<stop offset="0.865385" stop-color="#140902"/>
<stop offset="1" stop-color="#00040D"/>
</linearGradient>
<linearGradient id="paint2_linear_4736_391" x1="49.6559" y1="-2.46531e-06" x2="-10.8767" y2="22.7101" gradientUnits="userSpaceOnUse">
<stop offset="0.144231" stop-color="#964216"/>
<stop offset="0.413462" stop-color="#5E2A0F"/>
<stop offset="0.625" stop-color="#2F1507"/>
<stop offset="0.865385" stop-color="#140902"/>
<stop offset="1" stop-color="#00040D"/>
</linearGradient>
<linearGradient id="paint3_linear_4736_391" x1="49.6559" y1="108.299" x2="-10.8767" y2="131.009" gradientUnits="userSpaceOnUse">
<stop offset="0.144231" stop-color="#964216"/>
<stop offset="0.413462" stop-color="#5E2A0F"/>
<stop offset="0.625" stop-color="#2F1507"/>
<stop offset="0.865385" stop-color="#140902"/>
<stop offset="1" stop-color="#00040D"/>
</linearGradient>
<linearGradient id="paint4_linear_4736_391" x1="159.983" y1="-2.46531e-06" x2="99.4334" y2="22.7246" gradientUnits="userSpaceOnUse">
<stop offset="0.144231" stop-color="#964216"/>
<stop offset="0.413462" stop-color="#5E2A0F"/>
<stop offset="0.625" stop-color="#2F1507"/>
<stop offset="0.865385" stop-color="#140902"/>
<stop offset="1" stop-color="#00040D"/>
</linearGradient>
<linearGradient id="paint5_linear_4736_391" x1="160.001" y1="108.299" x2="99.4349" y2="131.038" gradientUnits="userSpaceOnUse">
<stop offset="0.144231" stop-color="#964216"/>
<stop offset="0.413462" stop-color="#5E2A0F"/>
<stop offset="0.625" stop-color="#2F1507"/>
<stop offset="0.865385" stop-color="#140902"/>
<stop offset="1" stop-color="#00040D"/>
</linearGradient>
</defs>
</svg>
