<svg width="61" height="62" viewBox="0 0 61 62" fill="none" xmlns="http://www.w3.org/2000/svg">
<rect x="0.5" y="1" width="60" height="60" rx="12" stroke="white"/>
<path d="M26.6927 37.9798C26.4106 39.4159 25.1448 40.4992 23.6261 40.4992H21.1259C20.7807 40.4992 20.5008 40.2193 20.5008 39.8741V37.3739C20.5008 35.8552 21.5841 34.5894 23.0202 34.3073L23.035 33.8788C23.06 33.1542 23.1346 32.443 23.2555 31.7484H18.6257C18.1835 31.7484 17.8811 31.3018 18.0453 30.8912L20.5455 24.6407C20.6405 24.4034 20.8703 24.2478 21.1259 24.2478H26.7514C26.7831 24.2478 26.8143 24.2501 26.8447 24.2547C29.788 20.8993 34.1579 18.8435 38.9665 19.0093C39.7299 19.0357 40.4903 19.1187 41.2414 19.2578C41.4959 19.3049 41.6951 19.5041 41.7422 19.7586C42.768 25.2977 40.6929 30.6931 36.7456 34.1575C36.75 34.1873 36.7522 34.2177 36.7522 34.2486V39.8741C36.7522 40.1297 36.5966 40.3595 36.3593 40.4545L30.1088 42.9547C29.6982 43.1189 29.2516 42.8165 29.2516 42.3743V37.7426C28.5475 37.8661 27.8357 37.9404 27.1212 37.965L26.6927 37.9798ZM25.4856 37.6172L23.3828 35.5144C22.4621 35.6336 21.7509 36.4207 21.7509 37.3739V39.2491H23.6261C24.5793 39.2491 25.3664 38.5379 25.4856 37.6172ZM30.5017 37.4702V41.4511L35.5021 39.4509V35.1402C34.0243 36.1889 32.341 36.9895 30.5017 37.4702ZM23.5271 30.4983C24.0037 28.675 24.8044 26.9873 25.8622 25.4979H21.5491L19.5489 30.4983H23.5271ZM26.3762 36.7399L27.0781 36.7157C27.7796 36.6915 28.4783 36.6152 29.1685 36.4873C36.715 35.0898 41.7473 27.9481 40.5857 20.4145C40.0353 20.3299 39.4802 20.2779 38.9235 20.2587C31.108 19.9892 24.5538 26.1064 24.2843 33.9219L24.2601 34.6238L26.3762 36.7399ZM33.0019 31.7484C30.9307 31.7484 29.2516 30.0693 29.2516 27.9981C29.2516 25.9269 30.9307 24.2478 33.0019 24.2478C35.0731 24.2478 36.7522 25.9269 36.7522 27.9981C36.7522 30.0693 35.0731 31.7484 33.0019 31.7484ZM33.0019 30.4983C34.3827 30.4983 35.5021 29.3789 35.5021 27.9981C35.5021 26.6173 34.3827 25.4979 33.0019 25.4979C31.6211 25.4979 30.5017 26.6173 30.5017 27.9981C30.5017 29.3789 31.6211 30.4983 33.0019 30.4983Z" fill="white"/>
</svg>
