<svg width="61" height="62" viewBox="0 0 61 62" fill="none" xmlns="http://www.w3.org/2000/svg">
<rect x="0.5" y="1" width="60" height="60" rx="12" stroke="white"/>
<path fill-rule="evenodd" clip-rule="evenodd" d="M31.4513 20.1304C30.4515 20.8508 29.6375 21.7987 29.0763 22.8958C28.5152 23.9929 28.2231 25.2077 28.2241 26.44V26.4898C28.2303 27.4234 28.4015 28.3196 28.708 29.149C28.957 29.815 28.3906 30.565 27.7589 30.2382C26.5847 29.6284 25.5846 28.7306 24.8522 27.6288C24.5379 27.1557 23.8439 27.0639 23.5327 27.5385C22.5065 29.1009 21.973 30.9353 22.0011 32.8043C22.0292 34.6733 22.6176 36.4909 23.6903 38.0217C24.763 39.5525 26.2706 40.726 28.0177 41.3904C29.7649 42.0548 31.6713 42.1794 33.4901 41.7481C35.3089 41.3168 36.9563 40.3495 38.2192 38.9714C39.482 37.5933 40.3021 35.8678 40.5733 34.0184C40.8445 32.1689 40.5542 30.2806 39.7402 28.598C38.9261 26.9153 37.6257 25.5158 36.0072 24.5806L36.001 24.5697C34.4388 23.6698 33.2393 22.2535 32.6089 20.5645C32.4284 20.0821 31.8667 19.8316 31.4513 20.1304ZM32.6649 29.7418C33.3988 29.9595 34.0679 30.3542 34.6134 30.8912C35.1588 31.4282 35.5639 32.0911 35.7929 32.8215C36.022 33.5519 36.0679 34.3274 35.9268 35.0797C35.7857 35.832 35.4617 36.5381 34.9835 37.1359C34.5053 37.7336 33.8875 38.2045 33.1845 38.5074C32.4815 38.8102 31.7148 38.9355 30.952 38.8723C30.1891 38.8092 29.4535 38.5595 28.8099 38.1451C28.1662 37.7308 27.6343 37.1647 27.2609 36.4965C26.9419 35.9285 27.5955 35.4166 28.2257 35.5784C29.1798 35.824 30.1785 35.84 31.1401 35.6251C31.5882 35.5239 31.7827 35.0245 31.6395 34.5888C31.4377 33.9666 31.3353 33.3165 31.3361 32.6625C31.3361 31.7522 31.5322 30.8886 31.8823 30.109C31.9459 29.9633 32.0605 29.8458 32.2046 29.7785C32.3486 29.7111 32.5123 29.6971 32.6649 29.7418Z" fill="white"/>
</svg>
