<svg width="62" height="62" viewBox="0 0 62 62" fill="none" xmlns="http://www.w3.org/2000/svg">
<rect x="1" y="1" width="60" height="60" rx="12" stroke="white"/>
<path d="M45.8792 26.2182C45.7184 26.0533 45.4573 26.0533 45.2963 26.2182L42.7289 28.847C42.662 28.9155 42.6203 29.0053 42.6104 29.1016C42.406 31.104 41.5278 32.9909 40.1373 34.4145L39.5272 35.0392L35.0941 30.5001C35.3745 30.5679 35.649 30.6022 35.9155 30.6022C36.3064 30.6022 36.6806 30.529 37.032 30.3818C37.2427 30.2935 37.3436 30.047 37.2575 29.8313C37.1713 29.6155 36.9305 29.5123 36.7199 29.6005C35.0224 30.3116 33.0655 28.4191 32.819 28.1706L31.6411 26.9646C31.7873 26.3296 31.661 25.6481 31.285 25.0944C30.8599 24.4686 30.184 24.1098 29.4278 24.1098L26.5747 24.1307C26.5722 24.1307 26.5696 24.1307 26.5672 24.1307C26.294 24.1307 26.0372 24.0223 25.8432 23.8251C25.6475 23.626 25.5397 23.3607 25.5397 23.0781V23.0341C25.5398 22.4671 25.9735 22.0054 26.5269 21.9831L31.7226 21.7735C33.5977 21.6979 35.4667 22.281 36.9826 23.4152C37.1467 23.5379 37.3736 23.52 37.5172 23.3729L40.246 20.5788C40.407 20.414 40.407 20.1468 40.2461 19.982C40.0851 19.8172 39.8241 19.8172 39.6631 19.982L37.179 22.5256C35.5684 21.4166 33.633 20.8518 31.6901 20.93L26.4944 21.1396C26.4822 21.1402 26.4702 21.1413 26.4581 21.142L24.4867 19.1236C24.3258 18.9588 24.0648 18.9588 23.9038 19.1236C23.7428 19.2884 23.7428 19.5557 23.9038 19.7205L25.5749 21.4315C25.0563 21.7674 24.7155 22.3593 24.7153 23.0341V23.078C24.7152 23.5872 24.9095 24.0652 25.2623 24.424C25.6151 24.7828 26.0829 24.9785 26.5806 24.9748L29.4307 24.9538C30.0872 24.9538 30.4502 25.3439 30.6081 25.5764C30.7284 25.7535 30.809 25.9502 30.8482 26.1529L30.707 26.0082C30.546 25.8434 30.285 25.8434 30.1241 26.0082C29.963 26.173 29.963 26.4403 30.1241 26.6051L39.4248 36.128C39.8264 36.5392 39.8264 37.2084 39.4248 37.6196C39.0233 38.0306 38.3702 38.0307 37.9686 37.6201L32.0445 31.5544C31.8836 31.3896 31.6225 31.3896 31.4617 31.5544C31.3006 31.7192 31.3006 31.9865 31.4617 32.1513L37.8425 38.6847C38.2442 39.0959 38.2442 39.765 37.8425 40.1762C37.648 40.3754 37.3894 40.4852 37.1141 40.4852C36.839 40.4852 36.5803 40.3754 36.3858 40.1762L30.3369 33.9828C30.1759 33.818 29.915 33.818 29.754 33.9828C29.5931 34.1476 29.593 34.4148 29.754 34.5796L34.7105 39.6546C35.1118 40.0659 35.1117 40.7347 34.7102 41.1457C34.3085 41.557 33.655 41.5569 33.2534 41.1457L27.8703 35.634C27.7094 35.4692 27.4484 35.4692 27.2874 35.634C27.1264 35.7988 27.1264 36.0661 27.2874 36.2309L31.2804 40.3193C31.6821 40.7305 31.6821 41.3996 31.2805 41.8109C30.8789 42.2221 30.2254 42.2221 29.8238 41.8109L22.5997 34.4145C21.2093 32.9909 20.331 31.104 20.1267 29.1016C20.1169 29.0053 20.0751 28.9155 20.0082 28.847L16.7037 25.4635C16.5427 25.2986 16.2817 25.2986 16.1208 25.4635C15.9597 25.6283 15.9597 25.8955 16.1208 26.0603L19.3233 29.3394C19.5749 31.4778 20.5279 33.4868 22.0168 35.0113L22.6247 35.6337C22.3984 35.9545 22.2759 36.3386 22.2759 36.7421C22.2759 37.2493 22.4688 37.7261 22.8191 38.0847C23.1806 38.4549 23.6554 38.64 24.1303 38.64C24.1771 38.64 24.2238 38.6377 24.2704 38.6341C24.2544 38.7349 24.2459 38.8376 24.2459 38.9417C24.2459 39.4488 24.4388 39.9257 24.789 40.2843C25.1505 40.6544 25.6254 40.8395 26.1003 40.8395C26.1927 40.8395 26.2851 40.8323 26.3767 40.8183C26.2926 41.3939 26.4663 42.0017 26.8982 42.4439C27.2484 42.8025 27.7141 43 28.2095 43C28.6509 43 29.0687 42.8427 29.4023 42.5547C29.7381 42.8268 30.1449 42.9633 30.5521 42.9633C31.0269 42.9633 31.5019 42.7781 31.8634 42.408C32.1328 42.1322 32.3016 41.792 32.3703 41.4354L32.6704 41.7427C33.032 42.1129 33.5068 42.298 33.9817 42.298C34.4566 42.298 34.9316 42.1129 35.2931 41.7427C35.5625 41.467 35.7313 41.1268 35.7999 40.7702L35.8028 40.7731C36.153 41.1317 36.6187 41.3292 37.1141 41.3292C37.6096 41.3292 38.0752 41.1317 38.4255 40.7731C38.955 40.231 39.0962 39.4401 38.8503 38.7647C39.2726 38.729 39.6853 38.5466 40.0077 38.2164C40.6963 37.5114 40.7286 36.3857 40.1058 35.6405L40.7202 35.0113C42.2091 33.4868 43.1621 31.4777 43.4138 29.3393L45.8793 26.8149C46.0402 26.6501 46.0402 26.3829 45.8792 26.2182ZM23.402 37.4879C23.2075 37.2887 23.1003 37.0238 23.1003 36.7421C23.1003 36.5657 23.1424 36.396 23.2215 36.2447L24.6161 37.6727C24.4685 37.7537 24.3026 37.7968 24.1303 37.7968C23.8553 37.7969 23.5966 37.6872 23.402 37.4879ZM25.372 39.6875C25.1774 39.4883 25.0703 39.2234 25.0703 38.9417C25.0703 38.7201 25.1374 38.5095 25.2604 38.3326L26.6951 39.8015C26.2933 40.0932 25.7318 40.0558 25.372 39.6875ZM27.4811 41.847C27.1213 41.4786 27.0849 40.9038 27.3698 40.4923L28.8045 41.9613C28.6316 42.0872 28.4259 42.156 28.2095 42.156C27.9344 42.156 27.6757 42.0463 27.4811 41.847Z" stroke="white"/>
</svg>
