<svg width="212" height="170" viewBox="0 0 212 170" fill="none" xmlns="http://www.w3.org/2000/svg">
    <path d="M51.8358 103.863C51.3032 101.602 52.8344 99.383 55.2531 98.906C57.6717 98.4082 60.046 99.8393 60.5785 102.1C61.1111 104.36 59.58 106.58 57.1391 107.077C56.8285 107.139 56.4957 107.181 56.185 107.181C54.1436 107.16 52.3018 105.812 51.8358 103.863ZM41.7173 106.6C39.343 105.957 37.9672 103.655 38.6551 101.436C39.343 99.2171 41.8062 97.9312 44.1805 98.5741C46.5547 99.2171 47.9304 101.519 47.2425 103.738C46.6878 105.584 44.8904 106.766 42.9599 106.766C42.5383 106.766 42.1389 106.704 41.7173 106.6ZM64.6837 100.171C63.086 98.4083 63.3079 95.795 65.1718 94.2811C67.0579 92.7878 69.8761 92.9952 71.4737 94.7373C73.0936 96.5002 72.8494 99.1134 70.9855 100.627C70.1423 101.312 69.0993 101.623 68.0786 101.623C66.836 101.644 65.5713 101.146 64.6837 100.171ZM28.337 99.3622C26.5618 97.7446 26.5174 95.1107 28.2482 93.4515C29.979 91.7924 32.7971 91.7509 34.5723 93.3686C36.3475 94.9863 36.3918 97.6201 34.661 99.2793C33.7956 100.13 32.6195 100.544 31.4435 100.544C30.3562 100.544 29.2246 100.15 28.337 99.3622ZM74.1586 91.2531C71.8508 90.4236 70.7193 87.9971 71.6068 85.8402C72.5166 83.6833 75.0906 82.6256 77.3983 83.4552C79.706 84.2848 80.8378 86.7112 79.9502 88.8681C79.2623 90.5273 77.5759 91.5228 75.7785 91.5228C75.246 91.5228 74.6911 91.4398 74.1586 91.2531ZM20.2155 87.0846C19.4611 84.8862 20.7702 82.5219 23.1224 81.8375C25.4745 81.1531 28.0041 82.356 28.7364 84.5544C29.4687 86.7528 28.1817 89.0963 25.8296 89.8014C25.3858 89.9466 24.9198 90.0088 24.476 90.0088C22.5899 90.0088 20.8368 88.8682 20.2155 87.0846ZM73.1601 78.1252C73.1601 75.8231 75.1571 73.9565 77.6202 73.9565C80.0832 73.9565 82.0803 75.8231 82.0803 78.1252C82.0803 80.4272 80.0832 82.2937 77.6202 82.2937C75.1571 82.3145 73.1601 80.4272 73.1601 78.1252ZM22.8561 77.5445C20.4374 77.1297 18.8176 74.952 19.2836 72.6707C19.7274 70.4101 22.0572 68.8961 24.4981 69.3316C26.939 69.7464 28.5367 71.9241 28.0707 74.2054C28.0707 74.2054 28.0707 74.2054 28.0707 74.2262C27.6713 76.2379 25.7851 77.6274 23.6993 77.6274C23.4108 77.6066 23.1224 77.5859 22.8561 77.5445ZM70.4529 68.0873C69.2769 66.0549 70.0979 63.5247 72.2725 62.4255C74.4471 61.3263 77.1764 62.0937 78.3302 64.1261C79.5063 66.1586 78.6853 68.6887 76.5107 69.7879C75.845 70.1197 75.1128 70.2857 74.4028 70.2857C72.8051 70.265 71.274 69.4769 70.4529 68.0873ZM26.4287 65.4327C24.4982 63.9809 24.2097 61.3678 25.7629 59.5634C27.3162 57.7591 30.1343 57.4895 32.0426 58.9413C33.9731 60.3723 34.2616 63.0062 32.7305 64.8105C31.8429 65.8267 30.5559 66.3659 29.2467 66.3659C28.2482 66.3659 27.2497 66.0549 26.4287 65.4327ZM62.975 60.4138C60.9114 59.1487 60.3566 56.5562 61.7102 54.6275C63.086 52.6987 65.8596 52.1803 67.9011 53.4454C69.9647 54.7312 70.5196 57.3236 69.1438 59.2316C68.2784 60.4345 66.8582 61.0981 65.4158 61.0981C64.5948 61.1189 63.7517 60.8908 62.975 60.4138ZM35.704 56.3281C34.7498 54.1919 35.815 51.7447 38.0783 50.8529C40.3638 49.9612 42.9821 50.9566 43.9363 53.072C44.8904 55.2082 43.8253 57.6554 41.562 58.5472C40.985 58.7754 40.4081 58.8791 39.809 58.8791C38.1004 58.8791 36.4362 57.925 35.704 56.3281ZM52.5237 56.971C50.0606 56.7636 48.2632 54.7312 48.4851 52.4291C48.707 50.127 50.8816 48.4471 53.3447 48.6545C55.8077 48.8619 57.6051 50.8944 57.3832 53.1964C57.1613 55.3741 55.2308 56.9918 52.9453 56.9918C52.8121 56.9918 52.679 56.971 52.5237 56.971Z" fill="white"/>
    <path d="M92.3985 165.831C92.3985 163.529 94.3956 161.663 96.8587 161.663C99.3217 161.663 101.319 163.529 101.319 165.831C101.319 168.133 99.3217 170 96.8587 170C94.3956 170.02 92.3985 168.133 92.3985 165.831ZM4.39424 169.212C1.93119 169.191 -0.0436457 167.283 0.000733588 164.981C0.0451129 162.679 2.08653 160.833 4.54959 160.874C7.01264 160.916 8.98761 162.803 8.94323 165.105C8.89885 167.387 6.90176 169.212 4.48309 169.212C4.43871 169.212 4.41643 169.212 4.39424 169.212ZM90.8008 154.549C90.1573 152.33 91.5553 150.007 93.9296 149.406C96.3039 148.804 98.7669 150.111 99.4326 152.351V152.33C100.076 154.549 98.6782 156.872 96.3039 157.473C95.9045 157.577 95.505 157.618 95.1278 157.618C93.1307 157.618 91.3333 156.395 90.8008 154.549ZM5.21525 156.706C2.84096 156.063 1.4874 153.74 2.17528 151.521C2.86316 149.302 5.3484 148.037 7.72269 148.68C10.097 149.323 11.4505 151.645 10.7627 153.865C10.1857 155.69 8.41058 156.872 6.48008 156.872C6.03628 156.872 5.61466 156.83 5.21525 156.706ZM86.0301 144.117C84.7653 142.147 85.4532 139.575 87.5612 138.393C89.6692 137.211 92.4207 137.854 93.6856 139.824C94.9504 141.815 94.2625 144.366 92.1545 145.548C91.4444 145.963 90.6455 146.149 89.8689 146.149C88.3378 146.149 86.8511 145.424 86.0301 144.117ZM9.56447 144.843C7.45645 143.619 6.83511 141.048 8.1443 139.077C9.45349 137.128 12.2051 136.526 14.2909 137.75C16.3989 138.974 17.0202 141.545 15.7111 143.495C14.8678 144.76 13.4033 145.465 11.9166 145.465C11.1177 145.465 10.2967 145.278 9.56447 144.843ZM78.3968 135.303C76.5995 133.727 76.4884 131.093 78.1749 129.392C79.8613 127.712 82.6795 127.609 84.499 129.185C86.2964 130.761 86.4073 133.395 84.7208 135.075C83.8333 135.946 82.6351 136.402 81.4368 136.402C80.3495 136.423 79.2622 136.07 78.3968 135.303ZM17.1755 134.515C15.5335 132.793 15.6889 130.159 17.5084 128.604C19.3501 127.069 22.1682 127.214 23.8324 128.915C25.4966 130.636 25.3192 133.27 23.4996 134.826C22.6564 135.552 21.5691 135.904 20.5262 135.904C19.2835 135.904 18.0631 135.427 17.1755 134.515ZM68.5002 128.874C66.2812 127.857 65.3937 125.348 66.481 123.295C67.5683 121.221 70.2533 120.391 72.4722 121.407C74.6912 122.424 75.5787 124.933 74.4914 127.007C73.7148 128.48 72.1171 129.33 70.4751 129.33C69.8094 129.309 69.1215 129.185 68.5002 128.874ZM27.5825 126.572C26.5396 124.498 27.4716 121.988 29.7127 121.013C31.9317 120.039 34.6166 120.91 35.6595 123.004C36.7246 125.078 35.7704 127.588 33.5293 128.563C32.908 128.832 32.2645 128.977 31.621 128.977C29.9568 128.977 28.3369 128.086 27.5825 126.572ZM57.0504 125.452C54.6095 125.078 52.9452 122.942 53.3446 120.661C53.744 118.379 56.0296 116.824 58.4704 117.197C60.9113 117.571 62.5534 119.707 62.1762 121.988C61.8212 124.041 59.935 125.493 57.7826 125.493C57.5385 125.514 57.2945 125.493 57.0504 125.452ZM39.9865 121.802C39.6315 119.52 41.34 117.405 43.7809 117.073C46.2218 116.741 48.4852 118.338 48.8402 120.619C49.1952 122.901 47.4866 125.016 45.0457 125.348C44.8238 125.389 44.6242 125.389 44.4245 125.389C42.2055 125.389 40.2972 123.896 39.9865 121.802Z" fill="white"/>
    <path d="M120.468 92.0412C120.468 89.7391 122.465 87.8726 124.928 87.8726C127.391 87.8726 129.388 89.7391 129.388 92.0412C129.388 94.3433 127.391 96.2098 124.928 96.2098C122.465 96.2098 120.468 94.3433 120.468 92.0412ZM120.468 79.4939C120.468 77.1919 122.465 75.3253 124.928 75.3253C127.391 75.3253 129.388 77.1919 129.388 79.4939C129.388 81.796 127.391 83.6625 124.928 83.6625C122.465 83.6832 120.468 81.8167 120.468 79.4939ZM120.468 66.9673C120.468 64.6653 122.465 62.7987 124.928 62.7987C127.391 62.7987 129.388 64.6653 129.388 66.9673C129.388 69.2694 127.391 71.136 124.928 71.136C122.465 71.136 120.468 69.2694 120.468 66.9673ZM120.468 54.4408C120.468 52.1387 122.465 50.2722 124.928 50.2722C127.391 50.2722 129.388 52.1387 129.388 54.4408C129.388 56.7428 127.391 58.6094 124.928 58.6094C122.465 58.6094 120.468 56.7428 120.468 54.4408ZM120.468 41.9142C120.468 39.6121 122.465 37.7456 124.928 37.7456C127.391 37.7456 129.388 39.6121 129.388 41.9142C129.388 44.2162 127.391 46.0828 124.928 46.0828C122.465 46.0828 120.468 44.2162 120.468 41.9142Z" fill="white"/>
    <path d="M151.733 71.1366C149.27 71.1366 147.273 69.27 147.273 66.9679C147.273 64.6659 149.27 62.7993 151.733 62.7993C154.196 62.7993 156.193 64.6659 156.193 66.9679C156.215 69.27 154.218 71.1366 151.733 71.1366ZM138.331 71.1366C135.868 71.1366 133.87 69.27 133.87 66.9679C133.87 64.6659 135.868 62.7993 138.331 62.7993C140.794 62.7993 142.791 64.6659 142.791 66.9679C142.813 69.27 140.794 71.1366 138.331 71.1366ZM124.928 71.1366C122.465 71.1366 120.468 69.27 120.468 66.9679C120.468 64.6659 122.465 62.7993 124.928 62.7993C127.391 62.7993 129.388 64.6659 129.388 66.9679C129.388 69.27 127.391 71.1366 124.928 71.1366ZM111.525 71.1366C109.062 71.1366 107.065 69.27 107.065 66.9679C107.065 64.6659 109.062 62.7993 111.525 62.7993C113.989 62.7993 115.986 64.6659 115.986 66.9679C115.986 69.27 113.989 71.1366 111.525 71.1366ZM98.1008 71.1366C95.6377 71.1366 93.6406 69.27 93.6406 66.9679C93.6406 64.6659 95.6377 62.7993 98.1008 62.7993C100.564 62.7993 102.561 64.6659 102.561 66.9679C102.583 69.27 100.586 71.1366 98.1008 71.1366Z" fill="white"/>
    <path d="M176.252 129.87C176.252 127.568 178.25 125.701 180.713 125.701C183.176 125.701 185.173 127.568 185.173 129.87C185.173 132.172 183.176 134.039 180.713 134.039C178.25 134.059 176.252 132.193 176.252 129.87ZM176.252 117.344C176.252 115.041 178.25 113.175 180.713 113.175C183.176 113.175 185.173 115.041 185.173 117.344C185.173 119.646 183.176 121.512 180.713 121.512C178.25 121.533 176.252 119.646 176.252 117.344ZM176.252 104.817C176.252 102.515 178.25 100.648 180.713 100.648C183.176 100.648 185.173 102.515 185.173 104.817C185.173 107.119 183.176 108.986 180.713 108.986C178.25 108.986 176.252 107.119 176.252 104.817ZM176.252 92.2904C176.252 89.9883 178.25 88.1218 180.713 88.1218C183.176 88.1218 185.173 89.9883 185.173 92.2904C185.173 94.5924 183.176 96.459 180.713 96.459C178.25 96.459 176.252 94.5924 176.252 92.2904ZM176.252 79.7638C176.252 77.4617 178.25 75.5952 180.713 75.5952C183.176 75.5952 185.173 77.4617 185.173 79.7638C185.173 82.0658 183.176 83.9324 180.713 83.9324C178.25 83.9324 176.252 82.0658 176.252 79.7638Z" fill="white"/>
    <path d="M207.54 108.986C205.077 108.986 203.08 107.119 203.08 104.817C203.08 102.515 205.077 100.648 207.54 100.648C210.003 100.648 212 102.515 212 104.817C212 107.119 210.003 108.986 207.54 108.986ZM194.137 108.986C191.674 108.986 189.677 107.119 189.677 104.817C189.677 102.515 191.674 100.648 194.137 100.648C196.6 100.648 198.597 102.515 198.597 104.817C198.597 107.119 196.6 108.986 194.137 108.986ZM180.735 108.986C178.272 108.986 176.275 107.119 176.275 104.817C176.275 102.515 178.272 100.648 180.735 100.648C183.198 100.648 185.195 102.515 185.195 104.817C185.195 107.119 183.198 108.986 180.735 108.986ZM167.31 108.986C164.847 108.986 162.85 107.119 162.85 104.817C162.85 102.515 164.847 100.648 167.31 100.648C169.773 100.648 171.77 102.515 171.77 104.817C171.792 107.119 169.795 108.986 167.31 108.986ZM153.907 108.986C151.444 108.986 149.447 107.119 149.447 104.817C149.447 102.515 151.444 100.648 153.907 100.648C156.37 100.648 158.368 102.515 158.368 104.817C158.39 107.119 156.37 108.986 153.907 108.986Z" fill="white"/>
    <path d="M176.142 54.2956C176.142 51.9935 178.139 50.127 180.602 50.127C183.065 50.127 185.062 51.9935 185.062 54.2956C185.062 56.5977 183.065 58.4642 180.602 58.4642C178.139 58.4642 176.142 56.5977 176.142 54.2956ZM176.142 41.7691C176.142 39.467 178.139 37.6004 180.602 37.6004C183.065 37.6004 185.062 39.467 185.062 41.7691C185.062 44.0711 183.065 45.9376 180.602 45.9376C178.139 45.9376 176.142 44.0711 176.142 41.7691ZM176.142 29.2217C176.142 26.9197 178.139 25.0532 180.602 25.0532C183.065 25.0532 185.062 26.9197 185.062 29.2217C185.062 31.5238 183.065 33.3904 180.602 33.3904C178.139 33.4111 176.142 31.5445 176.142 29.2217ZM176.142 16.6952C176.142 14.3931 178.139 12.5266 180.602 12.5266C183.065 12.5266 185.062 14.3931 185.062 16.6952C185.062 18.9973 183.065 20.8638 180.602 20.8638C178.139 20.8638 176.142 18.9973 176.142 16.6952ZM176.142 4.16863C176.142 1.86656 178.139 0 180.602 0C183.065 0 185.062 1.86656 185.062 4.16863C185.062 6.4707 183.065 8.33726 180.602 8.33726C178.139 8.33726 176.142 6.4707 176.142 4.16863Z" fill="white"/>
    <path d="M207.429 33.411C204.966 33.411 202.969 31.5444 202.969 29.2424C202.969 26.9403 204.966 25.0737 207.429 25.0737C209.892 25.0737 211.89 26.9403 211.89 29.2424C211.89 31.5444 209.892 33.411 207.429 33.411ZM194.027 33.411C191.564 33.411 189.567 31.5444 189.567 29.2424C189.567 26.9403 191.564 25.0737 194.027 25.0737C196.49 25.0737 198.487 26.9403 198.487 29.2424C198.487 31.5444 196.49 33.411 194.027 33.411ZM180.602 33.411C178.139 33.411 176.142 31.5444 176.142 29.2424C176.142 26.9403 178.139 25.0737 180.602 25.0737C183.065 25.0737 185.062 26.9403 185.062 29.2424C185.085 31.5444 183.087 33.411 180.602 33.411ZM167.2 33.411C164.737 33.411 162.74 31.5444 162.74 29.2424C162.74 26.9403 164.737 25.0737 167.2 25.0737C169.663 25.0737 171.66 26.9403 171.66 29.2424C171.682 31.5444 169.663 33.411 167.2 33.411ZM153.797 33.411C151.334 33.411 149.337 31.5444 149.337 29.2424C149.337 26.9403 151.334 25.0737 153.797 25.0737C156.26 25.0737 158.257 26.9403 158.257 29.2424C158.257 31.5444 156.26 33.411 153.797 33.411Z" fill="white"/>
</svg>
