<svg width="160" height="160" viewBox="0 0 160 160" fill="none" xmlns="http://www.w3.org/2000/svg">
    <path d="M80.9488 75.2136C80.5154 73.2145 81.7614 71.2521 83.7295 70.8119C85.6977 70.3718 87.6298 71.6373 88.0631 73.6364C88.4965 75.6355 87.2506 77.5979 85.2824 78.038C85.0296 78.093 84.7588 78.1297 84.506 78.1297C82.8267 78.1297 81.328 76.9559 80.9488 75.2136ZM72.715 77.6345C70.7829 77.066 69.6634 75.0302 70.2231 73.0678C70.7648 71.1054 72.7691 69.9683 74.7192 70.5369C76.6513 71.1054 77.7708 73.1412 77.2111 75.1036C76.7597 76.7359 75.2971 77.7812 73.7081 77.7812C73.3831 77.7812 73.04 77.7262 72.715 77.6345ZM91.4036 71.949C90.0855 70.3901 90.2841 68.0792 91.8009 66.7404C93.3357 65.4199 95.6108 65.6033 96.929 67.1439C98.2291 68.7028 98.0485 71.0137 96.5317 72.3525C95.8456 72.9578 94.9969 73.2329 94.1663 73.2329C93.1551 73.2512 92.1259 72.811 91.4036 71.949ZM61.8268 71.2337C60.3822 69.8032 60.3461 67.474 61.7545 66.0068C63.1629 64.5396 65.4562 64.5029 66.8826 65.9334C68.3272 67.364 68.3633 69.6932 66.9549 71.1604C66.2507 71.9124 65.2936 72.2791 64.3547 72.2791C63.4519 72.2791 62.549 71.9307 61.8268 71.2337ZM99.1138 64.0627C97.2359 63.3291 96.3151 61.1833 97.0373 59.2759C97.7596 57.3685 99.8722 56.4332 101.75 57.1668C103.628 57.9004 104.549 60.0462 103.809 61.9536C103.249 63.4208 101.877 64.3011 100.432 64.3011C99.9986 64.3011 99.5472 64.2278 99.1138 64.0627ZM55.218 60.3763C54.6221 58.4323 55.6694 56.3415 57.5834 55.7362C59.4974 55.131 61.5378 56.1947 62.1518 58.1388C62.7657 60.0829 61.7004 62.1553 59.7864 62.7789C59.4072 62.9073 59.046 62.9623 58.6849 62.9623C57.1501 62.9623 55.7055 61.9536 55.218 60.3763ZM98.3013 52.4533C98.3013 50.4175 99.9264 48.7669 101.931 48.7669C103.935 48.7669 105.56 50.4175 105.56 52.4533C105.56 54.4891 103.917 56.1397 101.931 56.1397C99.9264 56.1581 98.3013 54.4891 98.3013 52.4533ZM57.3668 51.9398C55.3986 51.573 54.0985 49.6472 54.4596 47.6298C54.8388 45.6307 56.7348 44.2919 58.703 44.677C60.6711 45.0438 61.9712 46.9696 61.6101 48.987C61.6101 48.987 61.6101 48.987 61.6101 49.0053C61.2851 50.7843 59.7502 52.0132 58.0349 52.0132C57.8182 52.0132 57.5834 51.9948 57.3668 51.9398ZM96.0984 43.5766C95.1594 41.7793 95.8095 39.5417 97.579 38.5697C99.3486 37.5977 101.551 38.2763 102.508 40.0736C103.465 41.871 102.797 44.1085 101.028 45.0805C100.486 45.374 99.8903 45.5207 99.3125 45.5207C98.0124 45.5207 96.7484 44.8054 96.0984 43.5766ZM60.2739 41.2291C58.703 39.9452 58.4682 37.6344 59.7322 36.0388C60.9781 34.4432 63.2713 34.2047 64.8422 35.4702C66.4132 36.754 66.6479 39.0832 65.3839 40.6605C64.6617 41.5592 63.6144 42.036 62.549 42.036C61.7365 42.0544 60.942 41.7793 60.2739 41.2291ZM90.0133 36.7907C88.334 35.6719 87.8826 33.3794 89.0021 31.6738C90.1036 29.9681 92.3787 29.5096 94.0399 30.6284C95.7192 31.7655 96.1706 34.058 95.0511 35.7453C94.3469 36.8091 93.1912 37.3959 92.0176 37.3959C91.3314 37.4143 90.6272 37.2125 90.0133 36.7907ZM67.8216 33.1776C67.0271 31.2886 67.8938 29.1245 69.7537 28.3358C71.5954 27.5472 73.7442 28.4276 74.5206 30.2983C75.2971 32.1873 74.4303 34.3514 72.5885 35.1401C72.1191 35.3418 71.6496 35.4335 71.1621 35.4335C69.7537 35.4335 68.4174 34.5898 67.8216 33.1776ZM81.5086 33.7462C79.5043 33.5628 78.0417 31.7655 78.2222 29.7297C78.4028 27.6939 80.1724 26.2084 82.1767 26.3918C84.181 26.5752 85.6435 28.3725 85.463 30.4083C85.2824 32.334 83.6934 33.7645 81.8516 33.7645C81.7433 33.7645 81.6169 33.7646 81.5086 33.7462Z" fill="white"/>
    <path d="M113.956 130.014C113.956 127.978 115.581 126.327 117.586 126.327C119.59 126.327 121.215 127.978 121.215 130.014C121.215 132.049 119.59 133.7 117.586 133.7C115.581 133.718 113.956 132.049 113.956 130.014ZM42.3434 133.003C40.3391 132.985 38.7321 131.297 38.7682 129.262C38.8043 127.226 40.4475 125.594 42.4518 125.63C44.456 125.667 46.0631 127.336 46.027 129.372C45.9909 131.389 44.3658 133.003 42.3976 133.003C42.3795 133.003 42.3614 133.003 42.3434 133.003ZM112.656 120.036C112.114 118.074 113.27 116.02 115.202 115.488C117.134 114.956 119.139 116.112 119.662 118.092V118.074C120.204 120.036 119.048 122.091 117.116 122.622C116.791 122.714 116.466 122.751 116.159 122.751C114.552 122.769 113.09 121.687 112.656 120.036ZM42.9934 121.944C41.0794 121.375 39.9599 119.321 40.5377 117.359C41.0975 115.396 43.1198 114.278 45.0519 114.846C46.984 115.415 48.0854 117.469 47.5257 119.431C47.0743 121.045 45.6117 122.091 44.0407 122.091C43.6796 122.091 43.3365 122.054 42.9934 121.944ZM108.774 110.811C107.745 109.069 108.286 106.795 110.002 105.749C111.735 104.704 113.974 105.272 114.985 107.015C116.015 108.775 115.473 111.031 113.758 112.077C113.162 112.444 112.53 112.609 111.88 112.609C110.652 112.609 109.442 111.967 108.774 110.811ZM46.5326 111.453C44.8352 110.371 44.3116 108.097 45.3769 106.355C46.4423 104.631 48.6813 104.099 50.3786 105.181C52.076 106.263 52.5996 108.537 51.5343 110.261C50.8481 111.38 49.6564 112.003 48.4466 112.003C47.7965 112.003 47.1284 111.838 46.5326 111.453ZM102.562 103.017C101.082 101.623 101.01 99.2936 102.382 97.7897C103.754 96.3041 106.047 96.2124 107.51 97.6062C108.991 99.0001 109.063 101.329 107.691 102.815C106.968 103.585 105.993 103.989 105.018 103.989C104.151 104.007 103.267 103.695 102.562 103.017ZM52.7441 102.32C51.3898 100.797 51.5343 98.4682 53.0149 97.0927C54.5136 95.7355 56.8068 95.8639 58.143 97.3678C59.4973 98.8901 59.3528 101.219 57.8722 102.595C57.1679 103.237 56.3012 103.549 55.4345 103.549C54.4594 103.549 53.4663 103.145 52.7441 102.32ZM94.4911 97.3312C92.7035 96.4325 91.9632 94.2133 92.848 92.3976C93.7327 90.5636 95.9176 89.83 97.7052 90.7286C99.5109 91.6273 100.251 93.8465 99.3484 95.6805C98.7164 96.9827 97.4344 97.7346 96.0982 97.7346C95.5745 97.7163 95.0148 97.6063 94.4911 97.3312ZM61.1946 95.3137C60.3459 93.4797 61.1224 91.2605 62.928 90.3985C64.7518 89.5182 66.9186 90.3068 67.7672 92.1592C68.6159 94.0115 67.8575 96.2124 66.0338 97.0744C65.5282 97.3128 65.0046 97.4229 64.4809 97.4229C63.1447 97.4229 61.8266 96.6526 61.1946 95.3137ZM85.1919 94.305C83.2057 93.9749 81.8695 92.0858 82.1765 90.0684C82.5015 88.051 84.3613 86.6754 86.3476 87.0056C88.3338 87.3357 89.6881 89.2247 89.363 91.2422C89.0741 93.0579 87.5212 94.3417 85.7697 94.3417C85.5711 94.36 85.3906 94.3417 85.1919 94.305ZM71.3063 91.0771C71.0174 89.0597 72.4078 87.189 74.394 86.8955C76.3803 86.6021 78.2221 88.0143 78.511 90.0317C78.7999 92.0491 77.4095 93.9199 75.4233 94.2133C75.2427 94.25 75.0802 94.25 74.8996 94.25C73.112 94.25 71.5591 92.9295 71.3063 91.0771Z" fill="white"/>
    <path d="M0 48.0149C0 45.9791 1.62512 44.3285 3.62941 44.3285C5.63371 44.3285 7.2588 45.9791 7.2588 48.0149C7.2588 50.0506 5.63371 51.7012 3.62941 51.7012C1.62512 51.7012 0 50.0506 0 48.0149ZM0 36.919C0 34.8832 1.62512 33.2326 3.62941 33.2326C5.63371 33.2326 7.2588 34.8832 7.2588 36.919C7.2588 38.9547 5.63371 40.6054 3.62941 40.6054C1.62512 40.6237 0 38.9731 0 36.919ZM0 25.8414C0 23.8057 1.62512 22.1551 3.62941 22.1551C5.63371 22.1551 7.2588 23.8057 7.2588 25.8414C7.2588 27.8772 5.63371 29.5278 3.62941 29.5278C1.62512 29.5278 0 27.8772 0 25.8414ZM0 14.7639C0 12.7282 1.62512 11.0775 3.62941 11.0775C5.63371 11.0775 7.2588 12.7282 7.2588 14.7639C7.2588 16.7997 5.63371 18.4503 3.62941 18.4503C1.62512 18.4503 0 16.7997 0 14.7639ZM0 3.68639C0 1.65062 1.62512 0 3.62941 0C5.63371 0 7.2588 1.65062 7.2588 3.68639C7.2588 5.72216 5.63371 7.3728 3.62941 7.3728C1.62512 7.3728 0 5.72216 0 3.68639ZM42.3971 3.68639C42.3971 1.65062 44.0222 0 46.0265 0C48.0308 0 49.6559 1.65062 49.6559 3.68639C49.6559 5.72216 48.0308 7.3728 46.0265 7.3728C44.0403 7.3728 42.3971 5.72216 42.3971 3.68639ZM31.4909 3.68639C31.4909 1.65062 33.116 0 35.1203 0C37.1246 0 38.7497 1.65062 38.7497 3.68639C38.7497 5.72216 37.1246 7.3728 35.1203 7.3728C33.116 7.3728 31.4909 5.72216 31.4909 3.68639ZM20.5846 3.68639C20.5846 1.65062 22.2097 0 24.214 0C26.2183 0 27.8434 1.65062 27.8434 3.68639C27.8434 5.72216 26.2183 7.3728 24.214 7.3728C22.2097 7.3728 20.5846 5.72216 20.5846 3.68639ZM9.67839 3.68639C9.67839 1.65062 11.3035 0 13.3078 0C15.3121 0 16.9372 1.65062 16.9372 3.68639C16.9372 5.72216 15.3121 7.3728 13.3078 7.3728C11.3035 7.3728 9.67839 5.72216 9.67839 3.68639Z" fill="white"/>
    <path d="M42.3971 156.314C42.3971 154.278 44.0222 152.627 46.0265 152.627C48.0308 152.627 49.6559 154.296 49.6559 156.314C49.6559 158.349 48.0308 160 46.0265 160C44.0403 160 42.3971 158.349 42.3971 156.314ZM31.4909 156.314C31.4909 154.278 33.116 152.627 35.1203 152.627C37.1246 152.627 38.7497 154.296 38.7497 156.314C38.7497 158.349 37.1246 160 35.1203 160C33.116 160 31.4909 158.349 31.4909 156.314ZM20.5846 156.314C20.5846 154.278 22.2278 152.627 24.214 152.627C26.2183 152.627 27.8434 154.296 27.8434 156.314C27.8434 158.349 26.2183 160 24.214 160C22.2278 160 20.5846 158.349 20.5846 156.314ZM9.67839 156.314C9.67839 154.278 11.3035 152.627 13.3078 152.627C15.3121 152.627 16.9372 154.296 16.9372 156.314C16.9372 158.349 15.3121 160 13.3078 160C11.3035 160 9.67839 158.349 9.67839 156.314ZM0 156.314C0 154.278 1.62512 152.609 3.62941 152.609C5.63371 152.609 7.2588 154.278 7.2588 156.314C7.2588 158.349 5.63371 160 3.62941 160C1.62512 160 0 158.349 0 156.314ZM0 145.236C0 143.2 1.62512 141.55 3.62941 141.55C5.63371 141.55 7.2588 143.2 7.2588 145.236C7.2588 147.272 5.63371 148.941 3.62941 148.941C1.62512 148.923 0 147.272 0 145.236ZM0 134.159C0 132.105 1.62512 130.454 3.62941 130.454C5.63371 130.454 7.2588 132.105 7.2588 134.159C7.2588 136.194 5.63371 137.845 3.62941 137.845C1.62512 137.845 0 136.194 0 134.159ZM0 123.063C0 121.027 1.62512 119.376 3.62941 119.376C5.63371 119.376 7.2588 121.045 7.2588 123.063C7.2588 125.099 5.63371 126.749 3.62941 126.749C1.62512 126.767 0 125.099 0 123.063ZM0 111.985C0 109.949 1.62512 108.299 3.62941 108.299C5.63371 108.299 7.2588 109.949 7.2588 111.985C7.2588 114.021 5.63371 115.672 3.62941 115.672C1.62512 115.672 0 114.021 0 111.985Z" fill="white"/>
    <path d="M152.723 48.0149C152.723 45.9791 154.348 44.3285 156.353 44.3285C158.357 44.3285 159.982 45.9791 159.982 48.0149C159.982 50.0506 158.357 51.7012 156.353 51.7012C154.348 51.7012 152.723 50.0506 152.723 48.0149ZM152.723 36.919C152.723 34.8832 154.348 33.2326 156.353 33.2326C158.357 33.2326 159.982 34.8832 159.982 36.919C159.982 38.9547 158.357 40.6054 156.353 40.6054C154.348 40.6237 152.723 38.9731 152.723 36.919ZM152.723 25.8414C152.723 23.8057 154.348 22.1551 156.353 22.1551C158.357 22.1551 159.982 23.8057 159.982 25.8414C159.982 27.8772 158.357 29.5278 156.353 29.5278C154.348 29.5278 152.723 27.8772 152.723 25.8414ZM152.723 14.7639C152.723 12.7282 154.348 11.0775 156.353 11.0775C158.357 11.0775 159.982 12.7282 159.982 14.7639C159.982 16.7997 158.357 18.4503 156.353 18.4503C154.348 18.4503 152.723 16.7997 152.723 14.7639ZM152.723 3.68639C152.723 1.65062 154.348 0 156.353 0C158.357 0 159.982 1.65062 159.982 3.68639C159.982 5.72216 158.357 7.3728 156.353 7.3728C154.348 7.3728 152.723 5.72216 152.723 3.68639ZM143.027 3.68639C143.027 1.65062 144.67 0 146.656 0C148.661 0 150.286 1.65062 150.286 3.68639C150.286 5.72216 148.661 7.3728 146.656 7.3728C144.67 7.3728 143.027 5.72216 143.027 3.68639ZM132.121 3.68639C132.121 1.65062 133.746 0 135.75 0C137.754 0 139.379 1.65062 139.379 3.68639C139.379 5.72216 137.754 7.3728 135.75 7.3728C133.746 7.3728 132.121 5.72216 132.121 3.68639ZM121.214 3.68639C121.214 1.65062 122.839 0 124.844 0C126.848 0 128.473 1.65062 128.473 3.68639C128.473 5.72216 126.848 7.3728 124.844 7.3728C122.839 7.3728 121.214 5.72216 121.214 3.68639ZM110.308 3.68639C110.308 1.65062 111.933 0 113.937 0C115.942 0 117.567 1.65062 117.567 3.68639C117.567 5.72216 115.942 7.3728 113.937 7.3728C111.933 7.3728 110.308 5.72216 110.308 3.68639Z" fill="white"/>
    <path d="M143.027 156.314C143.027 154.278 144.652 152.627 146.656 152.627C148.661 152.627 150.286 154.296 150.286 156.314C150.286 158.349 148.661 160 146.656 160C144.67 160 143.027 158.349 143.027 156.314ZM132.121 156.314C132.121 154.278 133.764 152.627 135.75 152.627C137.754 152.627 139.379 154.296 139.379 156.314C139.379 158.349 137.754 160 135.75 160C133.764 160 132.121 158.349 132.121 156.314ZM121.214 156.314C121.214 154.278 122.839 152.627 124.844 152.627C126.848 152.627 128.473 154.296 128.473 156.314C128.473 158.349 126.848 160 124.844 160C122.839 160 121.214 158.349 121.214 156.314ZM110.308 156.314C110.308 154.278 111.951 152.627 113.956 152.627C115.96 152.627 117.585 154.296 117.585 156.314C117.585 158.349 115.96 160 113.956 160C111.933 160 110.308 158.349 110.308 156.314ZM152.723 156.314C152.723 154.278 154.348 152.609 156.353 152.609C158.375 152.609 160 154.278 160 156.314C160 158.349 158.375 160 156.353 160C154.348 160 152.723 158.349 152.723 156.314ZM152.723 145.236C152.723 143.2 154.348 141.55 156.353 141.55C158.375 141.55 160 143.2 160 145.236C160 147.272 158.375 148.941 156.353 148.941C154.348 148.923 152.723 147.272 152.723 145.236ZM152.723 134.159C152.723 132.105 154.348 130.454 156.353 130.454C158.375 130.454 160 132.105 160 134.159C160 136.194 158.375 137.845 156.353 137.845C154.348 137.845 152.723 136.194 152.723 134.159ZM152.723 123.063C152.723 121.027 154.348 119.376 156.353 119.376C158.375 119.376 160 121.045 160 123.063C160 125.099 158.375 126.749 156.353 126.749C154.348 126.767 152.723 125.099 152.723 123.063ZM152.723 111.985C152.723 109.949 154.348 108.299 156.353 108.299C158.375 108.299 160 109.949 160 111.985C160 114.021 158.375 115.672 156.353 115.672C154.348 115.672 152.723 114.021 152.723 111.985Z" fill="white"/>
</svg>
