<svg width="164" height="170" viewBox="0 0 164 170" fill="none" xmlns="http://www.w3.org/2000/svg">
    <path d="M82.6461 133.976C82.4614 131.561 84.179 129.456 86.4691 129.243C88.7776 129.05 90.8092 130.846 90.9939 133.242C91.197 135.637 89.461 137.762 87.1709 137.955C87.0416 137.974 86.9308 137.974 86.82 137.974C84.6777 137.993 82.8308 136.274 82.6461 133.976ZM74.2984 137.935C72.0083 137.665 70.3461 135.502 70.6232 133.087C70.8817 130.692 72.9502 128.954 75.2588 129.243C77.5488 129.514 79.1925 131.677 78.9339 134.092C78.6939 136.332 76.8839 137.974 74.7785 137.974C74.6123 137.955 74.4462 137.955 74.2984 137.935ZM94.6691 132.624C94.115 130.286 95.4632 127.91 97.7163 127.312H97.6978C99.9325 126.732 102.223 128.142 102.777 130.499C103.349 132.836 101.983 135.231 99.7294 135.811C99.3969 135.907 99.0461 135.946 98.7136 135.946C96.8668 135.946 95.1677 134.613 94.6691 132.624ZM61.2966 134.207C59.2282 133.145 58.3787 130.518 59.4129 128.335C60.4286 126.172 62.9403 125.283 65.0272 126.365C67.0957 127.428 67.9453 130.055 66.911 132.237C66.1908 133.782 64.6948 134.671 63.162 134.671C62.534 134.671 61.8876 134.516 61.2966 134.207ZM117.2 123.661C115.815 121.729 116.203 118.986 118.05 117.538C119.915 116.089 122.519 116.495 123.905 118.426C125.29 120.358 124.902 123.101 123.055 124.549C122.298 125.129 121.411 125.419 120.562 125.419C119.287 125.419 118.013 124.801 117.2 123.661ZM98.1596 124.163C96.4789 122.502 96.3866 119.74 97.9749 117.982C99.5447 116.224 102.204 116.128 103.885 117.789C105.565 119.45 105.658 122.212 104.069 123.97C103.238 124.878 102.13 125.361 101.022 125.361C99.988 125.341 98.9722 124.955 98.1596 124.163ZM107.874 132.913C106.193 131.252 106.101 128.49 107.689 126.732C109.259 124.974 111.919 124.878 113.599 126.539C115.28 128.2 115.372 130.962 113.784 132.72C112.953 133.628 111.845 134.111 110.737 134.111C109.721 134.092 108.687 133.705 107.874 132.913ZM107.874 144.87C106.193 143.209 106.101 140.447 107.689 138.689C109.259 136.931 111.919 136.834 113.599 138.496C115.28 140.157 115.372 142.919 113.784 144.677C112.953 145.585 111.845 146.067 110.737 146.067C109.721 146.067 108.687 145.662 107.874 144.87ZM107.874 156.826C106.193 155.165 106.101 152.403 107.689 150.645C109.259 148.888 111.919 148.791 113.599 150.452C115.28 152.113 115.372 154.876 113.784 156.633C112.953 157.541 111.845 158.024 110.737 158.024C109.721 158.024 108.687 157.618 107.874 156.826ZM107.874 168.802C106.193 167.141 106.101 164.379 107.689 162.621C109.259 160.864 111.919 160.767 113.599 162.428C115.28 164.089 115.372 166.851 113.784 168.609C112.953 169.517 111.845 170 110.737 170C109.721 169.981 108.687 169.575 107.874 168.802ZM56.2732 124.685C54.0755 123.951 52.8566 121.478 53.5769 119.18C54.2787 116.881 56.6426 115.625 58.8404 116.379C61.0381 117.113 62.257 119.585 61.5367 121.884C60.9642 123.738 59.3205 124.916 57.566 124.916C57.1228 124.897 56.698 124.82 56.2732 124.685ZM89.3317 118.542C87.1709 117.712 86.0443 115.201 86.8569 112.921C87.651 110.642 90.0519 109.483 92.2312 110.314C94.392 111.144 95.5186 113.655 94.7245 115.935C94.0965 117.712 92.4898 118.813 90.7907 118.813C90.292 118.813 89.8118 118.735 89.3317 118.542ZM62.8665 114.505C62.2939 112.168 63.6606 109.773 65.9137 109.193C68.1484 108.614 70.42 110.024 70.9926 112.38C71.5466 114.718 70.1984 117.113 67.9453 117.692C67.5944 117.789 67.2619 117.828 66.9295 117.828C65.0457 117.808 63.3466 116.475 62.8665 114.505ZM126.638 115.722C124.809 114.235 124.477 111.492 125.881 109.58C127.303 107.667 129.925 107.32 131.754 108.788C133.582 110.275 133.914 113.018 132.511 114.93C131.68 116.031 130.442 116.63 129.205 116.63C128.3 116.63 127.395 116.34 126.638 115.722ZM78.8601 116.572C76.5516 116.514 74.7047 114.524 74.7416 112.11C74.797 109.695 76.6993 107.764 79.0078 107.822C81.3164 107.86 83.1632 109.869 83.1078 112.284C83.0709 114.679 81.2056 116.591 78.9155 116.591C78.897 116.572 78.8786 116.572 78.8601 116.572ZM133.582 105.33C131.384 104.596 130.147 102.143 130.849 99.8443C131.55 97.5457 133.896 96.2515 136.112 96.9855C138.31 97.7196 139.529 100.173 138.845 102.471C138.291 104.345 136.648 105.543 134.856 105.543C134.413 105.543 134.007 105.465 133.582 105.33ZM131.92 89.1239C131.68 86.7094 133.379 84.5654 135.669 84.3336C137.959 84.0825 140.027 85.8596 140.249 88.2547C140.489 90.6692 138.79 92.8133 136.5 93.0451C136.352 93.0644 136.223 93.0644 136.075 93.0644C133.97 93.0644 132.141 91.3839 131.92 89.1239ZM80.0236 93.0451C77.7151 93.0257 75.8497 91.0749 75.8497 88.6604C75.8497 86.2459 77.7335 84.2756 80.0421 84.2949C82.3506 84.2949 84.2344 86.2652 84.2159 88.6797C84.2159 91.0942 82.3506 93.0451 80.0236 93.0451ZM87.9465 88.5445C87.7618 86.1493 89.4979 84.0439 91.788 83.8507C94.0965 83.6575 96.1096 85.4732 96.2758 87.8877C96.4605 90.3022 94.7245 92.4077 92.4159 92.5815C92.3051 92.5815 92.1943 92.5815 92.1019 92.5815C89.9596 92.6008 88.1127 90.8431 87.9465 88.5445ZM67.5759 92.4463C65.2858 92.2145 63.5868 90.0897 63.8084 87.6752C64.03 85.2607 66.0615 83.503 68.3701 83.7348C70.6601 83.9666 72.3592 86.0914 72.1376 88.5059C71.9344 90.7658 70.1061 92.4656 67.9638 92.4656C67.8345 92.4656 67.7052 92.4656 67.5759 92.4463ZM99.988 87.4434C99.6186 85.0676 101.17 82.8076 103.46 82.4406C105.732 82.0543 107.892 83.6962 108.243 86.072C108.613 88.4672 107.043 90.7078 104.771 91.0749C104.55 91.1135 104.328 91.1328 104.106 91.1328C102.093 91.1328 100.32 89.6068 99.988 87.4434ZM55.1097 90.3988C52.8566 89.8579 51.453 87.5207 51.9516 85.1642C52.4687 82.8076 54.7034 81.3203 56.9566 81.8612C59.2097 82.3827 60.6133 84.7392 60.1147 87.0958C59.6715 89.1239 57.9538 90.4954 56.0331 90.4954C55.7376 90.5147 55.4237 90.4954 55.1097 90.3988ZM111.919 85.2994C111.346 82.9622 112.694 80.567 114.947 79.9682C117.182 79.3694 119.472 80.7988 120.026 83.136C120.599 85.4732 119.25 87.8684 116.997 88.4672C116.646 88.5638 116.296 88.6024 115.963 88.6024C114.098 88.6024 112.399 87.2696 111.919 85.2994ZM123.461 79.8329C122.889 77.4957 124.237 75.1006 126.49 74.5018C128.725 73.903 131.015 75.3323 131.569 77.6696C132.141 80.0068 130.793 82.402 128.54 83.0008C128.189 83.0974 127.838 83.136 127.506 83.136C125.659 83.136 123.96 81.8225 123.461 79.8329ZM134.967 76.0856C134.395 73.7484 135.743 71.3533 137.996 70.7545C140.231 70.1557 142.521 71.585 143.075 73.9222C143.647 76.2595 142.299 78.6547 140.046 79.2535C139.695 79.3501 139.344 79.3887 139.012 79.3887C137.165 79.3887 135.447 78.0559 134.967 76.0856ZM42.7913 86.13C40.7044 85.0869 39.8179 82.4793 40.7967 80.2966C41.794 78.1139 44.2873 77.1867 46.3742 78.2104C48.4611 79.2535 49.3476 81.8612 48.3688 84.0439C47.6485 85.6278 46.1526 86.5549 44.5828 86.5549C43.9733 86.5549 43.3638 86.4197 42.7913 86.13ZM31.7103 76.6458C30.5098 74.579 31.1377 71.8941 33.1323 70.6386C35.1084 69.4023 37.6756 70.0591 38.876 72.1259C40.058 74.1927 39.43 76.8969 37.4539 78.1331C36.7891 78.5581 36.0319 78.7706 35.2932 78.7706C33.8711 78.7513 32.486 78.0172 31.7103 76.6458ZM145.328 71.0249C143.832 69.1705 144.054 66.4083 145.826 64.8631C147.599 63.2985 150.24 63.5303 151.718 65.3846C153.214 67.239 152.992 70.0011 151.219 71.5464C150.444 72.2418 149.465 72.5702 148.523 72.5702C147.341 72.5895 146.159 72.0486 145.328 71.0249ZM122.279 69.9625C120.599 68.3013 120.506 65.5198 122.095 63.7814C123.683 62.0236 126.324 61.927 128.005 63.5882C129.685 65.2494 129.759 68.0116 128.171 69.7693C127.358 70.6772 126.25 71.1407 125.123 71.1407C124.126 71.1601 123.092 70.7545 122.279 69.9625ZM33.4647 66.1379C31.4886 64.8824 30.8792 62.1975 32.0612 60.1113C33.2616 58.0445 35.8287 57.4071 37.8048 58.6433C39.7809 59.8988 40.4089 62.5838 39.2084 64.6506C38.4143 66.0027 37.0476 66.756 35.6256 66.756C34.8868 66.7754 34.1296 66.5629 33.4647 66.1379ZM113.341 63.1632C111.328 61.985 110.607 59.3 111.752 57.1946C112.879 55.0892 115.446 54.3552 117.459 55.5335C119.472 56.7117 120.174 59.3966 119.047 61.5021C118.272 62.9315 116.868 63.7234 115.409 63.7234C114.689 63.7234 113.987 63.5496 113.341 63.1632ZM154.285 62.4872C152.309 61.251 151.663 58.5661 152.826 56.4993C154.008 54.4131 156.575 53.7371 158.551 54.9733C160.546 56.2095 161.192 58.8945 160.01 60.9806C159.235 62.352 157.831 63.1246 156.409 63.1246C155.707 63.1053 154.968 62.9122 154.285 62.4872ZM41.1476 56.4606C40.2242 54.2586 41.1846 51.6702 43.2899 50.6851C45.4138 49.7193 47.8701 50.7238 48.812 52.9258C49.7354 55.1471 48.7936 57.7161 46.6697 58.7012C46.1156 58.9524 45.5616 59.0683 44.9891 59.0683C43.3638 59.0683 41.8309 58.1024 41.1476 56.4606ZM103.017 58.3729C100.837 57.6003 99.6555 55.1085 100.413 52.8099C101.151 50.5306 103.534 49.2944 105.732 50.067C107.911 50.8396 109.093 53.3314 108.336 55.63C107.745 57.4457 106.119 58.6047 104.365 58.6047C103.922 58.6047 103.46 58.5274 103.017 58.3729ZM52.4503 51.9793C52.044 49.6035 53.5584 47.3242 55.83 46.8992C58.1016 46.4743 60.2809 48.0581 60.6872 50.434C61.0935 52.8099 59.5791 55.0892 57.3075 55.5141C57.0489 55.5721 56.8088 55.5721 56.5687 55.5721C54.5741 55.5914 52.8196 54.1041 52.4503 51.9793ZM91.9357 55.4176C89.6641 54.9926 88.1497 52.7327 88.556 50.3568C88.9623 47.9809 91.1231 46.397 93.3947 46.8026C95.6663 47.2275 97.1807 49.5068 96.7929 51.8827C96.4235 54.0075 94.669 55.4948 92.6744 55.4948C92.4343 55.4755 92.1758 55.4562 91.9357 55.4176ZM64.3993 50.0477C64.27 47.6332 66.043 45.5664 68.3516 45.4505C70.6601 45.3153 72.6363 47.1696 72.7471 49.5841C72.8764 51.9986 71.1034 54.0461 68.7948 54.1813C68.7209 54.1813 68.6471 54.1813 68.5732 54.1813C66.357 54.2006 64.5101 52.385 64.3993 50.0477ZM80.4669 54.1041C78.1583 53.9882 76.3669 51.9407 76.4777 49.5262C76.5885 47.1117 78.5277 45.238 80.8547 45.3539C83.1632 45.4698 84.9547 47.5173 84.8439 49.9318C84.733 52.2884 82.8862 54.1234 80.67 54.1234C80.5961 54.104 80.5407 54.1041 80.4669 54.1041ZM159.77 51.1487C157.462 51.1294 155.596 49.1399 155.633 46.7254C155.652 44.3109 157.554 42.3599 159.862 42.3986C162.171 42.4179 164.036 44.4074 163.999 46.8219C163.981 49.2171 162.116 51.1487 159.826 51.1487C159.807 51.1487 159.789 51.1487 159.77 51.1487ZM153.029 36.9322C151.884 34.8267 152.567 32.1611 154.581 30.9635C156.594 29.7659 159.142 30.4806 160.287 32.5861C161.432 34.6722 160.749 37.3571 158.736 38.5547C158.071 38.9603 157.351 39.1342 156.649 39.1342C155.208 39.1149 153.805 38.3422 153.029 36.9322ZM2.06846 38.3229C0.0738702 37.106 -0.590988 34.4404 0.572522 32.3349C1.73603 30.2488 4.30315 29.5341 6.29774 30.751C8.29233 31.9679 8.97567 34.6529 7.81216 36.739C7.03649 38.1297 5.6329 38.9024 4.19237 38.9024C3.4721 38.9217 2.75179 38.7285 2.06846 38.3229ZM146.122 28.4911C144.367 26.9072 144.164 24.145 145.679 22.3293C147.193 20.4943 149.834 20.2818 151.589 21.8657C153.343 23.4496 153.528 26.2118 152.032 28.0468C151.201 29.0512 150.037 29.5728 148.855 29.5728C147.895 29.5535 146.916 29.2058 146.122 28.4911ZM8.86487 27.873C7.35046 26.0379 7.57208 23.2757 9.32658 21.6918C11.0811 20.1272 13.722 20.359 15.218 22.194C16.7324 24.0291 16.5107 26.7913 14.7562 28.3559C13.9621 29.0705 13.0018 29.3989 12.0414 29.3989C10.8595 29.3989 9.69595 28.8774 8.86487 27.873ZM136.869 21.885C134.838 20.726 134.099 18.0604 135.226 15.9357C136.352 13.8109 138.882 13.0383 140.914 14.2165C142.927 15.3948 143.666 18.0411 142.558 20.1659C141.8 21.6146 140.36 22.4258 138.901 22.4258C138.199 22.4258 137.516 22.252 136.869 21.885ZM18.3576 20.05C17.2495 17.9252 17.9882 15.2596 20.0197 14.1006C20.0197 14.1006 20.0197 14.1007 20.0197 14.0814C22.0513 12.9224 24.5999 13.695 25.708 15.8198C26.8162 17.9446 26.0774 20.5908 24.0459 21.7691C23.3995 22.1361 22.7161 22.3099 22.0328 22.3099C20.5553 22.3099 19.1148 21.4987 18.3576 20.05ZM126.435 16.8628C124.274 16.0129 123.184 13.4826 124.015 11.2226C124.828 8.96261 127.247 7.82297 129.408 8.69219C131.569 9.5421 132.659 12.0725 131.827 14.3518C131.2 16.0902 129.611 17.1719 127.912 17.1719C127.414 17.1719 126.915 17.056 126.435 16.8628ZM29.1062 14.2359C28.2936 11.9759 29.3833 9.44548 31.5441 8.59558C33.7049 7.74567 36.1242 8.88533 36.9368 11.1453C37.7494 13.4053 36.6598 15.9357 34.499 16.7856C34.0188 16.9788 33.5202 17.0753 33.0215 17.0753C31.3224 17.0753 29.7342 16.0129 29.1062 14.2359ZM115.335 13.2121C113.101 12.6133 111.752 10.2181 112.343 7.8809C112.916 5.54366 115.206 4.13359 117.441 4.73238C119.675 5.33118 121.023 7.72638 120.451 10.0636C119.952 12.0338 118.272 13.3474 116.388 13.3474C116.037 13.3667 115.686 13.3087 115.335 13.2121ZM40.5012 10.0057C39.9287 7.66843 41.2769 5.27325 43.5116 4.69377C45.7462 4.09497 48.0363 5.50505 48.6089 7.84228C49.1814 10.1795 47.8332 12.5747 45.5985 13.1735C45.2476 13.2701 44.8967 13.328 44.5643 13.328C42.6805 13.3087 40.9814 11.9952 40.5012 10.0057ZM103.885 10.7203C101.595 10.334 100.062 8.09336 100.413 5.69818C100.782 3.32231 102.924 1.69981 105.215 2.08613C107.505 2.47245 109.056 4.71309 108.687 7.10827C108.354 9.25234 106.581 10.7783 104.55 10.7783C104.347 10.7783 104.106 10.759 103.885 10.7203ZM52.2656 7.05032C51.8963 4.67446 53.4476 2.41449 55.7376 2.04749C58.0092 1.66117 60.1701 3.28372 60.521 5.6789C60.8904 8.05477 59.339 10.3148 57.0489 10.7011C56.8273 10.7397 56.6057 10.759 56.384 10.759C54.371 10.7397 52.5796 9.21371 52.2656 7.05032ZM92.2312 9.27165C89.9227 9.07849 88.2051 6.97304 88.3898 4.55854C88.5745 2.14405 90.5876 0.347685 92.8961 0.540845C95.2047 0.734005 96.9222 2.83945 96.7375 5.25395C96.5528 7.55255 94.7244 9.29098 92.5636 9.29098C92.4528 9.27167 92.342 9.27165 92.2312 9.27165ZM64.2147 5.21528C64.03 2.80078 65.766 0.695354 68.0561 0.52151C70.3646 0.328351 72.3777 2.14409 72.5624 4.53927C72.7471 6.95377 71.011 9.05919 68.7025 9.23304C68.5917 9.23304 68.4809 9.23304 68.3701 9.23304C66.2277 9.25235 64.3809 7.51388 64.2147 5.21528ZM80.4853 8.76947C78.1768 8.76947 76.293 6.81852 76.293 4.38471C76.293 1.97021 78.1768 0 80.4853 0C82.7939 0 84.6776 1.97021 84.6776 4.38471C84.6592 6.81852 82.7754 8.76947 80.4853 8.76947Z" fill="white"/>
</svg>
