<svg width="244" height="100" viewBox="0 0 244 100" fill="none" xmlns="http://www.w3.org/2000/svg">
<path d="M44.7293 99.8913C42.3849 99.3634 40.91 97.0342 41.4378 94.7051C41.9657 92.3604 44.2945 90.8696 46.6234 91.4131C48.9677 91.9411 50.4582 94.2703 49.9148 96.5994C49.4646 98.6336 47.6636 100 45.6763 100C45.3658 100 45.0553 99.9535 44.7293 99.8913ZM54.0912 95.4349C52.6318 93.5249 53.0044 90.8076 54.8985 89.3479C56.8081 87.8728 59.5407 88.2454 61.0001 90.1554C62.4595 92.0653 62.0868 94.7982 60.1927 96.2578C59.4009 96.8634 58.4694 97.1584 57.5534 97.1584C56.2492 97.1429 54.9451 96.5529 54.0912 95.4349ZM31.9672 93.1212C30.1042 91.615 29.8247 88.8666 31.3462 87.0032C32.8677 85.1399 35.6158 84.8604 37.4633 86.3821C39.3264 87.9038 39.6058 90.6523 38.0843 92.5156C37.2304 93.5715 35.9728 94.115 34.7152 94.115C33.7527 94.0995 32.7746 93.7734 31.9672 93.1212ZM53.3149 84.0995C51.9952 82.0964 52.5697 79.3946 54.588 78.0903C56.6063 76.7704 59.2923 77.3449 60.6119 79.3636C61.9316 81.3667 61.3572 84.0685 59.3388 85.3884C58.6091 85.8697 57.7863 86.0871 56.9634 86.0871C55.5351 86.0871 54.1533 85.3883 53.3149 84.0995ZM22.5587 83.5406C21.0372 81.6772 21.3167 78.9443 23.1798 77.4226C25.0428 75.9009 27.7753 76.1804 29.2968 78.0437C30.8183 79.907 30.5389 82.6399 28.6758 84.1617C27.8685 84.8138 26.8904 85.1399 25.9278 85.1399C24.6547 85.1399 23.4127 84.5964 22.5587 83.5406ZM33.8458 73.5251C33.5198 71.1338 35.1965 68.9444 37.5719 68.6183C39.9474 68.2922 42.1365 69.9692 42.478 72.345C42.8041 74.7362 41.1273 76.9257 38.7519 77.2518C38.5656 77.2828 38.3482 77.2828 38.1619 77.2828C36.0039 77.2984 34.1408 75.699 33.8458 73.5251ZM47.1512 74.7984C45.2727 73.3077 44.9621 70.5593 46.4681 68.696C47.9586 66.8171 50.7066 66.5065 52.5697 68.0127C54.4482 69.5189 54.7588 72.2518 53.2528 74.1152C52.3989 75.2021 51.1413 75.7611 49.8527 75.7611C48.9056 75.7611 47.9586 75.435 47.1512 74.7984ZM14.9978 72.7487C13.7558 70.6835 14.4233 68.0127 16.4727 66.7705C18.5376 65.5283 21.1925 66.196 22.4501 68.2456C22.4501 68.2456 22.4501 68.2456 22.4501 68.2301C23.6921 70.2953 23.0245 72.9661 20.9751 74.2083C20.2765 74.6276 19.5002 74.8294 18.7395 74.8294C17.2645 74.8449 15.8207 74.0996 14.9978 72.7487ZM25.8191 66.6307C24.6858 64.519 25.4775 61.8792 27.589 60.7457C29.7005 59.6121 32.3399 60.4041 33.4732 62.5159C34.6066 64.6277 33.8148 67.2674 31.7033 68.4009C31.0512 68.7581 30.3371 68.9289 29.6384 68.9289C28.1014 68.9289 26.5954 68.0903 25.8191 66.6307ZM8.9273 61.1805C7.94918 58.991 8.91175 56.4134 11.0853 55.4196C13.2744 54.4259 15.8517 55.4041 16.8453 57.578C17.839 59.7675 16.8608 62.345 14.6873 63.3233C14.1128 63.5873 13.4918 63.727 12.8863 63.727C11.2406 63.727 9.657 62.7798 8.9273 61.1805ZM20.2765 55.0314C19.2828 52.842 20.2454 50.2644 22.4345 49.2862C24.6236 48.2924 27.2009 49.2551 28.179 51.4445C29.1726 53.6339 28.21 56.2116 26.0209 57.1898C25.4465 57.4538 24.8255 57.5935 24.2355 57.5935C22.5743 57.5935 20.9907 56.6308 20.2765 55.0314ZM4.79749 50.7613C4.03674 48.4942 5.24774 46.0098 7.53 45.2489C9.81226 44.4725 12.2808 45.6992 13.0416 47.9663C13.8178 50.2489 12.5913 52.7178 10.309 53.4787C9.84328 53.6339 9.37752 53.7116 8.91176 53.7116C7.11079 53.7271 5.41851 52.5781 4.79749 50.7613ZM15.2772 43.044C14.501 40.7769 15.712 38.308 17.9787 37.5316C20.2609 36.7552 22.7295 37.9664 23.5058 40.2334V40.249C24.2821 42.516 23.0555 45.0005 20.7888 45.7613C20.323 45.9166 19.8573 45.9942 19.3915 45.9942C17.5905 45.9942 15.8983 44.8452 15.2772 43.044ZM1.39738 38.0751C0.947142 35.7149 2.48418 33.4323 4.84406 32.9664C7.20395 32.5161 9.48622 34.0534 9.95199 36.4136C10.4022 38.7738 8.8652 41.0564 6.50531 41.5223C6.22585 41.5689 5.94638 41.5999 5.66692 41.5999C3.61754 41.5844 1.80105 40.1558 1.39738 38.0751ZM16.9074 32.3453C15.9138 30.1559 16.8764 27.5782 19.0655 26.5845C21.2546 25.5907 23.8318 26.5534 24.8099 28.7429C25.8036 30.9323 24.841 33.5254 22.6519 34.5037C22.0619 34.7676 21.4564 34.8919 20.8509 34.8919C19.2207 34.8919 17.6371 33.9447 16.9074 32.3453ZM9.17804e-05 24.7677C-0.0154338 22.3765 1.94077 20.42 4.34723 20.4044C6.73817 20.3889 8.69439 22.3454 8.70992 24.7522C8.70992 27.159 6.76924 29.1 4.36277 29.1155H4.34723C1.9563 29.1155 9.17804e-05 27.1746 9.17804e-05 24.7677ZM23.7542 22.9199C23.1487 20.6063 24.5305 18.215 26.8593 17.6094C29.1726 17.0038 31.5636 18.3858 32.1691 20.7305C32.7746 23.0441 31.3928 25.4354 29.064 26.041C28.6914 26.1342 28.3187 26.1808 27.9461 26.1808C26.0365 26.1808 24.2665 24.892 23.7542 22.9199ZM4.70434 16.4603C2.48418 15.5442 1.44395 12.9976 2.35996 10.7772C3.2915 8.55668 5.82219 7.5163 8.05787 8.43245C10.278 9.34859 11.3182 11.8952 10.4022 14.1156C9.71907 15.7926 8.08891 16.7864 6.39662 16.7864C5.82217 16.7864 5.26326 16.6777 4.70434 16.4603ZM20.3696 10.9169C19.7176 8.60326 21.0528 6.19646 23.3816 5.54429C25.6794 4.89212 28.0858 6.24305 28.7534 8.55669C29.4055 10.8703 28.0548 13.2771 25.7415 13.9293C25.3378 14.038 24.9497 14.1001 24.546 14.1001C22.6519 14.0846 20.913 12.8268 20.3696 10.9169ZM11.458 6.1499C10.4643 3.96048 11.4269 1.38283 13.616 0.389046C15.8051 -0.604735 18.3668 0.373541 19.3605 2.54744C20.3541 4.73686 19.3915 7.31446 17.2024 8.30824C16.6124 8.57222 16.0069 8.69644 15.4014 8.69644C13.7712 8.69644 12.1877 7.74927 11.458 6.1499Z" fill="white"/>
<path d="M78.0469 75.1405C78.0469 72.7492 79.9876 70.7927 82.3941 70.7927C84.785 70.7927 86.7412 72.7492 86.7412 75.1405C86.7412 77.5473 84.785 79.4883 82.3941 79.4883C79.9876 79.4883 78.0469 77.5473 78.0469 75.1405ZM78.0469 62.563C78.0469 60.1717 79.9876 58.2152 82.3941 58.2152C84.785 58.2152 86.7412 60.1717 86.7412 62.563C86.7412 64.9698 84.785 66.9108 82.3941 66.9108C79.9876 66.9263 78.0469 64.9698 78.0469 62.563ZM78.0469 50.001C78.0469 47.5942 79.9876 45.6532 82.3941 45.6532C84.785 45.6532 86.7412 47.5942 86.7412 50.001C86.7412 52.4078 84.785 54.3488 82.3941 54.3488C79.9876 54.3488 78.0469 52.4078 78.0469 50.001ZM78.0469 37.439C78.0469 35.0322 79.9876 33.0912 82.3941 33.0912C84.785 33.0912 86.7412 35.0322 86.7412 37.439C86.7412 39.8458 84.785 41.7868 82.3941 41.7868C79.9876 41.7868 78.0469 39.8458 78.0469 37.439ZM78.0469 24.8614C78.0469 22.4702 79.9876 20.5137 82.3941 20.5137C84.785 20.5137 86.7412 22.4702 86.7412 24.8614C86.7412 27.2683 84.785 29.2092 82.3941 29.2092C79.9876 29.2247 78.0469 27.2683 78.0469 24.8614Z" fill="white"/>
<path d="M95.793 93.9905C95.793 91.5992 97.7337 89.6427 100.14 89.6427C102.531 89.6427 104.487 91.5992 104.487 93.9905C104.487 96.3973 102.531 98.3383 100.14 98.3383C97.7337 98.3383 95.793 96.3973 95.793 93.9905ZM95.793 81.413C95.793 79.0217 97.7337 77.0652 100.14 77.0652C102.531 77.0652 104.487 79.0217 104.487 81.413C104.487 83.8198 102.531 85.7608 100.14 85.7608C97.7337 85.7763 95.793 83.8198 95.793 81.413ZM95.793 68.851C95.793 66.4597 97.7337 64.5032 100.14 64.5032C102.531 64.5032 104.487 66.4597 104.487 68.851C104.487 71.2578 102.531 73.1988 100.14 73.1988C97.7337 73.1988 95.793 71.2578 95.793 68.851ZM95.793 56.289C95.793 53.8977 97.7337 51.9412 100.14 51.9412C102.531 51.9412 104.487 53.8977 104.487 56.289C104.487 58.6958 102.531 60.6368 100.14 60.6368C97.7337 60.6368 95.793 58.6958 95.793 56.289ZM95.793 43.7114C95.793 41.3201 97.7337 39.3637 100.14 39.3637C102.531 39.3637 104.487 41.3201 104.487 43.7114C104.487 46.1182 102.531 48.0592 100.14 48.0592C97.7337 48.0748 95.793 46.1182 95.793 43.7114ZM95.793 31.1494C95.793 28.7581 97.7337 26.8017 100.14 26.8017C102.531 26.8017 104.487 28.7581 104.487 31.1494C104.487 33.5562 102.531 35.4972 100.14 35.4972C97.7337 35.4972 95.793 33.5562 95.793 31.1494ZM95.793 18.5874C95.793 16.1961 97.7337 14.2397 100.14 14.2397C102.531 14.2397 104.487 16.1961 104.487 18.5874C104.487 20.9942 102.531 22.9352 100.14 22.9352C97.7337 22.9352 95.793 20.9942 95.793 18.5874ZM95.793 6.00988C95.793 3.6186 97.7337 1.66211 100.14 1.66211C102.531 1.66211 104.487 3.6186 104.487 6.00988C104.487 8.41669 102.531 10.3577 100.14 10.3577C97.7337 10.3577 95.793 8.41669 95.793 6.00988Z" fill="white"/>
<path d="M113.539 68.852C113.539 66.4452 115.48 64.5043 117.886 64.5043C120.277 64.5043 122.233 66.4452 122.233 68.852C122.233 71.2433 120.277 73.1999 117.886 73.1999C115.48 73.1999 113.539 71.2433 113.539 68.852ZM113.539 56.29C113.539 53.8832 115.48 51.9423 117.886 51.9423C120.277 51.9423 122.233 53.8832 122.233 56.29C122.233 58.6813 120.277 60.6379 117.886 60.6379C115.48 60.6379 113.539 58.6813 113.539 56.29ZM113.539 43.7125C113.539 41.3057 115.48 39.3647 117.886 39.3647C120.277 39.3647 122.233 41.3057 122.233 43.7125C122.233 46.1038 120.277 48.0603 117.886 48.0603C115.48 48.0759 113.539 46.1193 113.539 43.7125ZM113.539 31.1505C113.539 28.7437 115.48 26.8027 117.886 26.8027C120.277 26.8027 122.233 28.7437 122.233 31.1505C122.233 33.5418 120.277 35.4983 117.886 35.4983C115.48 35.4983 113.539 33.5418 113.539 31.1505Z" fill="white"/>
<path d="M131.285 68.852C131.285 66.4452 133.226 64.5043 135.632 64.5043C138.023 64.5043 139.98 66.4452 139.98 68.852C139.98 71.2433 138.023 73.1999 135.632 73.1999C133.226 73.1999 131.285 71.2433 131.285 68.852ZM131.285 56.29C131.285 53.8832 133.226 51.9423 135.632 51.9423C138.023 51.9423 139.98 53.8832 139.98 56.29C139.98 58.6813 138.023 60.6379 135.632 60.6379C133.226 60.6379 131.285 58.6813 131.285 56.29ZM131.285 43.7125C131.285 41.3057 133.226 39.3647 135.632 39.3647C138.023 39.3647 139.98 41.3057 139.98 43.7125C139.98 46.1038 138.023 48.0603 135.632 48.0603C133.226 48.0759 131.285 46.1193 131.285 43.7125ZM131.285 31.1505C131.285 28.7437 133.226 26.8027 135.632 26.8027C138.023 26.8027 139.98 28.7437 139.98 31.1505C139.98 33.5418 138.023 35.4983 135.632 35.4983C133.226 35.4983 131.285 33.5418 131.285 31.1505Z" fill="white"/>
<path d="M149.029 81.4135C149.029 79.0067 150.986 77.0502 153.376 77.0502C155.767 77.0502 157.724 79.0067 157.724 81.4135C157.724 83.8048 155.767 85.7614 153.376 85.7614C150.986 85.7769 149.029 83.8204 149.029 81.4135ZM149.029 68.836C149.029 66.4448 150.986 64.4882 153.376 64.4882C155.767 64.4882 157.724 66.4292 157.724 68.836C157.724 71.2429 155.767 73.1994 153.376 73.1994C150.986 73.1994 149.029 71.2429 149.029 68.836ZM149.029 56.2895C149.029 53.8827 150.986 51.9418 153.376 51.9418C155.767 51.9418 157.724 53.8827 157.724 56.2895C157.724 58.6808 155.767 60.6374 153.376 60.6374C150.986 60.6374 149.029 58.6808 149.029 56.2895ZM149.029 43.712C149.029 41.3052 150.986 39.3487 153.376 39.3487C155.767 39.3487 157.724 41.3052 157.724 43.712C157.724 46.1033 155.767 48.0598 153.376 48.0598C150.986 48.0753 149.029 46.1188 149.029 43.712ZM149.029 31.1345C149.029 28.7432 150.986 26.7867 153.376 26.7867C155.767 26.7867 157.724 28.7277 157.724 31.1345C157.724 33.5413 155.767 35.4978 153.376 35.4978C150.986 35.4978 149.029 33.5413 149.029 31.1345ZM149.029 18.588C149.029 16.1812 150.986 14.2402 153.376 14.2402C155.767 14.2402 157.724 16.1812 157.724 18.588C157.724 20.9793 155.767 22.9358 153.376 22.9358C150.986 22.9203 149.029 20.9793 149.029 18.588Z" fill="white"/>
<path d="M166.775 93.9905C166.775 91.5992 168.716 89.6427 171.123 89.6427C173.529 89.6427 175.47 91.5992 175.47 93.9905C175.47 96.3973 173.529 98.3383 171.123 98.3383C168.716 98.3383 166.775 96.3973 166.775 93.9905ZM166.775 81.413C166.775 79.0217 168.716 77.0652 171.123 77.0652C173.529 77.0652 175.47 79.0217 175.47 81.413C175.47 83.8198 173.529 85.7608 171.123 85.7608C168.716 85.7763 166.775 83.8198 166.775 81.413ZM166.775 68.851C166.775 66.4597 168.716 64.5032 171.123 64.5032C173.529 64.5032 175.47 66.4597 175.47 68.851C175.47 71.2578 173.529 73.1988 171.123 73.1988C168.716 73.1988 166.775 71.2578 166.775 68.851ZM166.775 56.289C166.775 53.8977 168.716 51.9412 171.123 51.9412C173.529 51.9412 175.47 53.8977 175.47 56.289C175.47 58.6958 173.529 60.6368 171.123 60.6368C168.716 60.6368 166.775 58.6958 166.775 56.289ZM166.775 43.7114C166.775 41.3201 168.716 39.3637 171.123 39.3637C173.529 39.3637 175.47 41.3201 175.47 43.7114C175.47 46.1182 173.529 48.0592 171.123 48.0592C168.716 48.0748 166.775 46.1182 166.775 43.7114ZM166.775 31.1494C166.775 28.7581 168.716 26.8017 171.123 26.8017C173.529 26.8017 175.47 28.7581 175.47 31.1494C175.47 33.5562 173.529 35.4972 171.123 35.4972C168.716 35.4972 166.775 33.5562 166.775 31.1494ZM166.775 18.5874C166.775 16.1961 168.716 14.2397 171.123 14.2397C173.529 14.2397 175.47 16.1961 175.47 18.5874C175.47 20.9942 173.529 22.9352 171.123 22.9352C168.716 22.9352 166.775 20.9942 166.775 18.5874ZM166.775 6.00988C166.775 3.6186 168.716 1.66211 171.123 1.66211C173.529 1.66211 175.47 3.6186 175.47 6.00988C175.47 8.41669 173.529 10.3577 171.123 10.3577C168.716 10.3577 166.775 8.41669 166.775 6.00988Z" fill="white"/>
<path d="M184.521 62.5635C184.521 60.1722 186.478 58.2157 188.869 58.2157C191.275 58.2157 193.216 60.1722 193.216 62.5635C193.216 64.9703 191.275 66.9268 188.869 66.9268C186.478 66.9268 184.521 64.9703 184.521 62.5635ZM184.521 50.0015C184.521 47.5947 186.478 45.6382 188.869 45.6382C191.275 45.6382 193.216 47.5947 193.216 50.0015C193.216 52.3928 191.275 54.3493 188.869 54.3493C186.478 54.3493 184.521 52.3928 184.521 50.0015ZM184.521 37.4239C184.521 35.0327 186.478 33.0762 188.869 33.0762C191.275 33.0762 193.216 35.0171 193.216 37.4239C193.216 39.8308 191.275 41.7717 188.869 41.7717C186.478 41.7717 184.521 39.8308 184.521 37.4239Z" fill="white"/>
<path d="M202.268 68.852C202.268 66.4452 204.224 64.5043 206.615 64.5043C209.021 64.5043 210.962 66.4452 210.962 68.852C210.962 71.2433 209.021 73.1999 206.615 73.1999C204.224 73.1999 202.268 71.2433 202.268 68.852ZM202.268 56.29C202.268 53.8832 204.224 51.9423 206.615 51.9423C209.021 51.9423 210.962 53.8832 210.962 56.29C210.962 58.6813 209.021 60.6379 206.615 60.6379C204.224 60.6379 202.268 58.6813 202.268 56.29ZM202.268 43.7125C202.268 41.3057 204.224 39.3647 206.615 39.3647C209.021 39.3647 210.962 41.3057 210.962 43.7125C210.962 46.1193 209.021 48.0603 206.615 48.0603C204.224 48.0759 202.268 46.1193 202.268 43.7125ZM202.268 31.1505C202.268 28.7437 204.224 26.8027 206.615 26.8027C209.021 26.8027 210.962 28.7437 210.962 31.1505C210.962 33.5573 209.021 35.4983 206.615 35.4983C204.224 35.4983 202.268 33.5573 202.268 31.1505Z" fill="white"/>
<path d="M219.066 56.2886C219.066 53.8818 221.023 51.9253 223.414 51.9253C225.82 51.9253 227.761 53.8818 227.761 56.2886C227.761 58.6799 225.82 60.6364 223.414 60.6364C221.023 60.6364 219.066 58.6799 219.066 56.2886ZM219.066 43.7111C219.066 41.3198 221.023 39.3633 223.414 39.3633C225.82 39.3633 227.761 41.3042 227.761 43.7111C227.761 46.1179 225.82 48.0589 223.414 48.0589C221.023 48.0589 219.066 46.1179 219.066 43.7111Z" fill="white"/>
<path d="M235.307 50.0002C235.307 47.6089 237.263 45.6523 239.654 45.6523C242.06 45.6523 244.001 47.5933 244.001 50.0002C244.001 52.407 242.06 54.3479 239.654 54.3479C237.263 54.3479 235.307 52.407 235.307 50.0002Z" fill="white"/>
</svg>
