<svg width="822" height="900" viewBox="0 0 822 900" fill="none" xmlns="http://www.w3.org/2000/svg">
<path d="M660.191 -53.5037C672.361 -54.0738 714.319 -54.2007 719.39 -53.6307C722.495 -53.314 723.319 -52.9333 724.46 -51.4764C725.664 -49.8929 725.791 -48.626 725.981 -40.5818L726.234 -31.4598L724.523 -30.0662C721.671 -27.5327 717.171 -27.1529 693.467 -27.0262C673.945 -27.0262 660.381 -26.4564 649.733 -25.3162C648.571 -25.1871 646.269 -24.9699 643.879 -24.7449C642.75 -24.6387 641.601 -24.5301 640.544 -24.4285C631.607 -23.5417 617.726 -21.8323 610.437 -20.6287C608.346 -20.312 604.796 -19.7412 602.515 -19.3611C596.811 -18.4743 592.057 -17.6514 587.937 -16.8279C586.036 -16.4479 583.057 -15.878 581.282 -15.5613C579.571 -15.2446 576.528 -14.6738 574.627 -14.2938C572.726 -13.9137 570.127 -13.4701 568.923 -13.2801C567.719 -13.0901 566.134 -12.7101 565.436 -12.3934C564.739 -12.0766 563.345 -11.6965 562.268 -11.4432C561.756 -11.3473 560.954 -11.1712 560.082 -10.9793C559.225 -10.7907 558.3 -10.5865 557.515 -10.4295C555.93 -10.0494 553.711 -9.60686 552.57 -9.4168C551.43 -9.22685 550.353 -8.84672 550.162 -8.53008C549.972 -8.2134 549.148 -7.95982 548.324 -7.95977C547.5 -7.95977 546.169 -7.70617 545.345 -7.38946C544.521 -7.07276 542.747 -6.50303 541.352 -6.18633C534.761 -4.47607 533.049 -3.9685 532.035 -3.46172C531.401 -3.14503 530.323 -2.89239 529.689 -2.89239C528.992 -2.89227 527.789 -2.63866 526.965 -2.32207C526.141 -2.00536 524.239 -1.43542 522.654 -0.991997C521.07 -0.548611 519.232 0.0222168 518.535 0.275581C517.838 0.528999 516 1.09876 514.415 1.54218C512.831 1.92225 511.056 2.55556 510.485 2.87226C509.852 3.1889 508.774 3.4425 508.141 3.44257C507.444 3.44257 506.682 3.69543 506.492 4.07539C506.302 4.3921 505.478 4.70918 504.654 4.70918C503.894 4.7092 503.006 4.96267 502.626 5.21601C502.308 5.53294 499.9 6.41989 497.302 7.17988C494.703 8.00325 491.915 8.88948 491.154 9.20625C490.33 9.52296 489.062 10.0302 488.302 10.3469C487.809 10.4984 487.136 10.7628 486.484 11.0187C486.046 11.191 485.617 11.3591 485.26 11.4865C484.372 11.8666 482.534 12.5 481.14 12.8801C479.745 13.3235 478.034 13.8944 477.337 14.2111C476.639 14.5279 474.231 15.414 471.95 16.174C469.668 16.9342 467.577 17.7586 467.196 18.0119C466.879 18.2653 465.231 18.8353 463.583 19.342C461.872 19.7853 460.541 20.4187 460.541 20.6721C460.541 20.9253 460.098 21.1788 459.591 21.1789C459.084 21.1789 457.245 21.7489 455.598 22.509C453.95 23.2691 451.984 24.0927 451.224 24.4094C450.4 24.7261 449.132 25.2324 448.372 25.549C446.407 26.3092 442.097 28.1466 435.695 30.9338C434.364 31.5038 432.21 32.3901 430.942 32.9602C427.393 34.4804 421.625 37.1413 415.541 40.1184C412.562 41.5753 409.836 42.716 409.393 42.716C409.012 42.716 408.568 42.906 408.441 43.1594C408.377 43.4764 406.857 44.3627 405.083 45.1857C397.16 48.923 380.047 57.7913 378.082 59.2482C377.131 59.8817 376.18 60.4523 375.99 60.4523C375.75 60.4532 374.663 61.0736 373.423 61.7824L373.202 61.9084C371.934 62.7319 369.526 64.126 367.941 65.0129C367.186 65.4413 366.525 65.8166 365.944 66.1457C362.577 68.0544 361.937 68.4166 361.667 68.6867C361.477 68.8768 360.019 69.7637 358.371 70.5871C356.661 71.4735 355.329 72.3596 355.328 72.6135C355.328 72.9302 355.011 73.1203 354.631 73.1203C354.25 73.1209 352.666 73.9443 351.082 75.0207C349.562 76.0337 348.168 76.9203 347.977 76.9211C347.596 76.9211 315.969 97.9517 314.638 99.0285C314.193 99.4093 309.82 102.703 304.94 106.376C289.983 117.588 283.581 122.655 275.785 129.496C273.63 131.397 269.321 135.135 266.278 137.732C239.531 160.535 207.65 193.157 186.734 219.128C185.649 220.498 183.329 223.308 181.351 225.704L180.714 226.477C176.91 231.098 176.726 231.343 171.031 238.985C170.559 239.618 170.048 240.303 169.495 241.045C157.706 256.881 156.883 258.085 145.791 274.744C141.483 281.266 137.934 286.839 137.932 287.159C137.932 287.476 137.677 287.857 137.424 287.984C137.169 288.112 136.093 289.568 135.079 291.278C134.002 293.051 132.607 295.331 131.91 296.471L131.696 296.821C129.027 301.205 124.985 307.842 124.368 309.014C123.988 309.774 122.846 311.547 121.895 313.004C120.945 314.524 120.185 315.853 120.185 316.108C120.185 316.298 119.678 317.248 118.98 318.135C118.347 319.085 116.382 322.569 114.671 325.862C112.896 329.156 110.677 333.274 109.663 335.048C108.649 336.759 104.846 344.169 101.233 351.517C99.4556 355.101 97.7856 358.502 96.5097 361.1C95.1928 363.781 94.2957 365.607 94.1347 365.897C93.8179 366.53 93.5644 367.48 93.5644 367.987C93.5644 368.493 93.3109 368.937 92.9306 368.937C92.6137 368.937 92.2969 369.317 92.2968 369.823C92.2968 370.267 91.4095 372.484 90.332 374.701C89.1914 376.918 88.114 379.324 87.8603 380.022C87.6966 380.472 87.2687 381.45 86.7812 382.565C86.5138 383.176 86.2284 383.828 85.9589 384.456C84.628 387.433 84.2475 388.32 82.5996 392.374C82.2827 393.261 81.7123 394.654 81.332 395.541C81.1859 395.95 80.986 396.453 80.788 396.951C80.5566 397.534 80.328 398.109 80.1914 398.519C79.9766 399.077 79.6445 399.897 79.3349 400.663C79.1878 401.027 79.0463 401.38 78.9238 401.686C78.4801 402.699 77.9722 404.029 77.7187 404.726C76.6413 407.64 74.6131 412.517 73.8525 414.037C73.5356 414.671 73.2823 415.748 73.2822 416.381C73.2822 417.078 73.0287 417.838 72.6484 418.029C72.3316 418.219 72.0146 419.106 72.0146 419.929C72.0145 420.752 71.7613 421.576 71.5078 421.766C71.2541 421.956 70.6202 423.539 70.1132 425.313C69.6062 427.086 68.9722 428.67 68.7187 428.861C68.4653 429.051 68.2119 429.747 68.2119 430.444C68.2119 431.077 67.9584 432.154 67.6416 432.787C66.6908 434.688 65.8034 436.969 64.9795 439.566C64.5992 440.959 64.0288 442.67 63.7754 443.366C63.5216 444.064 62.6344 446.787 61.874 449.384C58.5785 460.088 56.6136 466.232 56.1064 467.246C55.7895 467.88 55.5361 469.084 55.5361 469.907C55.536 470.794 55.2823 471.68 54.9023 471.87C54.5854 472.06 54.2685 473.075 54.2685 474.088C54.2684 475.101 54.0149 476.051 53.6982 476.241C53.3813 476.431 52.9372 477.635 52.747 478.838C52.652 479.44 52.5098 480.248 52.3671 481.056C52.2246 481.863 52.0813 482.671 51.9863 483.273C51.7962 484.476 51.353 485.679 51.0361 485.869C50.7192 486.059 50.4658 487.137 50.4658 488.34C50.4658 489.544 50.1479 490.684 49.831 490.874C49.451 491.065 49.1972 492.204 49.1972 493.407C49.1972 494.611 48.9437 495.752 48.5634 495.942C48.2467 496.132 47.9297 497.082 47.9296 497.968C47.9296 498.918 47.6762 500.502 47.3593 501.579C46.9791 502.656 46.4085 505.253 46.0283 507.343C45.5847 509.433 45.0143 511.713 44.7607 512.41C44.4438 513.107 44.0641 514.691 43.874 515.895C43.6839 517.098 43.2396 519.505 42.8593 521.279C42.4791 522.989 41.9087 526.03 41.5918 527.93C41.2749 529.83 40.7045 532.997 40.3242 534.898C33.4156 570.054 28.2822 624.086 28.2822 661.903C28.2822 683.756 30.6905 727.084 32.7187 743.616C33.099 746.404 33.6694 751.091 33.9863 754.068C34.8102 761.859 35.5073 766.61 37.789 779.849C38.5496 784.663 39.5002 789.667 40.3242 793.975C40.7045 795.875 41.2749 798.853 41.5918 800.626C41.7254 801.347 41.9041 802.271 42.0898 803.232C42.3446 804.549 42.6126 805.935 42.7959 806.96C43.1761 808.67 43.6203 811.14 43.8105 812.344C44.064 813.547 44.4438 815.132 44.7607 815.828C45.0776 816.525 45.4582 818.108 45.6484 819.312C45.7752 820.515 46.2183 822.669 46.5986 824.063C47.3591 826.976 48.2465 830.524 49.1972 834.324C49.4955 835.755 50.0748 837.973 50.4589 839.444L50.5283 839.709C50.9085 841.229 51.3528 843.382 51.5429 844.523C51.733 845.662 52.1128 846.739 52.4296 846.93C52.7466 847.12 53.0009 848.071 53.0009 849.084C53.001 850.098 53.2545 851.111 53.6347 851.301C53.9515 851.491 54.2685 852.314 54.2685 853.011C54.2685 854.278 55.029 857.002 56.1699 860.169C56.4234 860.866 56.9938 862.703 57.4375 864.286C58.5149 868.087 60.6698 875.055 61.2402 876.639C61.4941 877.337 62.8882 881.58 64.3457 886.14C65.8034 890.637 67.2611 894.945 67.5146 895.642C67.7838 896.234 68.2366 897.466 68.6386 898.561C68.7098 898.755 68.779 898.944 68.8457 899.125C69.7963 901.785 70.6838 904.129 71.4443 905.586C71.7216 906.141 71.9501 906.938 72.0029 907.468L72.0263 907.886C72.0791 908.416 72.3076 909.213 72.5849 909.768C72.9018 910.338 73.4724 911.668 73.916 912.744C74.0342 913.014 74.162 913.311 74.291 913.612C74.6462 914.442 75.0146 915.304 75.247 915.722C75.5639 916.355 75.8173 917.242 75.8173 917.812C75.8173 918.318 76.3879 919.712 77.0849 920.979C77.7819 922.245 78.3531 923.512 78.3535 923.829C78.3535 924.209 78.9231 925.856 79.6836 927.503C80.1613 928.538 80.64 929.673 81.0078 930.546C81.2254 931.063 81.4046 931.488 81.5224 931.747C81.7299 932.317 82.3189 933.651 82.9082 934.985C83.0391 935.281 83.1701 935.578 83.2968 935.865C84.2742 938.014 85.2514 940.314 86.4902 943.229C86.858 944.094 87.2491 945.014 87.6699 946L56.1699 945.967C54.9023 943.36 54.2685 941.891 54.2685 941.502C54.268 941.184 53.6977 939.538 52.9375 937.892C52.4598 936.857 51.982 935.723 51.6142 934.85C51.3965 934.333 51.2174 933.907 51.0996 933.648C50.846 932.951 50.3381 931.621 49.8945 930.608C49.7759 930.311 49.6329 929.96 49.4804 929.585C49.1438 928.759 48.7627 927.821 48.5009 927.123C48.1207 926.173 47.5493 924.906 47.2324 924.336C46.9156 923.703 46.6621 922.943 46.6621 922.563C46.662 922.183 46.0917 920.725 45.458 919.205C44.7608 917.748 43.6199 914.708 42.8593 912.428C42.1621 910.148 41.2749 907.804 40.958 907.234C40.5777 906.6 40.3242 905.65 40.3242 905.143C40.324 904.636 40.0707 903.686 39.7539 903.053C39.437 902.483 37.4088 896.402 35.2539 889.624C33.0991 882.847 31.0711 876.703 30.8173 876.005C30.5638 875.308 29.9934 873.471 29.5498 871.888C29.1062 870.305 28.5358 868.468 28.2822 867.771C28.0287 867.074 27.4583 865.236 27.0146 863.653C25.3668 857.825 24.923 856.305 24.416 854.911C24.0991 854.088 23.8457 852.757 23.8457 851.934C23.8456 851.11 23.5912 850.287 23.2744 850.097C22.7676 849.716 22.3871 848.132 21.5634 842.56C21.3099 841.293 20.9301 840.025 20.6132 839.835C20.2964 839.645 20.042 838.569 20.042 837.365C20.042 836.162 19.7885 835.085 19.4716 834.895C19.1548 834.704 18.775 833.438 18.5849 832.171C17.8877 827.61 17.4434 825.33 16.873 824.063C16.5562 823.366 16.1764 821.783 15.9863 820.579C15.7961 819.376 15.3519 816.905 14.9716 815.195C14.5914 813.421 14.021 810.571 13.7041 808.861C13.3872 807.087 12.8168 804.109 12.4365 802.209C12.0562 800.309 11.4858 797.205 11.1689 795.368C10.9985 794.442 10.8436 793.601 10.7011 792.828C9.14797 784.406 9.10781 784.19 7.36617 772.121C3.75345 746.657 2.80275 737.155 0.901328 707.194C-0.746574 680.526 -0.049216 624.91 2.29586 600.459C3.56347 587.474 4.26059 581.202 4.83102 577.022C5.13799 574.721 5.47422 572.226 5.86227 569.352C6.27541 566.291 6.74709 562.8 7.30269 558.652C8.06325 553.204 8.82378 548.073 9.83785 542.499C10.9787 535.912 11.8666 530.781 12.1836 528.564C12.3737 527.36 12.7534 525.776 13.0703 525.079C13.3872 524.382 13.7678 522.672 13.958 521.279C14.6551 515.768 15.0984 513.614 15.6054 512.41C15.9223 511.713 16.303 510.13 16.4931 508.927C16.6199 507.724 17.1265 505.443 17.5068 503.86C17.8871 502.276 18.3948 499.868 18.5849 498.475C18.7751 497.081 19.1548 495.688 19.4716 495.308C19.7885 494.991 20.0419 493.788 20.042 492.711C20.042 491.571 20.2963 490.494 20.6132 490.304C20.9301 490.113 21.3099 488.847 21.5 487.58C21.6901 486.25 22.1342 484.16 22.4511 482.956C24.0355 477.572 25.9366 470.415 26.1904 468.514C26.3805 467.374 26.7612 466.297 27.0781 466.107C27.3949 465.916 27.6484 464.966 27.6484 463.952C27.6485 462.939 27.9019 461.926 28.2822 461.736C28.6623 461.545 28.916 460.658 28.916 459.772C28.916 458.948 29.1694 457.745 29.4863 457.112C29.8032 456.541 30.3737 454.767 30.8173 453.184C31.261 451.6 31.8315 449.827 32.1484 449.257C32.4652 448.624 32.7186 447.42 32.7187 446.597C32.7187 445.71 33.0356 444.823 33.3525 444.633C33.6694 444.443 33.9862 443.556 33.9863 442.733C33.9863 441.961 34.2647 441.134 34.5605 440.876L34.6796 440.788C34.936 440.565 35.1788 439.914 35.2392 439.242L35.2685 438.621C35.3289 437.949 35.5717 437.298 35.8281 437.075L35.9472 436.987C36.2036 436.764 36.4465 436.114 36.5068 435.442L36.5361 434.82C36.6012 434.097 36.878 433.397 37.1552 433.231C37.4721 433.041 37.789 432.154 37.789 431.33C37.7891 430.507 38.1059 429.62 38.4228 429.43C38.8031 429.24 39.0566 428.353 39.0566 427.529C39.0567 426.758 39.335 425.93 39.6308 425.673L39.75 425.587C40.0458 425.344 40.3242 424.636 40.3242 423.983C40.3242 423.349 40.5776 422.272 40.8945 421.639C41.1269 421.221 41.4964 420.36 41.8515 419.53C41.9806 419.229 42.1073 418.931 42.2255 418.661C42.6691 417.585 43.2397 416.255 43.5566 415.685C43.8735 415.051 44.1269 414.038 44.1269 413.404C44.1269 412.771 44.3805 412.011 44.6972 411.631C45.0141 411.314 45.8381 409.224 46.5986 406.944C47.2811 404.897 48.0662 402.748 48.4033 401.825L48.5009 401.559C49.515 399.025 50.3389 397.061 51.6699 394.148C52.4303 392.501 53.0008 390.854 53.0009 390.474C53.0009 390.094 53.2544 389.334 53.5713 388.7C54.8389 386.293 57.5642 379.958 58.705 376.855C58.9586 376.158 59.7824 374.257 60.5429 372.547C60.882 371.746 61.3409 370.735 61.7959 369.734C62.2763 368.676 62.7525 367.628 63.0781 366.847C64.9795 362.539 68.7828 354.494 71.7617 348.35C73.2828 345.183 74.5498 342.332 74.5498 341.889C74.5498 341.509 74.7407 341.065 75.0576 340.939C75.3128 340.809 77.5303 336.756 80.0009 331.881C85.0714 321.746 88.6842 314.905 89.1279 314.461C89.5082 314.081 90.7759 311.864 93.0576 307.493C94.0714 305.594 95.1484 303.757 95.4023 303.376C95.68 303.099 96.7846 301.07 98.0771 298.697C98.2597 298.362 98.4464 298.02 98.6347 297.675C100.156 294.888 101.867 291.847 102.501 290.897C103.198 290.01 103.705 289.061 103.705 288.87C103.705 288.68 104.592 287.286 105.606 285.766C106.684 284.182 107.509 282.789 107.509 282.599C107.51 282.408 108.903 280.191 110.551 277.595C112.262 275.062 113.782 272.528 114.036 272.021C114.67 270.564 126.079 253.461 134.129 241.995C134.212 241.88 134.334 241.712 134.486 241.5C135.261 240.428 136.84 238.242 138.375 236.232C138.835 235.614 139.323 234.96 139.811 234.306C141.272 232.347 142.732 230.387 143.445 229.39C144.396 228.06 146.234 225.716 147.438 224.195C148.643 222.675 150.671 220.079 151.875 218.432C153.079 216.848 155.107 214.251 156.311 212.794C157.516 211.274 159.797 208.424 161.382 206.46C162.966 204.433 165.375 201.456 166.833 199.872C168.227 198.289 172.22 193.601 175.706 189.484C179.129 185.366 183.248 180.489 184.833 178.652C195.354 166.173 234.651 127.786 250.686 114.231C264.377 102.639 283.264 87.753 292.581 81.1652C293.422 80.6251 296.026 78.7203 298.507 76.9055L298.919 76.6047C305.067 72.1073 307.476 70.4605 314.765 65.5197C318.06 63.3027 320.912 61.2752 321.103 61.0852C321.293 60.8951 321.99 60.4523 322.687 60.009C323.121 59.7725 324.414 58.9465 326.031 57.9143C327.013 57.2877 328.115 56.5847 329.216 55.8908C332.068 54.0539 334.92 52.2173 335.554 51.9006C335.826 51.7189 336.359 51.3779 337.001 50.968C337.702 50.5201 338.532 49.9894 339.293 49.4934C340.813 48.5439 342.143 47.7845 342.335 47.7834C342.588 47.7834 343.984 46.8965 345.505 45.883C347.026 44.8062 348.42 43.9826 348.61 43.9826C348.804 43.9803 353.302 41.3836 358.624 38.1545C363.948 34.9874 371.617 30.6804 375.61 28.59C376.365 28.1977 377.074 27.8298 377.747 27.4807C382.722 24.8984 385.703 23.3504 390.505 20.6721C391.202 20.2921 394.625 18.6453 398.11 17.0617C401.596 15.4148 407.048 12.8173 410.153 11.2971C413.321 9.77734 416.109 8.51083 416.364 8.50996C416.554 8.50996 418.71 7.62293 421.055 6.54609C423.4 5.46925 426.632 4.0124 428.217 3.31562C429.47 2.76455 431.199 1.93573 432.525 1.3C432.876 1.1319 433.199 0.977364 433.478 0.844917C434.872 0.148327 436.202 -0.358025 436.52 -0.358208C436.9 -0.358208 438.358 -0.928101 439.752 -1.62481C441.209 -2.32137 442.603 -2.89204 442.921 -2.89239C443.428 -2.89239 448.499 -5.04601 450.527 -6.12286C451.161 -6.43939 452.111 -6.69207 452.618 -6.69219C453.125 -6.69219 454.076 -6.94584 454.71 -7.2625C457.309 -8.65606 461.872 -10.493 462.696 -10.493C463.203 -10.4931 463.837 -10.8101 464.027 -11.1268C464.217 -11.5068 464.978 -11.7605 465.675 -11.7606C466.309 -11.7606 467.387 -12.0133 468.02 -12.3934C468.591 -12.7102 471.824 -13.8508 475.119 -14.9275C478.414 -16.0042 481.71 -17.1447 482.407 -17.3982C483.104 -17.715 484.817 -18.2848 486.211 -18.6648C487.605 -19.1082 489.316 -19.6781 490.014 -19.9314C493.436 -21.3251 503.704 -24.4285 504.845 -24.4285C505.542 -24.4286 506.302 -24.7457 506.492 -25.0623C506.682 -25.4424 507.443 -25.6961 508.141 -25.6961C508.774 -25.6962 509.852 -25.9497 510.485 -26.2664C511.499 -26.7732 512.704 -27.1529 518.852 -28.8631C520.436 -29.3064 522.338 -29.8765 523.162 -30.1932C523.986 -30.5098 525.317 -30.7635 526.141 -30.7635C526.965 -30.7635 527.852 -31.0806 528.042 -31.3973C528.233 -31.7771 529.373 -32.0301 530.577 -32.0301C531.781 -32.0301 532.922 -32.3472 533.112 -32.6639C533.302 -33.0439 534.317 -33.2967 535.331 -33.2967C536.345 -33.2967 537.358 -33.6139 537.549 -33.9305C537.739 -34.3105 538.88 -34.5642 540.084 -34.5643C541.288 -34.5643 542.43 -34.8803 542.62 -35.1971C542.81 -35.5771 543.951 -35.8309 545.155 -35.8309C546.359 -35.8309 547.437 -36.0845 547.627 -36.4012C547.817 -36.7179 549.085 -37.0979 550.352 -37.2879C552.698 -37.668 555.423 -38.2382 561.317 -39.6316C564.677 -40.3918 569.24 -41.3414 573.677 -42.1648C574.415 -42.323 575.34 -42.5141 576.292 -42.7107C577.627 -42.9865 579.016 -43.274 580.015 -43.4959C580.658 -43.6107 581.459 -43.7586 582.31 -43.9158C583.807 -44.1923 585.458 -44.4971 586.67 -44.699C588.571 -45.0157 591.74 -45.5856 593.642 -45.9656C595.543 -46.3457 598.839 -46.9165 600.931 -47.2332C603.022 -47.4866 606.888 -48.0565 609.486 -48.4998C614.24 -49.1966 619.184 -49.8296 629.135 -51.0965C636.36 -51.9833 648.276 -52.8702 660.191 -53.5037ZM143.954 827.61C150.799 825.203 152.257 825.14 153.461 827.547C153.968 828.56 154.411 829.89 154.411 830.46C154.411 831.537 155.298 834.642 156.376 837.365C156.629 838.062 157.01 839.519 157.2 840.659C157.63 843.052 155.799 845.743 153.668 845.908L153.15 845.928C152.426 845.982 151.726 846.217 151.56 846.55C151.369 846.867 150.355 847.184 149.341 847.184C148.327 847.184 147.313 847.437 147.123 847.817C146.933 848.133 145.792 848.45 144.588 848.45C143.384 848.45 142.244 848.703 142.053 849.083C141.863 849.4 140.721 849.717 139.517 849.717C138.312 849.717 137.172 849.971 136.981 850.351C136.791 850.667 135.777 850.984 134.827 850.984C133.876 850.984 132.862 851.237 132.545 851.554C132.165 851.871 130.77 852.251 129.376 852.441C126.017 852.884 123.292 853.518 121.77 854.152C121.073 854.468 119.488 854.848 118.284 855.102C117.08 855.292 115.115 855.608 113.975 855.862C112.834 856.052 111.757 856.432 111.566 856.748C111.376 857.065 110.425 857.319 109.411 857.319C108.397 857.319 107.383 857.571 107.192 857.951C107.002 858.268 105.861 858.585 104.657 858.585C103.453 858.585 102.312 858.839 102.122 859.219C101.931 859.536 100.791 859.852 99.6504 859.852C98.5729 859.852 97.3051 860.169 96.9248 860.549C95.9739 861.499 92.2344 860.992 91.664 859.852C90.65 857.888 89.8259 855.672 89.0654 853.201C88.6851 851.808 88.1147 850.16 87.7978 849.59C87.481 848.957 87.2275 847.88 87.2275 847.246C87.2274 846.55 86.9739 845.79 86.5937 845.6C86.2768 845.41 85.9599 844.649 85.9599 843.952C85.9606 842.306 89.6366 840.785 98.0019 838.948C99.903 838.505 101.995 837.935 102.565 837.618C103.199 837.302 104.531 837.048 105.545 837.048C106.622 837.048 107.573 836.794 107.763 836.478C107.953 836.161 109.221 835.782 110.488 835.529C116.066 834.705 117.651 834.324 118.031 833.818C118.222 833.501 119.299 833.247 120.503 833.247C121.707 833.247 122.848 832.931 123.038 832.614C123.228 832.234 124.369 831.981 125.573 831.981C126.777 831.981 127.918 831.664 128.108 831.347C128.299 830.967 129.63 830.714 130.961 830.714C132.292 830.714 133.622 830.397 133.812 830.08C134.003 829.7 135.27 829.447 136.538 829.384C137.806 829.384 141.165 828.56 143.954 827.61ZM212.722 749C213.293 748.62 216.588 748.43 220.644 748.62C230.785 749 231.609 749.19 239.215 752.611C245.172 755.334 251.827 760.908 255.566 766.419C256.897 768.383 260.637 775.541 261.524 777.821C262.348 779.975 263.363 784.03 263.87 787.323C264.821 793.531 263.996 808.1 262.728 808.923C262.412 809.113 262.158 809.937 262.158 810.76C262.158 811.583 261.905 812.47 261.524 812.66C261.208 812.85 260.891 813.547 260.891 814.181C260.891 815.448 258.863 819.502 256.201 823.683C252.842 828.94 244.348 836.415 239.024 838.885C238.01 839.328 236.616 839.962 236.046 840.279C235.412 840.595 234.397 840.849 233.764 840.849C233.13 840.849 232.306 841.165 231.926 841.545C230.975 842.495 213.164 842.495 208.918 841.545C202.01 839.961 196.369 836.985 190.918 831.981C186.481 827.927 180.904 818.805 179.192 812.787C178.812 811.52 178.178 809.43 177.798 808.1C176.847 805.059 176.721 786.626 177.608 784.155C177.989 783.079 178.685 781.115 179.065 779.722C181.03 773.261 185.087 765.976 189.207 761.415C190.918 759.578 197.127 754.702 197.89 754.7C198.08 754.7 199.031 754.194 199.918 753.561C202.39 751.85 208.222 749.633 210.123 749.633C211.01 749.633 212.215 749.317 212.722 749ZM226.538 765.406C224.954 764.646 215.448 764.709 214.939 765.469C214.749 765.786 214.052 766.103 213.418 766.103C209.995 766.103 203.024 772.248 201.06 776.998C200.426 778.518 199.665 780.229 199.348 780.799C199.031 781.433 198.777 782.636 198.777 783.586C198.777 784.473 198.46 785.74 198.144 786.373C197.256 788.085 197.256 800.372 198.207 804.362C199.411 809.81 202.39 816.018 205.052 818.932C207.333 821.466 212.024 824.379 213.735 824.379C214.559 824.379 215.383 824.633 215.573 825.013C216.081 825.9 223.179 825.836 225.968 824.886C230.531 823.429 232.116 822.479 235.031 819.502C242.13 812.218 245.806 799.548 243.715 789.413C241.813 779.975 239.785 775.668 235.222 771.234C232.433 768.51 231.101 767.623 226.538 765.406ZM111.628 808.67C116.128 807.783 117.269 807.974 117.522 809.557C117.776 811.267 114.733 812.978 111.564 812.978C110.424 812.978 109.283 813.231 109.093 813.612C108.902 813.928 107.888 814.244 106.874 814.244C105.796 814.244 103.768 814.498 102.311 814.878C100.789 815.195 97.8736 815.765 95.7822 816.208C93.691 816.588 91.283 817.158 90.3955 817.411C89.5081 817.665 87.1629 818.299 85.1347 818.742C81.8389 819.439 81.3315 819.438 80.3808 818.425C79.367 817.412 79.4305 817.222 81.1416 815.828C82.1556 815.005 84.1837 814.245 85.5781 814.055C87.0358 813.865 90.1414 813.295 92.6132 812.725C95.0217 812.155 97.811 811.711 98.7617 811.711C99.7124 811.711 100.663 811.394 100.853 811.077C101.044 810.697 101.995 810.444 102.882 810.444C103.833 810.443 105.417 810.191 106.494 809.874C107.572 809.494 109.917 808.987 111.628 808.67ZM106.875 787.007C108.459 785.994 110.614 786.31 111.311 787.703C112.389 789.667 110.614 791.251 107.002 791.631C105.354 791.821 101.741 792.391 98.9521 792.898C79.2407 796.635 75.3741 797.078 74.8037 795.621C74.2336 794.101 75.5648 792.898 78.2265 792.454C81.3955 791.884 86.2124 790.997 90.3955 790.174C92.2969 789.794 95.3394 789.287 97.0507 789.097C98.8253 788.97 100.473 788.527 100.853 788.21C101.17 787.893 102.438 787.64 103.706 787.64C104.91 787.64 106.368 787.324 106.875 787.007ZM102.818 764.013C103.642 763.189 104.91 763.57 105.607 764.774C106.495 766.484 105.798 767.941 103.769 768.384C102.882 768.574 101.678 768.89 101.171 769.08C100.664 769.27 97.9381 769.651 95.1494 769.968C88.431 770.728 77.5927 772.438 73.7265 773.388C72.7125 773.705 71.6348 773.578 71.0644 773.071C68.7196 771.108 70.7484 769.525 76.7695 768.574C78.5441 768.321 81.5224 767.75 83.4238 767.37C90.4591 765.977 93.9457 765.406 98.1289 764.963C100.41 764.71 102.565 764.33 102.818 764.013ZM132.86 731.961C136.473 731.391 139.896 731.455 140.91 732.088C141.417 732.405 141.735 734.115 141.925 737.915C142.052 740.259 140.403 741.209 134.318 742.096C131.973 742.413 128.234 742.982 126.079 743.362C123.861 743.679 120.311 744.186 118.156 744.503C114.417 745.073 112.769 745.39 103.262 747.163C101.233 747.48 97.7475 748.051 95.4658 748.367C93.1841 748.621 89.1913 749.254 86.5927 749.634C80.2548 750.647 72.9027 751.534 69.7968 751.724C67.7055 751.851 67.198 751.598 66.5009 750.268C65.2968 747.861 65.4231 743.553 66.8173 742.983C67.9582 742.476 71.698 741.779 79.3037 740.766C90.9023 739.119 95.1488 738.422 103.071 736.902C104.973 736.585 108.396 736.015 110.678 735.698C117.396 734.748 122.847 733.861 126.206 733.101C127.981 732.721 130.959 732.215 132.86 731.961ZM87.9589 493.08C89.211 492.168 91.3315 492.525 102.529 494.359C111.258 495.844 128.236 499.508 138.499 502.182C140.111 502.636 142.562 503.263 144.656 503.799C145.303 503.965 145.917 504.121 146.46 504.261C148.666 504.756 152.119 505.647 154.134 506.241C156.052 506.737 159.026 507.43 160.561 507.727C162.191 508.123 164.301 508.717 165.356 509.212C166.411 509.707 168.809 510.301 170.632 510.697C172.454 510.995 175.428 511.49 177.154 511.886C178.881 512.183 180.512 512.778 180.8 513.273C181.088 513.768 182.431 514.163 183.869 514.163C185.308 514.163 188.857 515.055 191.734 516.144C194.612 517.233 198.161 518.124 199.6 518.124C201.038 518.124 202.381 518.521 202.669 519.016C202.957 519.511 204.588 520.105 206.314 520.402C208.041 520.699 211.206 521.392 213.316 521.987C214.371 522.234 215.763 522.605 217.153 522.977C218.544 523.348 219.935 523.719 220.99 523.967C223.1 524.561 226.553 525.452 228.663 525.947C230.52 526.47 233.567 527.223 235.905 527.801C236.224 527.88 236.529 527.955 236.816 528.027C237.842 528.281 239.097 528.607 240.361 528.937C242.052 529.377 243.762 529.822 244.97 530.106C247.08 530.7 250.245 531.394 251.972 531.691C253.698 531.988 255.329 532.581 255.617 533.076C255.887 533.541 257.168 533.918 258.592 533.963L259.164 533.973C260.588 534.018 261.87 534.395 262.14 534.86C262.428 535.355 264.346 535.948 266.264 536.245C268.278 536.542 271.635 537.235 273.745 537.829C274.468 537.999 275.304 538.204 276.152 538.411C277.779 538.809 279.451 539.219 280.46 539.414C282.091 539.81 284.201 540.404 285.256 540.9C286.311 541.395 288.517 541.989 290.052 542.385C291.682 542.682 294.465 543.375 296.287 543.87C304.056 545.95 308.469 547.039 311.442 547.534C313.169 547.831 314.799 548.425 315.087 548.92C315.375 549.415 316.814 549.812 318.349 549.812C319.883 549.812 321.417 550.208 321.705 550.802C321.993 551.297 323.24 551.792 324.295 551.792C325.446 551.792 327.653 552.188 329.283 552.782C332.065 553.674 339.451 555.654 348.562 557.832C364.197 561.694 371.583 563.774 373.214 564.764C374.173 565.259 376.188 565.655 377.723 565.655C379.353 565.655 380.792 566.051 381.08 566.546C381.368 567.041 382.998 567.636 384.725 567.933C386.451 568.23 389.808 569.021 392.206 569.615C394.604 570.21 398.154 571.002 400.168 571.299C402.086 571.596 404.004 572.191 404.292 572.686C404.58 573.181 405.731 573.576 406.786 573.576C407.937 573.576 410.144 573.973 411.774 574.468C413.405 574.963 416.474 575.855 418.584 576.35C425.97 578.231 431.054 579.716 432.973 580.508C434.891 581.399 438.536 582.093 445.25 583.182C447.168 583.479 449.087 584.073 449.375 584.569C449.663 585.063 451.293 585.459 453.115 585.459C454.938 585.459 456.569 585.856 456.856 586.351C457.145 586.846 459.062 587.439 460.98 587.737C462.995 588.034 466.544 588.826 468.942 589.42C471.34 590.014 474.697 590.807 476.424 591.104C478.15 591.401 479.781 591.995 480.068 592.49C480.356 592.985 481.987 593.381 483.81 593.381C485.632 593.381 487.359 593.777 487.646 594.371C487.934 594.866 489.469 595.362 491.004 595.362C492.538 595.362 493.977 595.758 494.265 596.253C494.553 596.748 496.184 597.342 497.91 597.639C499.637 597.936 502.994 598.728 505.392 599.322C510.772 600.711 514.871 601.739 518.279 602.594C519.246 602.836 520.157 603.065 521.026 603.283C522.146 603.63 523.756 604.045 525.322 604.447C526.439 604.735 527.534 605.017 528.412 605.264C530.522 605.759 533.88 606.65 535.894 607.244C537.813 607.74 541.362 608.631 543.76 609.225C544.788 609.48 546.028 609.789 547.268 610.098C548.919 610.51 550.57 610.922 551.721 611.205C553.639 611.799 557.092 612.691 559.394 613.186C560.284 613.425 561.392 613.713 562.535 614.01C564.228 614.45 566 614.91 567.26 615.265C569.37 615.76 572.823 616.651 574.934 617.245C576.19 617.54 577.89 617.975 579.484 618.384C580.567 618.661 581.601 618.927 582.415 619.127C584.333 619.721 587.787 620.612 590.089 621.108C591.034 621.362 592.191 621.672 593.348 621.981C594.89 622.393 596.433 622.805 597.475 623.088C605.244 625.168 609.656 626.257 612.63 626.752C614.356 627.049 615.986 627.643 616.274 628.138C616.562 628.633 618.193 629.029 620.016 629.029C621.838 629.029 623.469 629.425 623.757 629.92C624.045 630.415 625.962 631.01 627.881 631.307C631.238 631.802 633.636 632.396 643.804 634.971C644.847 635.294 646.287 635.675 647.708 636.052C648.9 636.368 650.079 636.68 650.998 636.951C651.436 637.065 651.95 637.198 652.507 637.343C654.386 637.833 656.756 638.45 658.384 638.832C660.494 639.426 663.947 640.318 666.058 640.813C667.669 641.266 670.12 641.894 672.214 642.43C672.861 642.596 673.475 642.752 674.018 642.893C675.632 643.255 678.016 643.882 680.08 644.425C680.838 644.624 681.554 644.812 682.172 644.972C684.378 645.566 687.639 646.259 689.365 646.556C691.092 646.853 692.723 647.447 693.011 647.943C693.299 648.438 694.929 648.833 696.751 648.833C698.573 648.833 700.299 649.23 700.588 649.823C700.876 650.318 702.314 650.814 703.657 650.814C705.096 650.814 707.687 651.21 709.413 651.804C710.276 652.051 711.427 652.399 712.578 652.745C713.729 653.092 714.88 653.438 715.743 653.686C717.374 654.082 720.539 654.973 722.649 655.568C732.241 658.34 739.243 660.023 742.601 660.419C744.519 660.716 746.438 661.311 746.726 661.806C747.014 662.301 748.645 662.696 750.467 662.696C752.289 662.697 753.919 663.093 754.207 663.588C754.495 664.083 756.126 664.677 757.852 664.974C760.73 665.469 762.744 665.964 772.815 668.638C774.734 669.133 778.284 670.024 780.682 670.618C787.588 672.302 791.424 673.391 795.549 674.579C799.098 675.669 802.551 676.461 809.936 678.045C811.567 678.441 813.677 679.035 814.732 679.53C816.651 680.422 820.2 681.115 827.011 682.204C828.929 682.501 830.846 683.095 831.135 683.59C831.422 684.085 833.053 684.482 834.876 684.482C836.698 684.482 838.328 684.878 838.616 685.373C838.904 685.868 840.535 686.462 842.262 686.759C843.988 687.155 846.962 687.65 848.784 687.947C850.607 688.344 853.004 688.938 854.06 689.433C855.115 689.928 857.321 690.522 858.855 690.918C860.486 691.215 863.46 691.908 865.57 692.502C869.503 693.492 874.778 694.78 879.958 695.869C881.589 696.265 883.699 696.859 884.754 697.255C888.015 698.641 893.195 700.127 896.84 700.721L883.795 743.598C877.848 742.41 875.066 741.716 873.243 740.924C872.188 740.429 870.078 739.835 868.447 739.439C864.802 738.646 859.91 737.359 855.018 735.973C852.908 735.28 849.743 734.587 848.017 734.29C846.29 733.993 844.66 733.399 844.372 732.904C844.084 732.408 842.645 732.012 841.11 732.012C839.576 732.012 838.041 731.517 837.753 731.022C837.464 730.428 835.739 730.031 833.917 730.031C832.095 730.031 830.464 729.636 830.176 729.141C829.888 728.646 827.969 728.051 826.051 727.754C824.036 727.457 820.679 726.764 818.569 726.07L818.282 725.99C816.213 725.408 813.618 724.676 812.335 724.487C810.992 724.189 809.074 723.595 808.018 723.1C806.963 722.605 804.853 722.011 803.223 721.614C801.688 721.317 798.714 720.625 796.796 720.13C786.82 717.456 784.805 716.961 781.832 716.466C780.105 716.169 778.475 715.574 778.187 715.079C777.9 714.584 776.46 714.189 774.926 714.189C773.391 714.189 771.953 713.792 771.665 713.297C771.377 712.802 769.458 712.109 767.54 711.812C758.811 710.227 757.66 709.93 757.085 709.138C756.797 708.643 755.166 708.247 753.344 708.247C751.521 708.247 749.795 707.752 749.507 707.257C749.219 706.663 747.493 706.267 745.671 706.267C743.849 706.267 742.122 705.772 741.834 705.277C741.546 704.682 740.011 704.286 738.477 704.286C736.942 704.286 735.407 703.791 735.119 703.296C734.831 702.702 733.105 702.306 731.282 702.306C729.46 702.306 727.83 701.909 727.542 701.414C727.254 700.919 725.623 700.326 723.896 700.029C718.717 699.137 715.072 698.246 713.058 697.355C712.003 696.86 709.989 696.265 708.55 695.968C707.7 695.803 706.614 695.548 705.57 695.302C704.73 695.104 703.916 694.912 703.274 694.779C701.74 694.482 699.725 693.889 698.67 693.394C697.615 692.899 695.505 692.305 693.874 691.908C689.558 691.017 678.718 688.146 672.771 686.462L672.484 686.381C670.415 685.798 667.82 685.067 666.537 684.878C665.194 684.581 663.276 683.987 662.221 683.491C661.166 682.996 659.055 682.402 657.425 682.006C655.89 681.709 653.012 681.016 651.189 680.521C649.367 680.026 646.586 679.332 644.955 679.035C643.42 678.639 641.214 678.045 640.159 677.55C639.104 677.055 637.186 676.46 635.843 676.163C634.56 675.974 631.964 675.243 629.894 674.66L629.607 674.579C624.524 673.094 619.728 671.807 616.179 671.113C614.644 670.717 612.438 670.123 611.383 669.628C610.328 669.133 608.314 668.539 606.875 668.242C606.025 668.078 604.939 667.822 603.895 667.576C603.055 667.378 602.241 667.186 601.599 667.054C600.064 666.757 598.05 666.162 596.995 665.667C594.981 664.776 591.336 663.885 586.156 662.993C584.43 662.696 582.798 662.103 582.511 661.608C582.223 661.113 580.785 660.716 579.25 660.716C577.715 660.716 576.276 660.32 575.988 659.825C575.701 659.33 574.07 658.736 572.344 658.439C570.617 658.142 567.452 657.449 565.342 656.855C564.627 656.687 563.814 656.485 562.987 656.28C561.372 655.88 559.706 655.466 558.627 655.27C557.092 654.874 554.886 654.279 553.831 653.784C552.776 653.289 550.762 652.696 549.323 652.399C548.473 652.234 547.387 651.978 546.344 651.733C545.503 651.535 544.689 651.343 544.047 651.21C542.512 650.913 540.498 650.318 539.443 649.823C538.388 649.328 536.278 648.734 534.647 648.338C533.113 648.041 530.714 647.546 529.371 647.249C528.028 646.952 526.11 646.358 525.055 645.862C523.999 645.466 521.218 644.575 518.82 643.882C516.422 643.288 513.161 642.298 511.53 641.803C509.9 641.308 507.694 640.912 506.543 640.912C505.488 640.912 504.241 640.417 503.953 639.922C503.665 639.328 502.13 638.932 500.5 638.932C498.965 638.932 496.95 638.535 495.991 638.04C495.128 637.545 492.443 636.654 490.045 635.961C487.647 635.268 484.768 634.376 483.521 633.881C482.275 633.386 480.261 632.99 478.918 632.99C477.671 632.99 475.849 632.594 474.89 632.099C474.026 631.604 471.34 630.713 468.942 630.02C466.544 629.426 463.283 628.435 461.652 627.94C460.022 627.445 457.815 627.049 456.664 627.049C455.609 627.049 454.362 626.554 454.074 626.059C453.786 625.465 452.252 625.069 450.621 625.069C449.086 625.068 447.072 624.672 446.113 624.177C443.332 622.791 437.769 621.108 435.562 621.108C434.508 621.108 433.261 620.612 432.973 620.117C432.685 619.523 431.15 619.127 429.615 619.127C428.081 619.127 426.546 618.632 426.258 618.137C425.97 617.543 424.627 617.147 423.38 617.147C422.133 617.147 420.119 616.75 418.872 616.255C417.625 615.76 414.939 614.869 412.829 614.374C402.853 611.701 400.263 610.909 398.728 610.116C397.769 609.621 395.755 609.225 394.221 609.225C392.59 609.225 391.055 608.73 390.768 608.235C390.48 607.64 388.945 607.244 387.41 607.244C385.876 607.244 384.342 606.749 384.054 606.254C383.766 605.66 382.231 605.264 380.696 605.264C379.162 605.264 377.627 604.769 377.339 604.274C377.051 603.68 375.324 603.283 373.502 603.283C371.68 603.283 369.953 602.788 369.665 602.293C369.377 601.699 367.842 601.303 366.212 601.303C364.677 601.303 362.663 600.906 361.704 600.411C360.169 599.619 357.579 598.827 347.603 596.154C345.493 595.658 342.807 594.768 341.561 594.273C340.314 593.778 338.3 593.381 337.053 593.381C335.806 593.381 334.463 592.886 334.175 592.391C333.887 591.797 332.16 591.401 330.338 591.401C328.516 591.401 326.886 591.005 326.598 590.51C326.31 590.015 324.679 589.42 322.952 589.123C321.225 588.826 318.06 588.133 315.95 587.44C313.84 586.846 310.578 585.954 308.756 585.459C307.845 585.212 306.574 584.865 305.268 584.506L297.857 582.451L290.879 580.545C289.572 580.186 288.23 579.815 287.175 579.518L286.887 579.437C284.818 578.854 282.222 578.123 280.939 577.934C279.764 577.674 278.149 577.186 277.057 576.737L276.189 576.358C275.097 575.908 273.481 575.421 272.307 575.161C271.024 574.972 268.428 574.24 266.359 573.657L266.072 573.576L265.784 573.495C263.715 572.912 261.12 572.182 259.837 571.992C258.494 571.695 256.576 571.101 255.52 570.606C254.465 570.111 252.547 569.517 251.204 569.22C249.921 569.031 247.327 568.299 245.258 567.716L244.97 567.635C239.886 566.15 235.09 564.863 231.541 564.17C230.006 563.774 227.8 563.18 226.745 562.685C225.69 562.19 223.58 561.596 221.949 561.199C218.304 560.407 213.412 559.12 208.52 557.734C206.41 557.04 203.244 556.347 201.518 556.05C199.791 555.753 198.161 555.158 197.873 554.663C197.585 554.168 196.147 553.773 194.612 553.773C193.078 553.773 191.543 553.277 191.255 552.782C190.967 552.188 189.432 551.792 187.897 551.792C186.363 551.792 184.828 551.297 184.54 550.802C184.252 550.208 182.717 549.812 181.183 549.812C179.648 549.812 178.114 549.316 177.826 548.821C177.538 548.227 176.003 547.831 174.469 547.831C172.934 547.831 171.399 547.336 171.111 546.841C170.824 546.247 169.097 545.851 167.274 545.851C165.452 545.851 163.822 545.454 163.534 544.959C163.246 544.464 161.615 543.87 159.889 543.573C158.162 543.276 154.901 542.583 152.695 541.988C151.863 541.774 150.868 541.508 149.837 541.232C148.015 540.744 146.081 540.226 144.733 539.909C142.623 539.315 139.17 538.424 137.06 537.929C136.181 537.682 135.087 537.4 133.97 537.112C132.404 536.71 130.793 536.295 129.674 535.948C127.659 535.453 124.782 534.76 123.151 534.463C121.617 534.067 119.41 533.473 118.355 532.978C117.3 532.483 115.19 531.888 113.56 531.492C112.025 531.195 109.051 530.502 107.133 530.007C105.65 529.57 103.492 529.025 101.691 528.57C101.046 528.408 100.446 528.256 99.9394 528.125C98.4504 527.759 96.2269 527.123 94.3164 526.576C93.6425 526.383 93.0072 526.201 92.457 526.046L92.1689 525.965C90.1 525.382 87.5052 524.651 86.2226 524.462C80.8511 523.274 79.3168 521.887 79.9882 518.619C80.276 517.035 80.7552 514.064 81.0429 512.183C81.3307 510.301 81.9063 507.826 82.29 506.737C82.7696 505.647 83.729 502.775 84.4004 500.3C85.0718 497.825 86.3186 495.052 87.0859 493.963C87.4036 493.597 87.656 493.301 87.9589 493.08ZM92.7412 715.428C95.8467 715.428 96.6702 716.442 95.5927 718.849C94.959 720.242 94.5154 720.369 87.1005 720.686C82.7906 720.876 75.5009 721.256 70.9375 721.509C63.5231 721.889 62.5083 721.763 62.1279 720.876C61.1138 718.279 63.2053 717.835 80.6982 716.758C85.325 716.505 89.3186 716.125 89.5088 715.871C89.763 715.618 91.2206 715.428 92.7412 715.428ZM73.5361 695.601C94.642 695.284 94.5149 695.284 94.705 696.741C95.0219 699.592 94.1343 699.908 85.5146 699.908C81.078 699.845 73.4729 699.719 68.5927 699.592C59.5927 699.275 58.198 698.832 59.9726 696.741C60.6064 695.981 63.2683 695.791 73.5361 695.601ZM59.5927 672.671C59.8467 671.911 62.6369 671.785 76.833 671.911C94.5795 672.101 95.0231 672.165 93.5654 674.889C92.8683 676.155 92.4867 676.155 76.2627 676.029C60.8614 675.839 59.6569 675.775 59.4668 674.698C59.34 674.065 59.4026 673.115 59.5927 672.671ZM59.3398 648.156C59.3398 646.89 59.53 646.89 68.4033 647.27C85.9576 648.093 93.2467 648.6 94.0722 649.107C95.2131 649.867 95.0234 651.958 93.7558 652.591C93.122 652.908 91.7912 653.098 90.7138 653.034C89.6997 652.971 84.2484 652.527 78.6709 652.147C66.2489 651.197 61.1785 650.627 60.164 649.993C59.7204 649.677 59.3398 648.917 59.3398 648.156ZM61.4296 621.109C62.1903 620.222 67.388 620.285 85.6416 621.615C90.9021 621.995 99.458 622.629 104.655 622.945C115.684 623.706 125.825 624.656 129.185 625.226C132.67 625.796 133.114 626.683 132.227 630.863C131.339 635.171 130.198 635.931 125.635 635.298C119.487 634.475 108.268 633.271 92.9296 631.814C89.634 631.497 84.374 630.927 81.205 630.547C78.0995 630.167 73.0922 629.723 70.1132 629.533C67.1345 629.343 64.4724 628.9 64.1552 628.583C63.775 628.267 63.0145 628.013 62.3808 628.013C60.1625 628.013 59.5916 623.516 61.4296 621.109ZM63.5195 596.912C63.9632 596.152 67.8297 596.342 79.9355 597.609C83.1046 597.925 88.0483 598.369 90.9638 598.622C98.9497 599.256 102.308 601.029 99.583 603.31C99.0124 603.816 97.7451 603.943 95.9707 603.69C92.4847 603.12 85.4492 602.296 77.083 601.473C65.675 600.333 64.4071 600.079 63.7099 598.749C63.3931 598.116 63.2661 597.292 63.5195 596.912ZM66.8193 574.678C67.0728 573.538 67.5169 573.411 71.3193 573.791C73.6009 573.981 77.3403 574.425 79.622 574.741C88.3052 576.072 93.3763 576.769 96.8623 577.149C101.172 577.529 102.313 578.542 101.235 580.886C100.665 582.216 100.221 582.469 99.08 582.153C95.467 581.076 85.5796 579.619 76.4531 578.859C74.1715 578.669 72.0796 578.225 71.7627 577.908C71.382 577.592 70.3684 577.339 69.4814 577.339C67.3898 577.339 66.3756 576.325 66.8193 574.678ZM71.5088 551.684C72.3326 551.177 73.4099 550.924 73.917 551.113C75.5015 551.81 79.7482 552.697 83.1074 553.014C84.882 553.204 87.2909 553.584 88.4951 553.901C89.6995 554.154 92.7411 554.725 95.1494 555.168C101.741 556.182 104.277 557.069 104.721 558.526C105.227 560.172 103.896 560.995 101.171 560.615C98.2553 560.172 92.2975 559.159 87.5439 558.335C85.4523 557.955 82.4732 557.512 80.8886 557.321C79.3044 557.131 77.7839 556.688 77.4668 556.371C77.0865 556.055 76.0717 555.801 75.0576 555.801C72.8393 555.801 70.1142 554.534 70.1142 553.521C70.1145 553.077 70.7483 552.254 71.5088 551.684ZM75.373 528.626C75.8167 528.183 76.768 527.993 77.7187 528.246C80.5709 528.943 84.9444 529.83 88.8105 530.463C90.9021 530.843 94.071 531.414 95.7822 531.667C97.5569 531.984 100.79 532.554 103.008 532.934C107.634 533.631 109.472 534.961 108.394 536.671C107.57 537.938 103.197 538.002 98.6338 536.798C95.8451 536.101 92.8024 535.531 85.0068 534.327C75.9436 532.87 72.9012 531.097 75.373 528.626ZM241.812 440.452C244.601 439.059 252.778 438.806 253.792 440.072C254.299 440.646 254.489 452.175 254.553 477.065C254.553 510.067 254.489 513.234 253.538 514.058C252.017 515.325 239.341 515.325 237.883 514.058C236.932 513.298 236.806 510.763 236.806 488.91C236.806 471.681 236.615 464.586 236.108 464.586C235.728 464.586 233.827 465.473 231.862 466.55C219.82 473.264 218.298 473.644 216.523 470.604C215.953 469.527 215.256 467.816 215.065 466.803C214.875 465.726 214.368 463.509 213.988 461.799C213.164 458.442 213.798 456.162 215.826 455.465C216.397 455.338 218.869 454.008 221.277 452.614C223.749 451.221 227.235 449.32 229.073 448.37C230.847 447.484 232.368 446.471 232.369 446.154C232.369 445.837 232.686 445.583 233.066 445.583C233.447 445.583 235.031 444.696 236.679 443.556C238.263 442.479 240.608 441.022 241.812 440.452ZM93.0566 470.033C93.8171 469.463 95.0215 469.337 96.8593 469.717C98.3804 469.97 100.726 470.35 102.12 470.604C103.514 470.857 105.225 471.237 105.923 471.554C107.19 472.061 109.409 472.567 113.846 473.2C115.05 473.39 116.635 473.771 117.332 474.088C118.029 474.405 119.296 474.785 120.184 474.975C125.317 476.052 126.205 476.431 126.395 477.571C126.649 479.852 125.761 480.422 123.036 479.725C117.015 478.205 115.24 477.762 112.262 477.255C110.55 477.002 107.825 476.305 106.24 475.735C104.656 475.164 102.5 474.721 101.359 474.721C100.282 474.721 99.1417 474.405 98.9511 474.088C98.761 473.708 97.6203 473.454 96.4795 473.454C95.1485 473.454 93.9441 472.948 93.1836 472.124C92.0427 470.857 92.0425 470.73 93.0566 470.033ZM99.7129 447.926C100.221 447.419 105.481 447.927 108.967 448.75C110.234 449.13 112.39 449.637 113.721 449.953C118.411 451.093 121.77 452.043 123.228 452.613C124.051 452.93 125.065 453.184 125.572 453.184C126.079 453.184 128.045 453.881 129.946 454.768C132.798 456.034 133.305 456.542 133.052 457.618C132.608 459.265 131.657 459.835 130.769 458.948C130.389 458.568 129.439 458.251 128.679 458.251C127.855 458.251 127.093 457.998 126.903 457.681C126.712 457.364 125.635 456.984 124.495 456.794C123.354 456.604 121.199 456.161 119.741 455.781C118.22 455.401 115.938 454.831 114.671 454.514C100.537 451.03 97.748 449.826 99.7129 447.926ZM106.432 425.63C106.812 424.743 107.382 424.616 109.601 424.996C111.058 425.25 112.516 425.693 112.896 426.01C113.213 426.327 114.037 426.58 114.798 426.58C116.953 426.644 139.834 434.561 140.975 435.701C141.925 436.588 141.925 436.842 141.038 437.665C140.151 438.552 139.77 438.552 136.918 437.602C135.207 437.032 133.305 436.271 132.734 436.018C132.101 435.701 131.087 435.448 130.453 435.448C129.883 435.448 127.791 434.878 125.89 434.181C123.988 433.484 121.897 432.914 121.326 432.914C120.692 432.914 119.551 432.598 118.728 432.154C115.685 430.571 115.051 430.38 113.594 430.38C112.707 430.38 111.819 430.064 111.629 429.747C111.439 429.367 110.741 429.113 110.171 429.113C108.333 429.05 105.988 426.897 106.432 425.63ZM127.094 377.298C129.756 378.502 139.961 383.569 165.186 396.111C186.798 406.879 195.355 411.377 195.481 412.2C195.735 413.594 191.87 419.611 190.665 419.612C189.968 419.612 183.63 416.508 182.933 415.811C182.616 415.494 180.333 414.354 177.227 413.087C176.34 412.707 175.199 412.073 174.692 411.63C174.184 411.25 171.016 409.476 167.721 407.829C164.426 406.12 161.575 404.6 161.383 404.409C160.939 403.966 156.122 401.368 150.291 398.454C147.502 396.998 145.094 395.731 144.903 395.541C144.586 395.224 139.072 392.247 131.467 388.383C128.805 386.99 126.017 385.343 125.256 384.646C123.608 383.125 123.607 380.971 125.318 378.818C126.079 377.867 126.84 377.171 127.094 377.298ZM115.874 403.777C117.205 403.777 124.747 406.057 126.648 407.007C127.282 407.324 128.107 407.577 128.424 407.577C128.805 407.578 130.326 408.147 131.72 408.844C133.177 409.541 134.761 410.11 135.205 410.111C135.649 410.111 136.536 410.364 137.17 410.681C137.74 410.998 139.135 411.568 140.149 412.011C145.283 414.101 147.755 415.685 147.755 416.825C147.755 417.839 147.311 418.028 145.283 417.902C143.889 417.775 142.495 417.458 142.114 417.078C141.797 416.762 141.036 416.445 140.466 416.445C139.895 416.445 138.248 415.875 136.79 415.178C135.396 414.481 133.875 413.912 133.494 413.911C133.177 413.911 132.353 413.658 131.72 413.341C130.579 412.771 128.043 411.694 125.255 410.554C124.368 410.237 123.163 409.731 122.593 409.414C121.959 409.098 120.881 408.844 120.247 408.844C119.55 408.844 118.79 408.527 118.6 408.21C118.409 407.83 117.712 407.577 117.078 407.577C115.684 407.577 113.593 405.36 114.163 404.473C114.353 404.093 115.114 403.777 115.874 403.777ZM136.853 357.914C137.297 356.775 139.262 356.584 140.973 357.471C141.543 357.788 142.747 358.295 143.635 358.675C144.522 358.992 146.55 359.878 148.262 360.638C149.91 361.335 152.572 362.602 154.283 363.299C155.931 364.059 158.973 365.453 161.001 366.466C163.029 367.48 164.994 368.303 165.248 368.303C166.389 368.303 169.621 371.723 169.621 372.863C169.621 374.447 168.48 374.13 161.255 370.9C154.917 368.113 152.762 367.163 150.29 366.086C146.36 364.376 137.677 360.005 137.043 359.435C136.726 359.118 136.663 358.421 136.853 357.914ZM147.057 337.392C147.627 336.505 149.592 336.379 151.113 337.202C151.684 337.519 153.331 338.279 154.726 338.912C156.12 339.482 159.797 341.256 162.902 342.777C166.008 344.233 168.924 345.5 169.367 345.5C169.874 345.5 170.254 345.754 170.254 346.134C170.254 346.451 170.635 346.767 171.078 346.767C172.092 346.767 177.353 349.364 178.811 350.568C179.951 351.518 180.078 353.672 179.001 354.052C178.557 354.242 175.895 353.228 173.17 351.834C170.445 350.441 167.783 349.301 167.339 349.301C166.832 349.301 166.451 348.984 166.451 348.667C166.451 348.287 166.071 348.033 165.627 348.033C165.119 348.033 161.95 346.576 158.528 344.866C155.106 343.093 152 341.699 151.62 341.699C150.289 341.699 146.55 338.152 147.057 337.392ZM157.515 315.538C158.212 314.651 161.064 314.778 162.332 315.728C162.713 315.981 165.691 317.629 168.986 319.339C172.282 321.113 176.338 323.266 178.05 324.153C179.698 325.103 182.36 326.623 184.071 327.51C188.952 330.17 191.043 332.704 189.332 333.718C188.758 334.096 169.683 324.659 163.409 320.922C161.571 319.782 159.86 318.895 159.543 318.895C159.289 318.895 158.528 318.325 157.894 317.628C157.008 316.678 156.944 316.172 157.515 315.538ZM181.664 273.224C181.665 272.148 184.073 272.655 185.911 274.112C186.864 274.936 194.278 280.002 202.263 285.322C210.312 290.643 218.679 296.408 220.961 298.055C223.243 299.765 226.031 301.793 227.172 302.553C232.622 306.353 233.89 307.303 236.172 309.203C237.439 310.344 238.707 311.294 238.961 311.294C239.151 311.294 240.165 312.054 241.242 312.941L243.081 314.652L240.482 317.375C239.025 318.895 237.376 320.162 236.806 320.162C236.298 320.162 233.319 318.134 230.277 315.728C227.235 313.257 224.573 311.294 224.383 311.294C224.129 311.293 223.051 310.534 221.911 309.521C220.77 308.571 217.031 305.783 213.672 303.376C210.249 300.906 206.257 297.992 204.735 296.852C203.214 295.775 201.63 294.825 201.312 294.824C200.932 294.824 200.679 294.634 200.679 294.318C200.678 294.064 199.347 292.924 197.699 291.784C188.129 285.26 182.615 281.333 180.587 279.622C178.242 277.595 178.305 277.405 180.903 274.681C181.284 274.237 181.664 273.541 181.664 273.224ZM169.813 294.192C170.701 294.192 174.694 296.155 177.546 297.929C178.94 298.816 180.652 299.893 181.35 300.336C182.048 300.78 185.279 302.743 188.574 304.77C191.87 306.797 195.293 308.887 196.181 309.394C201.124 312.181 203.215 315.095 200.363 315.095C199.412 315.094 193.202 311.864 190.413 309.901C189.526 309.267 188.322 308.761 187.751 308.761C187.181 308.761 186.737 308.571 186.736 308.254C186.736 308.001 185.406 307.114 183.758 306.227C182.046 305.403 180.589 304.453 180.398 304.199C180.208 303.946 179.321 303.376 178.497 302.933C177.61 302.489 175.011 300.843 172.666 299.322C168.673 296.789 167.722 295.648 168.8 294.635C168.99 294.382 169.497 294.192 169.813 294.192ZM404.132 200.442C405.338 199.682 422.132 199.618 424.667 200.378C425.744 200.695 427.9 201.328 429.484 201.772C436.393 203.799 443.745 209.753 446.28 215.391C446.851 216.721 447.674 218.559 448.055 219.382C448.942 221.221 448.942 234.141 448.055 236.041C444.886 242.946 443.935 244.276 438.421 249.66C435.188 252.891 432.146 255.551 431.702 255.551C431.322 255.551 430.434 256.121 429.801 256.818C429.167 257.514 428.407 258.085 428.09 258.085C427.773 258.085 424.54 260.048 420.864 262.519C417.254 264.924 414.151 266.949 413.956 266.952C413.322 266.952 407.301 271.07 407.301 271.514C407.301 272.147 408.255 272.147 432.272 272.083C445.709 272.083 452.175 272.274 452.745 272.717C453.949 273.731 453.886 286.78 452.682 287.793C452.111 288.3 441.78 288.427 415.477 288.363L379.096 288.173L378.906 281.776C378.779 276.075 378.906 275.251 380.11 273.667C381.442 271.957 396.268 260.622 397.159 260.618C397.413 260.618 398.11 260.048 398.744 259.352C399.378 258.655 400.138 258.086 400.392 258.085C400.708 258.085 402.166 257.198 403.624 256.185C405.145 255.108 408.378 252.89 410.786 251.18C415.793 247.696 422.385 242.059 423.779 240.095C424.286 239.335 425.047 238.385 425.491 237.942C428.47 234.901 429.231 225.526 426.886 221.345C424.731 217.544 419.407 215.011 413.322 215.011C410.28 215.011 407.681 215.707 403.878 217.544C402.293 218.368 397.793 224.322 397.793 225.716C397.793 225.97 397.35 227.173 396.779 228.249C395.638 230.466 395.702 230.467 389.871 229.01C388.477 228.63 386.512 228.186 385.435 227.996C384.42 227.743 382.962 227.363 382.265 227.046C381.567 226.793 380.49 226.349 379.92 226.159C378.652 225.779 378.335 222.738 379.35 220.838C379.667 220.268 380.427 218.495 381.061 216.975C383.215 211.717 389.363 205.763 395.194 203.229C396.462 202.659 397.983 201.963 398.554 201.646C399.187 201.329 400.456 201.075 401.406 201.075C402.42 201.075 403.625 200.758 404.132 200.442ZM195.545 254.03C196.432 252.954 196.559 253.018 204.291 258.845C206.446 260.555 208.411 261.885 208.538 261.885C208.729 261.885 210.186 262.836 211.834 263.912C213.418 265.052 215.193 266.256 215.764 266.636C216.778 267.269 219.123 269.17 222.418 272.083C223.622 273.097 224.129 273.984 223.876 274.49C222.989 275.947 219.123 274.237 215.003 270.564C214.306 269.994 213.418 269.487 213.038 269.487C212.594 269.487 211.77 268.917 211.137 268.22C210.503 267.523 208.538 266.066 206.764 264.989C202.898 262.709 196.306 257.578 195.418 256.058C194.911 255.298 194.974 254.727 195.545 254.03ZM208.41 234.775C209.234 233.951 209.172 233.887 215.51 238.701C218.235 240.855 221.404 243.263 222.608 244.15C226.284 246.936 229.453 249.47 231.101 250.99C231.988 251.814 233.446 252.954 234.46 253.525C236.361 254.665 236.615 255.805 235.221 257.198C234.207 258.275 232.939 257.578 227.488 253.018C226.03 251.814 223.368 249.66 221.594 248.267C219.756 246.873 217.093 244.719 215.572 243.516C214.051 242.312 211.643 240.348 210.249 239.208C207.524 237.055 207.143 236.041 208.41 234.775ZM265.137 177.005C265.707 177.005 268.18 178.905 270.715 181.249C273.187 183.656 279.461 189.42 284.658 194.108C289.855 198.795 296.131 204.56 298.603 206.84C301.011 209.12 305.637 213.301 308.743 216.088C311.912 218.875 317.237 224.07 320.659 227.554L326.934 233.951L325.666 235.725C323.384 238.829 315.588 246.05 314.511 246.05C313.304 246.047 287.827 221.219 279.081 211.528C275.912 208.044 271.475 203.166 269.193 200.759C266.848 198.289 263.996 194.931 262.792 193.284C261.588 191.574 259.623 189.04 258.419 187.71C256.01 184.923 255.884 185.24 261.081 180.046C262.729 178.399 264.566 177.006 265.137 177.005ZM223.75 217.609C225.271 215.899 225.525 215.962 227.362 217.925C228.186 218.875 231.165 221.409 233.954 223.626C242.827 230.657 249.99 236.865 250.37 237.689C251.574 240.476 247.264 239.272 243.081 235.725C241.75 234.648 238.771 232.114 236.426 230.214C234.081 228.314 230.848 225.59 229.264 224.196C227.616 222.803 225.461 221.029 224.447 220.269C222.609 218.939 222.546 218.939 223.75 217.609ZM238.516 200.062C239.213 198.225 241.369 199.303 246.756 204.18C249.798 206.967 255.629 212.034 259.622 215.454C266.911 221.725 267.988 223.373 265.833 224.703C265.009 225.273 264.185 224.892 261.841 222.929C260.193 221.599 258.227 219.888 257.467 219.192C256.769 218.431 253.03 215.074 249.164 211.591C240.544 203.863 238.072 201.202 238.516 200.062ZM283.645 160.535C284.659 161.232 286.433 163.006 287.574 164.527C288.715 165.983 291.124 168.77 292.898 170.67C294.673 172.57 296.701 174.914 297.398 175.801C298.032 176.751 300.377 179.539 302.596 182.009C304.75 184.478 306.524 186.758 306.525 187.013C306.525 187.33 306.145 188.09 305.638 188.724C304.814 189.864 304.56 189.737 301.392 186.253C299.554 184.29 297.336 181.692 296.448 180.552C294.103 177.638 288.462 171.177 284.089 166.489C280.603 162.689 280.412 162.309 281.046 160.789L281.807 159.205L283.645 160.535ZM702.341 85.7893C707.031 85.1559 722.43 85.663 723.192 86.423C723.573 86.8031 724.651 87.0568 725.602 87.0568C726.615 87.0569 727.883 87.3095 728.517 87.6262C729.087 87.9429 730.482 88.5763 731.496 89.0197C737.707 91.8069 743.665 97.1918 746.264 102.386C748.228 106.503 749.37 113.218 748.419 115.815C747.975 116.955 747.658 118.222 747.658 118.602C747.658 120.565 744.616 125.633 741.891 128.23C738.278 131.714 735.362 133.931 734.411 133.931C734.031 133.931 733.714 134.185 733.714 134.565C733.714 134.881 734.602 135.197 735.615 135.197C736.692 135.197 737.516 135.451 737.517 135.704C737.517 135.958 738.468 136.528 739.672 136.972C742.207 137.922 747.975 143.496 749.242 146.22C750.953 150.211 751.524 155.215 750.7 159.269C749.432 165.286 745.059 171.811 739.926 175.548C736.757 177.828 735.489 178.525 731.812 179.982C730.925 180.362 729.531 180.932 728.643 181.312C725.728 182.515 722.749 182.896 711.848 183.15C696.7 183.53 690.362 182.135 681.425 176.244C674.643 171.81 669.065 162.689 669.065 155.911C669.065 153.948 669.319 153.504 671.157 152.681C672.235 152.174 674.073 151.604 675.087 151.351C678.953 150.527 684.658 149.64 686.812 149.576C688.713 149.45 689.031 149.64 689.221 151.033C689.347 151.92 689.728 152.871 690.045 153.251C690.362 153.568 690.615 154.518 690.615 155.341C690.615 156.355 691.819 158.002 694.037 160.219C698.537 164.59 702.53 165.919 710.896 165.919C718.882 165.919 723.636 163.956 727.122 159.205C730.481 154.645 728.39 146.03 723.446 143.876C719.453 142.103 718.756 141.913 711.721 141.153C707.854 140.772 704.369 140.202 703.988 140.012C702.911 139.315 703.101 128.546 704.115 127.659C704.623 127.279 707.475 126.773 710.517 126.583C713.559 126.33 716.157 125.886 716.348 125.57C716.538 125.316 717.235 125.063 717.933 125.063C720.341 125.062 723.763 122.592 725.157 119.805C726.615 116.891 726.425 110.177 724.777 107.897C722.305 104.349 716.664 102.259 709.756 102.259C703.481 102.259 699.361 103.715 695.938 107.136C693.213 109.796 690.615 114.041 690.615 115.751C690.615 117.398 689.347 117.969 686.938 117.335C683.706 116.512 679.46 115.625 676.037 114.991C672.107 114.358 670.142 113.217 670.649 111.887C670.903 111.317 671.347 110.05 671.601 109.036C673.756 101.942 680.538 93.7712 686.812 90.7941C694.481 87.0569 695.622 86.6761 702.341 85.7893ZM299.744 144.699C300.378 144.7 304.434 149.07 305.575 151.033C306.209 152.11 309.568 156.165 314.132 161.422C316.477 164.146 319.138 167.63 321.61 171.24C323.005 173.204 323.005 173.458 322.055 174.407C321.104 175.358 320.85 175.231 318.695 172.824C317.428 171.431 315.083 168.643 313.498 166.616C311.913 164.589 309.505 161.612 308.047 160.029C306.652 158.382 303.673 154.645 301.519 151.794C298.349 147.55 297.716 146.283 298.35 145.586C298.73 145.079 299.364 144.699 299.744 144.699ZM355.963 100.992C356.153 100.992 357.611 102.893 359.132 105.237C361.54 108.847 366.23 115.372 368.829 118.792C369.273 119.299 369.907 120.185 370.224 120.755C370.857 121.705 376.751 130.066 379.097 133.297C379.794 134.311 382.837 138.745 385.879 143.242C393.673 154.642 395.322 157.051 395.956 157.241C396.273 157.368 396.526 157.748 396.526 158.128C396.526 158.445 397.16 159.649 397.921 160.662C399.252 162.563 399.252 162.626 398.048 163.449C397.414 163.893 396.527 164.59 396.083 164.97C395.639 165.287 395.132 165.603 394.879 165.603C394.689 165.603 393.738 166.174 392.724 166.87L391.013 168.073L389.491 166.363C387.59 164.147 385.119 160.727 385.118 160.282C385.118 159.966 378.527 149.577 377.069 147.487C376.562 146.853 375.675 145.396 373.71 141.785C373.013 140.645 371.745 138.492 370.73 136.972C369.78 135.452 368.005 132.221 366.737 129.814C365.47 127.343 363.632 123.922 362.618 122.212C359.766 117.145 355.076 107.833 354.252 105.489C353.555 103.589 353.617 103.146 354.505 102.132C355.075 101.499 355.709 100.992 355.963 100.992ZM317.49 130.764C318.505 130.765 321.611 134.566 331.561 147.866C333.652 150.654 336.44 154.391 337.771 156.038C340.307 159.332 340.687 160.789 339.166 161.422C338.152 161.802 336.315 161.295 336.314 160.599C336.314 160.409 335.68 159.522 334.856 158.635C334.096 157.748 332.955 156.355 332.321 155.468C330.8 153.314 328.328 150.02 324.778 145.396C323.067 143.242 321.737 141.279 321.736 140.962C321.736 140.709 321.102 139.949 320.405 139.252C319.645 138.619 318.187 136.845 317.173 135.324C315.652 133.107 315.462 132.411 316.032 131.714C316.476 131.207 317.11 130.764 317.49 130.764ZM333.588 116.258C334.221 115.941 335.045 115.878 335.489 116.068C336.313 116.574 339.482 121.072 339.482 121.832C339.482 122.086 339.989 122.846 340.623 123.542C341.193 124.239 342.018 125.252 342.335 125.822C343.539 127.786 349.814 136.781 350.194 137.098C350.384 137.288 350.891 137.858 351.208 138.491C351.588 139.061 353.046 141.279 354.567 143.369C357.229 147.233 357.229 147.296 355.835 147.803C355.011 148.12 354.06 148.184 353.68 148.057C352.982 147.803 350.131 143.875 344.427 135.261C343.096 133.297 341.828 131.397 341.511 131.017C340.179 129.496 332.511 117.841 332.511 117.398C332.511 117.144 333.018 116.638 333.588 116.258ZM458.131 47.2766C459.145 46.2631 460.222 46.3267 461.109 47.4035C461.87 48.2903 468.081 60.3259 475.434 75.0217C481.138 86.4867 481.455 87.1203 481.455 88.0705C481.455 88.577 481.772 88.9572 482.089 88.9572C482.469 88.9572 482.723 89.3369 482.723 89.717C482.723 90.1604 484.561 94.2148 486.779 98.7756C488.998 103.273 491.279 108.151 491.913 109.544C493.434 113.029 499.139 125.126 499.899 126.52C500.913 128.357 500.026 129.75 497.301 130.637C493.371 131.84 491.849 131.588 490.392 129.561C489.631 128.547 489.061 127.47 489.061 127.09C489.061 126.773 488.237 124.809 487.223 122.782C484.878 118.095 481.899 111.508 480.821 108.594C480.314 107.39 479.427 105.427 478.793 104.286C478.159 103.146 477.652 101.816 477.652 101.309C477.652 100.802 477.082 99.4085 476.385 98.1418C475.688 96.8749 475.117 95.6079 475.117 95.2912C475.117 94.911 474.483 93.2642 473.786 91.6174C470.427 84.1428 470.047 83.2557 470.047 82.6223C470.047 82.2421 469.793 81.4821 469.477 80.8488C469.16 80.2787 468.652 79.0755 468.271 78.1887C467.131 75.3382 465.483 71.5374 464.596 69.7004C464.089 68.6869 463.708 67.6099 463.708 67.2932C463.708 66.9762 463.138 65.5196 462.44 64.1262C461.743 62.6693 461.173 60.959 461.173 60.3889C461.173 59.7554 460.919 59.1219 460.666 58.9318C460.412 58.7415 459.778 57.1583 459.271 55.385C458.764 53.6113 458.13 52.0271 457.877 51.8371C457.117 51.3295 457.307 48.0999 458.131 47.2766ZM376.116 90.2873C377.637 89.3371 378.145 89.4637 378.589 90.6672C378.843 91.3009 379.793 93.0113 380.807 94.468C381.757 95.9246 382.581 97.2543 382.581 97.508C382.581 97.698 383.342 99.0288 384.293 100.549C385.244 102.006 386.638 104.349 387.398 105.742C389.617 109.923 391.582 113.408 394.561 118.222C397.159 122.529 397.223 122.782 396.145 123.606C394.624 124.746 393.927 124.429 392.532 121.832C391.835 120.629 391.075 119.552 390.758 119.488C390.441 119.362 390.188 118.982 390.187 118.602C390.187 118.285 389.617 117.145 388.856 116.131C387.589 114.294 384.229 108.53 380.68 101.943C379.729 100.169 378.081 97.2551 376.94 95.4182C374.659 91.5546 374.595 91.1739 376.116 90.2873ZM396.399 76.9211C396.653 76.9211 397.984 79.0113 399.315 81.4816C400.646 84.015 401.977 86.2325 402.167 86.423C402.547 86.7398 402.864 87.3731 408.695 98.4582C410.407 101.752 412.372 105.426 413.006 106.503C414.146 108.403 414.146 110.493 413.006 110.493C412.245 110.493 409.202 107.896 409.202 107.263C409.202 106.946 408.125 104.919 406.857 102.702C405.526 100.549 404.005 97.8877 403.498 96.8742C402.991 95.7974 402.104 94.2775 401.533 93.3908C400.519 91.8702 393.991 79.5179 393.991 79.1379C393.992 79.0103 394.435 78.4409 395.005 77.9348C395.512 77.3649 396.209 76.9214 396.399 76.9211ZM415.539 67.7365C417.314 65.5828 417.758 66.2799 426.251 83.2561C430.181 91.1106 433.666 97.7616 433.983 98.0783C434.617 98.7751 433.476 100.359 432.271 100.359C430.814 100.358 428.595 96.6201 421.561 82.4328C415.983 71.0944 414.905 68.4967 415.539 67.7365ZM437.026 56.0178C437.66 56.0178 439.624 58.1711 439.625 58.8049C439.625 59.1849 441.019 62.3523 442.73 65.8361C444.442 69.32 447.041 74.7041 448.499 77.8713C449.893 80.9751 451.668 84.6495 452.365 85.9797C453.76 88.83 453.886 89.8439 452.745 90.7307C451.161 92.0608 450.21 90.6036 441.02 71.2209C439.625 68.244 437.914 64.6967 437.28 63.3029C436.583 61.9094 435.632 60.1352 435.125 59.3117C434.301 57.9817 434.365 57.7279 435.442 56.9045C436.139 56.3981 436.836 56.0181 437.026 56.0178ZM569.557 11.0441C570.381 9.46053 571.838 9.39706 572.662 10.9807C573.359 12.2477 574.564 15.9213 575.894 20.5451C576.275 22.1287 576.909 23.9028 577.226 24.4728C577.542 25.1063 577.796 26.1832 577.796 26.8166C577.796 27.5132 578.113 28.2729 578.43 28.4631C578.81 28.6531 579.063 29.4138 579.063 30.1105C579.063 30.744 579.317 31.8209 579.634 32.4543C579.951 33.0245 580.521 34.7976 580.965 36.3811C581.408 37.9646 581.979 39.7387 582.296 40.3088C582.613 40.9422 582.866 42.1455 582.866 42.9689C582.866 43.8556 583.183 44.7425 583.5 44.9328C583.88 45.1228 584.134 45.8826 584.134 46.5793C584.134 47.2126 584.387 48.2895 584.704 48.923C584.942 49.3506 585.322 50.4559 585.685 51.6496L586.386 54.0519C586.748 55.2458 587.128 56.3509 587.366 56.7785C587.683 57.4119 587.936 58.3618 587.936 58.9318C587.937 59.8822 589.839 66.2797 591.106 69.6369C591.36 70.3337 591.93 72.1071 592.374 73.6271C593.135 76.6676 592.563 78.1887 590.535 78.1887C589.965 78.1888 589.141 78.505 588.761 78.885C588.38 79.265 587.05 79.455 585.719 79.3283C583.627 79.1383 583.31 78.8851 582.486 76.6047C582.043 75.2111 581.599 73.4371 581.599 72.6769C581.599 71.917 581.345 71.157 581.028 70.967C580.711 70.7767 580.331 69.51 580.141 68.2434C579.95 66.9131 579.444 64.3794 579.063 62.6691C577.606 56.2081 575.895 46.7694 575.451 43.3488C575.261 41.7654 574.88 40.2456 574.563 39.8654C574.247 39.5487 573.993 38.4717 573.993 37.4582C573.993 36.508 573.676 34.3542 573.359 32.7072C572.726 29.7935 572.345 28.0831 570.824 20.2287C570.444 18.1384 569.81 15.5408 569.493 14.4006C569.05 13.0073 569.05 11.9308 569.557 11.0441ZM480.379 39.2951C481.203 37.2048 482.597 38.4081 484.815 42.842C488.048 49.5564 490.076 54.1178 490.964 56.6516C491.407 57.855 492.168 59.8179 492.611 60.8947C495.083 66.659 495.654 67.9264 496.858 70.4602C497.746 72.3603 497.936 73.3741 497.492 73.8176C496.288 75.0211 494.513 73.8171 492.929 70.7766C489.507 63.7468 489.063 62.8592 489.062 62.2258C489.062 61.9091 488.238 59.8814 487.224 57.7277C486.21 55.5742 484.942 52.724 484.372 51.3937C483.802 50.1269 482.978 48.0994 482.471 46.9592C480.696 42.9689 479.999 40.3087 480.379 39.2951ZM690.107 -2.95489C691.438 -4.22168 712.415 -4.66578 713.179 -3.39922C713.812 -2.38577 713.495 68.1725 712.861 68.8762C712.608 69.1295 707.538 69.2569 701.643 69.1936L690.932 69.0031L690.488 64.5695C690.298 62.0991 689.854 46.1363 689.601 29.0969C689.22 1.6737 689.284 -2.06723 690.107 -2.95489ZM501.992 30.7434C502.753 29.5399 505.542 30.2374 505.542 31.5676C505.542 32.0115 506.113 33.5311 506.81 34.9875C507.507 36.3808 508.077 37.9011 508.077 38.2814C508.077 38.5982 508.394 39.5488 508.838 40.3723C510.359 43.3492 510.612 43.9827 510.612 44.9328C510.612 45.4395 510.866 46.3892 511.246 47.0227C511.563 47.5927 512.45 49.9367 513.211 52.217C513.971 54.4968 514.795 56.587 515.112 56.9045C515.429 57.2845 515.683 57.9181 515.683 58.3615C515.683 58.8049 516.316 60.5153 517.014 62.0988C518.281 64.6958 518.282 65.0763 517.394 65.9631C516.888 66.4698 516.126 66.7233 515.81 66.5334C515.176 66.1533 512.514 60.8323 511.246 57.6018C510.422 55.4481 509.218 52.5974 508.647 51.4572C508.331 50.824 508.077 50.0007 508.077 49.6838C508.077 49.3037 507.507 47.7834 506.81 46.3898C506.112 44.9331 505.542 43.2228 505.542 42.6525C505.542 42.0191 505.288 41.3221 504.908 41.132C504.591 40.942 504.274 40.1186 504.274 39.2951C504.274 38.535 504.021 37.6478 503.768 37.2678C502.817 36.2542 501.548 31.5035 501.992 30.7434ZM525.695 22.4455C526.646 22.4461 528.357 24.7265 528.357 25.9299C528.357 26.6266 528.611 27.5136 528.864 27.8303C529.181 28.2112 530.069 30.6176 530.829 33.2141C531.653 35.8112 532.54 38.4721 532.857 39.0422C533.174 39.6757 533.428 40.7526 533.428 41.3859C533.428 42.0826 533.745 42.8424 534.061 43.0324C534.442 43.2226 534.695 44.1095 534.695 44.9328C534.695 45.7563 535.012 46.6432 535.329 46.8332C535.709 47.0234 535.963 47.8468 535.963 48.6701C535.963 49.4302 536.153 50.3171 536.406 50.5705C537.103 51.2039 538.498 55.5747 538.498 57.0949C538.498 57.855 538.181 58.6782 537.801 58.8684C536.913 59.4385 534.695 57.3479 534.695 55.9543C534.695 55.3214 534.442 54.6887 534.188 54.4982C533.872 54.3082 532.984 52.0906 532.224 49.5568C531.4 47.0231 530.449 44.2356 530.068 43.3488C528.864 40.3719 528.484 39.2315 526.139 31.8205C524.174 25.7397 523.92 24.1558 524.554 23.3957C524.997 22.8889 525.505 22.4455 525.695 22.4455ZM546.297 17.1252C547.057 15.2249 549.909 16.2381 549.909 18.3918C549.909 19.2153 550.164 20.4185 550.48 21.0519C550.797 21.6221 551.367 23.3961 551.81 24.9797C552.254 26.5628 552.825 28.3359 553.142 28.9064C553.458 29.5399 553.713 30.8705 553.713 31.884C553.713 32.9608 554.03 33.9742 554.347 34.1643C554.727 34.3546 554.98 35.2415 554.98 36.1281C554.98 36.9516 555.234 38.1549 555.551 38.7883C555.868 39.3584 556.438 41.1324 556.882 42.716C557.325 44.2994 557.896 46.0726 558.213 46.6428C558.53 47.2761 558.783 48.2896 558.783 48.923C558.783 49.5565 559.1 50.38 559.544 50.8234C560.178 51.4568 559.987 51.901 558.91 52.9777C557.579 54.3079 557.516 54.3074 556.248 53.1672C555.551 52.5338 554.981 51.2042 554.98 50.2541C554.98 49.3039 554.726 48.3533 554.409 48.1633C554.156 47.9723 553.713 46.5792 553.586 45.0598C553.396 43.4762 552.762 41.322 552.191 40.1818C551.621 39.0417 551.177 37.4585 551.177 36.635C551.177 35.8115 550.923 34.9881 550.543 34.798C550.226 34.6078 549.909 33.7209 549.909 32.8977C549.909 32.0742 549.656 31.2508 549.339 31.0607C549.022 30.8705 548.642 29.7935 548.452 28.6535C548.262 27.5133 547.628 24.6623 547.058 22.3186C546.424 20.0387 546.107 17.6958 546.297 17.1252ZM593.706 5.91328C595.544 4.77309 596.495 5.84955 597.002 9.46015C597.509 12.944 598.586 18.9613 599.347 22.7619C599.727 24.4722 600.171 27.1333 600.361 28.6535C600.615 30.1097 601.058 31.5025 601.311 31.6936C601.628 31.8836 601.882 33.1505 601.882 34.4807C601.882 35.8109 602.2 37.1412 602.517 37.3312C602.897 37.5218 603.15 38.7887 603.15 40.1818C603.15 44.2992 599.854 44.1721 599.157 39.9914C598.967 38.8511 598.459 36.6341 598.143 34.924C593.136 12.6287 592.249 6.80067 593.706 5.91328ZM616.458 3.50605C617.345 1.79576 618.74 1.7959 619.754 3.56953C620.514 4.96309 620.832 7.05363 622.1 18.6447C622.353 21.2418 623.113 26.753 623.747 30.8703C624.761 37.3309 624.761 38.4715 624.001 39.2316C622.607 40.6252 621.402 39.4217 620.832 36.0012C620.515 34.291 619.945 31.1872 619.564 29.0969C619.184 27.0066 618.613 23.0158 618.296 20.2287C617.092 9.84159 616.649 6.92697 616.205 5.8498C615.952 5.27981 616.015 4.20284 616.458 3.50605ZM640.227 0.844917C640.67 -0.421669 641.621 -0.674664 642.889 0.148628C643.966 0.845413 644.98 6.48328 644.98 11.9309C644.98 14.4011 645.234 18.0111 645.551 19.9748C646.565 25.8658 646.628 35.6213 645.678 36.5715C645.044 37.1415 644.663 37.0142 643.649 35.8107C642.635 34.544 642.445 33.3404 642.445 27.7668C642.445 24.0937 642.192 21.0537 641.811 20.8625C641.431 20.6725 641.178 17.6313 641.178 14.0207C641.178 10.4735 640.861 6.29288 640.48 4.77265C640.164 3.2524 640.036 1.47836 640.227 0.844917ZM662.98 -0.738091C663.234 -1.30816 663.931 -1.6245 664.755 -1.49786C666.022 -1.30783 666.276 -0.801548 666.656 2.80878C667.544 10.2198 667.987 35.176 667.29 35.8742C666.846 36.3176 666.276 36.2551 665.389 35.8117C664.248 35.1783 664.121 34.2909 663.741 23.9025C663.551 17.6951 663.171 9.84092 662.98 6.42011C662.79 2.99968 662.79 -0.167801 662.98 -0.738091Z" fill="url(#paint0_linear_3201_89580)"/>
<defs>
<linearGradient id="paint0_linear_3201_89580" x1="44.7718" y1="946" x2="-199.262" y2="244.212" gradientUnits="userSpaceOnUse">
<stop stop-color="white" stop-opacity="0.8"/>
<stop offset="1" stop-color="white" stop-opacity="0.2"/>
</linearGradient>
</defs>
</svg>
